<svg version="1.1" viewBox="0.0 0.0 960.0 540.0" fill="none" stroke="none" stroke-linecap="square" stroke-miterlimit="10" xmlns:xlink="http://www.w3.org/1999/xlink" xmlns="http://www.w3.org/2000/svg"><clipPath id="g2ccf07d927c_1_489.0"><path d="m0 0l960.0 0l0 540.0l-960.0 0l0 -540.0z" clip-rule="nonzero"/></clipPath><g clip-path="url(#g2ccf07d927c_1_489.0)"><path fill="#ffffff" d="m0 0l960.0 0l0 540.0l-960.0 0z" fill-rule="evenodd"/><path stroke="#000000" stroke-width="2.0" stroke-linecap="butt" d="m156.0 414.4777l0 43.595795" fill-rule="nonzero"/><path stroke="#000000" stroke-width="1.0" stroke-linecap="butt" d="m219.33333 414.4777l0 43.595795" fill-rule="nonzero"/><path stroke="#000000" stroke-width="1.0" stroke-linecap="butt" d="m282.66666 414.4777l0 43.595795" fill-rule="nonzero"/><path stroke="#000000" stroke-width="1.0" stroke-linecap="butt" d="m346.0 414.4777l0 43.595795" fill-rule="nonzero"/><path stroke="#000000" stroke-width="1.0" stroke-linecap="butt" d="m409.33334 414.4777l0 43.595795" fill-rule="nonzero"/><path stroke="#000000" stroke-width="1.0" stroke-linecap="butt" d="m472.66666 414.4777l0 43.595795" fill-rule="nonzero"/><path stroke="#000000" stroke-width="1.0" stroke-linecap="butt" d="m536.0 414.4777l0 43.595795" fill-rule="nonzero"/><path stroke="#000000" stroke-width="1.0" stroke-linecap="butt" d="m599.3333 414.4777l0 43.595795" fill-rule="nonzero"/><path stroke="#000000" stroke-width="1.0" stroke-linecap="butt" d="m662.6667 414.4777l0 43.595795" fill-rule="nonzero"/><path stroke="#000000" stroke-width="1.0" stroke-linecap="butt" d="m726.0 414.4777l0 43.595795" fill-rule="nonzero"/><path stroke="#000000" stroke-width="1.0" stroke-linecap="butt" d="m789.3333 414.4777l0 43.595795" fill-rule="nonzero"/><path stroke="#000000" stroke-width="1.0" stroke-linecap="butt" d="m852.6667 414.4777l0 43.595795" fill-rule="nonzero"/><path stroke="#000000" stroke-width="2.0" stroke-linecap="butt" d="m916.0 414.4777l0 43.595795" fill-rule="nonzero"/><path stroke="#000000" stroke-width="2.0" stroke-linecap="butt" d="m155.0 415.4777l762.0 0" fill-rule="nonzero"/><path stroke="#000000" stroke-width="2.0" stroke-linecap="butt" d="m155.0 457.0735l762.0 0" fill-rule="nonzero"/><path fill="#000000" d="m183.26006 436.40182q0 -2.359375 0.484375 -3.796875q0.484375 -1.453125 1.4375 -2.234375q0.96875 -0.78125 2.421875 -0.78125q1.078125 0 1.890625 0.4375q0.8125 0.421875 1.328125 1.25q0.53125 0.8125 0.828125 1.984375q0.3125 1.15625 0.3125 3.140625q0 2.359375 -0.484375 3.8125q-0.484375 1.4375 -1.453125 2.234375q-0.953125 0.78125 -2.421875 0.78125q-1.921875 0 -3.03125 -1.390625q-1.3125 -1.671875 -1.3125 -5.4375zm1.671875 0q0 3.296875 0.765625 4.390625q0.78125 1.078125 1.90625 1.078125q1.140625 0 1.90625 -1.09375q0.765625 -1.09375 0.765625 -4.375q0 -3.296875 -0.765625 -4.375q-0.765625 -1.078125 -1.921875 -1.078125q-1.125 0 -1.796875 0.953125q-0.859375 1.21875 -0.859375 4.5z" fill-rule="nonzero"/><path fill="#000000" d="m252.76526 442.99557l-1.640625 0l0 -10.453125q-0.59375 0.5625 -1.5625 1.140625q-0.953125 0.5625 -1.71875 0.84375l0 -1.59375q1.375 -0.640625 2.40625 -1.5625q1.03125 -0.921875 1.453125 -1.78125l1.0625 0l0 13.40625z" fill-rule="nonzero"/><path fill="#000000" d="m316.0986 442.99557l-1.640625 0l0 -10.453125q-0.59375 0.5625 -1.5625 1.140625q-0.953125 0.5625 -1.71875 0.84375l0 -1.59375q1.375 -0.640625 2.40625 -1.5625q1.03125 -0.921875 1.453125 -1.78125l1.0625 0l0 13.40625z" fill-rule="nonzero"/><path fill="#000000" d="m381.86945 441.41745l0 1.578125l-8.828125 0q-0.015625 -0.59375 0.1875 -1.140625q0.34375 -0.90625 1.078125 -1.78125q0.75 -0.875 2.15625 -2.015625q2.171875 -1.78125 2.9375 -2.828125q0.765625 -1.046875 0.765625 -1.96875q0 -0.984375 -0.703125 -1.640625q-0.6875 -0.671875 -1.8125 -0.671875q-1.1875 0 -1.90625 0.71875q-0.703125 0.703125 -0.703125 1.953125l-1.6875 -0.171875q0.171875 -1.890625 1.296875 -2.875q1.140625 -0.984375 3.03125 -0.984375q1.921875 0 3.046875 1.0625q1.125 1.0625 1.125 2.640625q0 0.796875 -0.328125 1.578125q-0.328125 0.78125 -1.09375 1.640625q-0.75 0.84375 -2.53125 2.34375q-1.46875 1.234375 -1.890625 1.6875q-0.421875 0.4375 -0.6875 0.875l6.546875 0z" fill-rule="nonzero"/><path fill="#000000" d="m445.20276 441.41745l0 1.578125l-8.828125 0q-0.015625 -0.59375 0.1875 -1.140625q0.34375 -0.90625 1.078125 -1.78125q0.75 -0.875 2.15625 -2.015625q2.171875 -1.78125 2.9375 -2.828125q0.765625 -1.046875 0.765625 -1.96875q0 -0.984375 -0.703125 -1.640625q-0.6875 -0.671875 -1.8125 -0.671875q-1.1875 0 -1.90625 0.71875q-0.703125 0.703125 -0.703125 1.953125l-1.6875 -0.171875q0.171875 -1.890625 1.296875 -2.875q1.140625 -0.984375 3.03125 -0.984375q1.921875 0 3.046875 1.0625q1.125 1.0625 1.125 2.640625q0 0.796875 -0.328125 1.578125q-0.328125 0.78125 -1.09375 1.640625q-0.75 0.84375 -2.53125 2.34375q-1.46875 1.234375 -1.890625 1.6875q-0.421875 0.4375 -0.6875 0.875l6.546875 0z" fill-rule="nonzero"/><path fill="#000000" d="m505.17673 442.99557l0 -3.203125l-5.796875 0l0 -1.5l6.09375 -8.65625l1.34375 0l0 8.65625l1.796875 0l0 1.5l-1.796875 0l0 3.203125l-1.640625 0zm0 -4.703125l0 -6.015625l-4.1875 6.015625l4.1875 0z" fill-rule="nonzero"/><path fill="#000000" d="m569.43195 442.99557l-1.640625 0l0 -10.453125q-0.59375 0.5625 -1.5625 1.140625q-0.953125 0.5625 -1.71875 0.84375l0 -1.59375q1.375 -0.640625 2.40625 -1.5625q1.03125 -0.921875 1.453125 -1.78125l1.0625 0l0 13.40625z" fill-rule="nonzero"/><path fill="#000000" d="m626.5934 439.46432l1.640625 -0.21875q0.28125 1.40625 0.953125 2.015625q0.6875 0.609375 1.65625 0.609375q1.15625 0 1.953125 -0.796875q0.796875 -0.796875 0.796875 -1.984375q0 -1.125 -0.734375 -1.859375q-0.734375 -0.734375 -1.875 -0.734375q-0.46875 0 -1.15625 0.171875l0.1875 -1.4375q0.15625 0.015625 0.265625 0.015625q1.046875 0 1.875 -0.546875q0.84375 -0.546875 0.84375 -1.671875q0 -0.90625 -0.609375 -1.5q-0.609375 -0.59375 -1.578125 -0.59375q-0.953125 0 -1.59375 0.609375q-0.640625 0.59375 -0.8125 1.796875l-1.640625 -0.296875q0.296875 -1.640625 1.359375 -2.546875q1.0625 -0.90625 2.65625 -0.90625q1.09375 0 2.0 0.46875q0.921875 0.46875 1.40625 1.28125q0.5 0.8125 0.5 1.71875q0 0.859375 -0.46875 1.578125q-0.46875 0.703125 -1.375 1.125q1.1875 0.28125 1.84375 1.140625q0.65625 0.859375 0.65625 2.15625q0 1.734375 -1.28125 2.953125q-1.265625 1.21875 -3.21875 1.21875q-1.765625 0 -2.921875 -1.046875q-1.15625 -1.046875 -1.328125 -2.71875z" fill-rule="nonzero"/><path fill="#000000" d="m689.9267 439.46432l1.640625 -0.21875q0.28125 1.40625 0.953125 2.015625q0.6875 0.609375 1.65625 0.609375q1.15625 0 1.953125 -0.796875q0.796875 -0.796875 0.796875 -1.984375q0 -1.125 -0.734375 -1.859375q-0.734375 -0.734375 -1.875 -0.734375q-0.46875 0 -1.15625 0.171875l0.1875 -1.4375q0.15625 0.015625 0.265625 0.015625q1.046875 0 1.875 -0.546875q0.84375 -0.546875 0.84375 -1.671875q0 -0.90625 -0.609375 -1.5q-0.609375 -0.59375 -1.578125 -0.59375q-0.953125 0 -1.59375 0.609375q-0.640625 0.59375 -0.8125 1.796875l-1.640625 -0.296875q0.296875 -1.640625 1.359375 -2.546875q1.0625 -0.90625 2.65625 -0.90625q1.09375 0 2.0 0.46875q0.921875 0.46875 1.40625 1.28125q0.5 0.8125 0.5 1.71875q0 0.859375 -0.46875 1.578125q-0.46875 0.703125 -1.375 1.125q1.1875 0.28125 1.84375 1.140625q0.65625 0.859375 0.65625 2.15625q0 1.734375 -1.28125 2.953125q-1.265625 1.21875 -3.21875 1.21875q-1.765625 0 -2.921875 -1.046875q-1.15625 -1.046875 -1.328125 -2.71875z" fill-rule="nonzero"/><path fill="#000000" d="m758.5101 442.99557l0 -3.203125l-5.796875 0l0 -1.5l6.09375 -8.65625l1.34375 0l0 8.65625l1.796875 0l0 1.5l-1.796875 0l0 3.203125l-1.640625 0zm0 -4.703125l0 -6.015625l-4.1875 6.015625l4.1875 0z" fill-rule="nonzero"/><path fill="#000000" d="m821.8434 442.99557l0 -3.203125l-5.796875 0l0 -1.5l6.09375 -8.65625l1.34375 0l0 8.65625l1.796875 0l0 1.5l-1.796875 0l0 3.203125l-1.640625 0zm0 -4.703125l0 -6.015625l-4.1875 6.015625l4.1875 0z" fill-rule="nonzero"/><path fill="#000000" d="m879.9267 439.49557l1.71875 -0.140625q0.1875 1.25 0.875 1.890625q0.703125 0.625 1.6875 0.625q1.1875 0 2.0 -0.890625q0.828125 -0.890625 0.828125 -2.359375q0 -1.40625 -0.796875 -2.21875q-0.78125 -0.8125 -2.0625 -0.8125q-0.78125 0 -1.421875 0.359375q-0.640625 0.359375 -1.0 0.9375l-1.546875 -0.203125l1.296875 -6.859375l6.640625 0l0 1.5625l-5.328125 0l-0.71875 3.59375q1.203125 -0.84375 2.515625 -0.84375q1.75 0 2.953125 1.21875q1.203125 1.203125 1.203125 3.109375q0 1.8125 -1.046875 3.140625q-1.296875 1.625 -3.515625 1.625q-1.8125 0 -2.96875 -1.015625q-1.15625 -1.03125 -1.3125 -2.71875z" fill-rule="nonzero"/><path stroke="#000000" stroke-width="2.0" stroke-linecap="butt" d="m288.53543 276.38058l0 43.595795" fill-rule="nonzero"/><path stroke="#000000" stroke-width="2.0" stroke-linecap="butt" d="m371.02362 276.38058l0 43.595795" fill-rule="nonzero"/><path stroke="#000000" stroke-width="2.0" stroke-linecap="butt" d="m453.5118 276.38058l0 43.595795" fill-rule="nonzero"/><path stroke="#000000" stroke-width="2.0" stroke-linecap="butt" d="m536.0 276.38058l0 43.595795" fill-rule="nonzero"/><path stroke="#000000" stroke-width="2.0" stroke-linecap="butt" d="m618.48816 276.38058l0 43.595795" fill-rule="nonzero"/><path stroke="#000000" stroke-width="2.0" stroke-linecap="butt" d="m700.9764 276.38058l0 43.595795" fill-rule="nonzero"/><path stroke="#000000" stroke-width="2.0" stroke-linecap="butt" d="m783.46454 276.38058l0 43.595795" fill-rule="nonzero"/><path stroke="#000000" stroke-width="2.0" stroke-linecap="butt" d="m287.53543 277.38058l496.9291 0" fill-rule="nonzero"/><path stroke="#000000" stroke-width="2.0" stroke-linecap="butt" d="m287.53543 318.97638l496.9291 0" fill-rule="nonzero"/><path fill="#000000" d="m325.37292 298.30472q0 -2.359375 0.484375 -3.796875q0.484375 -1.453125 1.4375 -2.234375q0.96875 -0.78125 2.421875 -0.78125q1.078125 0 1.890625 0.4375q0.8125 0.421875 1.328125 1.25q0.53125 0.8125 0.828125 1.984375q0.3125 1.15625 0.3125 3.140625q0 2.359375 -0.484375 3.8125q-0.484375 1.4375 -1.453125 2.234375q-0.953125 0.78125 -2.421875 0.78125q-1.921875 0 -3.03125 -1.390625q-1.3125 -1.671875 -1.3125 -5.4375zm1.671875 0q0 3.296875 0.765625 4.390625q0.78125 1.078125 1.90625 1.078125q1.140625 0 1.90625 -1.09375q0.765625 -1.09375 0.765625 -4.375q0 -3.296875 -0.765625 -4.375q-0.765625 -1.078125 -1.921875 -1.078125q-1.125 0 -1.796875 0.953125q-0.859375 1.21875 -0.859375 4.5z" fill-rule="nonzero"/><path fill="#000000" d="m416.4705 303.32034l0 1.578125l-8.828125 0q-0.015625 -0.59375 0.1875 -1.140625q0.34375 -0.90625 1.078125 -1.78125q0.75 -0.875 2.15625 -2.015625q2.171875 -1.78125 2.9375 -2.828125q0.765625 -1.046875 0.765625 -1.96875q0 -0.984375 -0.703125 -1.640625q-0.6875 -0.671875 -1.8125 -0.671875q-1.1875 0 -1.90625 0.71875q-0.703125 0.703125 -0.703125 1.953125l-1.6875 -0.171875q0.171875 -1.890625 1.296875 -2.875q1.140625 -0.984375 3.03125 -0.984375q1.921875 0 3.046875 1.0625q1.125 1.0625 1.125 2.640625q0 0.796875 -0.328125 1.578125q-0.328125 0.78125 -1.09375 1.640625q-0.75 0.84375 -2.53125 2.34375q-1.46875 1.234375 -1.890625 1.6875q-0.421875 0.4375 -0.6875 0.875l6.546875 0z" fill-rule="nonzero"/><path fill="#000000" d="m498.8493 294.82034l-1.625 0.125q-0.21875 -0.96875 -0.625 -1.40625q-0.65625 -0.703125 -1.640625 -0.703125q-0.78125 0 -1.375 0.4375q-0.765625 0.5625 -1.21875 1.65625q-0.453125 1.078125 -0.46875 3.078125q0.59375 -0.890625 1.453125 -1.328125q0.859375 -0.4375 1.796875 -0.4375q1.640625 0 2.78125 1.203125q1.15625 1.203125 1.15625 3.109375q0 1.265625 -0.546875 2.34375q-0.53125 1.078125 -1.484375 1.65625q-0.9375 0.578125 -2.140625 0.578125q-2.0625 0 -3.359375 -1.5q-1.28125 -1.515625 -1.28125 -4.984375q0 -3.875 1.421875 -5.625q1.25 -1.53125 3.375 -1.53125q1.5625 0 2.5625 0.890625q1.015625 0.875 1.21875 2.4375zm-6.6875 5.75q0 0.84375 0.359375 1.625q0.359375 0.765625 1.0 1.171875q0.640625 0.40625 1.359375 0.40625q1.03125 0 1.78125 -0.828125q0.75 -0.84375 0.75 -2.28125q0 -1.390625 -0.734375 -2.1875q-0.734375 -0.796875 -1.859375 -0.796875q-1.109375 0 -1.890625 0.796875q-0.765625 0.796875 -0.765625 2.09375z" fill-rule="nonzero"/><path fill="#000000" d="m578.08746 304.89847l0 -3.203125l-5.796875 0l0 -1.5l6.09375 -8.65625l1.34375 0l0 8.65625l1.796875 0l0 1.5l-1.796875 0l0 3.203125l-1.640625 0zm0 -4.703125l0 -6.015625l-4.1875 6.015625l4.1875 0z" fill-rule="nonzero"/><path fill="#000000" d="m657.8413 297.6641q-1.015625 -0.375 -1.515625 -1.0625q-0.484375 -0.703125 -0.484375 -1.671875q0 -1.453125 1.046875 -2.4375q1.046875 -1.0 2.78125 -1.0q1.75 0 2.8125 1.015625q1.078125 1.015625 1.078125 2.46875q0 0.9375 -0.5 1.625q-0.484375 0.6875 -1.46875 1.0625q1.21875 0.390625 1.859375 1.28125q0.65625 0.890625 0.65625 2.140625q0 1.703125 -1.21875 2.875q-1.21875 1.171875 -3.1875 1.171875q-1.984375 0 -3.203125 -1.171875q-1.203125 -1.171875 -1.203125 -2.921875q0 -1.3125 0.65625 -2.1875q0.671875 -0.875 1.890625 -1.1875zm-0.328125 -2.78125q0 0.9375 0.609375 1.546875q0.609375 0.59375 1.59375 0.59375q0.9375 0 1.546875 -0.59375q0.609375 -0.59375 0.609375 -1.453125q0 -0.90625 -0.625 -1.515625q-0.625 -0.625 -1.5625 -0.625q-0.9375 0 -1.5625 0.609375q-0.609375 0.59375 -0.609375 1.4375zm-0.53125 6.15625q0 0.703125 0.328125 1.359375q0.34375 0.65625 1.0 1.015625q0.65625 0.359375 1.40625 0.359375q1.171875 0 1.9375 -0.75q0.765625 -0.75 0.765625 -1.921875q0 -1.1875 -0.796875 -1.953125q-0.78125 -0.78125 -1.953125 -0.78125q-1.15625 0 -1.921875 0.765625q-0.765625 0.765625 -0.765625 1.90625z" fill-rule="nonzero"/><path fill="#000000" d="m738.79785 304.89847l-1.640625 0l0 -10.453125q-0.59375 0.5625 -1.5625 1.140625q-0.953125 0.5625 -1.71875 0.84375l0 -1.59375q1.375 -0.640625 2.40625 -1.5625q1.03125 -0.921875 1.453125 -1.78125l1.0625 0l0 13.40625zm4.2038574 -6.59375q0 -2.359375 0.484375 -3.796875q0.484375 -1.453125 1.4375 -2.234375q0.96875 -0.78125 2.421875 -0.78125q1.078125 0 1.890625 0.4375q0.8125 0.421875 1.328125 1.25q0.53125 0.8125 0.828125 1.984375q0.3125 1.15625 0.3125 3.140625q0 2.359375 -0.484375 3.8125q-0.484375 1.4375 -1.453125 2.234375q-0.953125 0.78125 -2.421875 0.78125q-1.921875 0 -3.03125 -1.390625q-1.3125 -1.671875 -1.3125 -5.4375zm1.671875 0q0 3.296875 0.765625 4.390625q0.78125 1.078125 1.90625 1.078125q1.140625 0 1.90625 -1.09375q0.765625 -1.09375 0.765625 -4.375q0 -3.296875 -0.765625 -4.375q-0.765625 -1.078125 -1.921875 -1.078125q-1.125 0 -1.796875 0.953125q-0.859375 1.21875 -0.859375 4.5z" fill-rule="nonzero"/><path stroke="#000000" stroke-width="4.0" stroke-linecap="butt" d="m288.53543 92.28609l0 87.191605" fill-rule="nonzero"/><path stroke="#000000" stroke-width="2.0" stroke-linecap="butt" d="m371.02362 92.28609l0 87.191605" fill-rule="nonzero"/><path stroke="#000000" stroke-width="2.0" stroke-linecap="butt" d="m453.5118 92.28609l0 87.191605" fill-rule="nonzero"/><path stroke="#000000" stroke-width="2.0" stroke-linecap="butt" d="m536.0 92.28609l0 87.191605" fill-rule="nonzero"/><path stroke="#000000" stroke-width="2.0" stroke-linecap="butt" d="m618.48816 92.28609l0 87.191605" fill-rule="nonzero"/><path stroke="#000000" stroke-width="2.0" stroke-linecap="butt" d="m700.9764 92.28609l0 87.191605" fill-rule="nonzero"/><path stroke="#000000" stroke-width="4.0" stroke-linecap="butt" d="m783.46454 92.28609l0 87.191605" fill-rule="nonzero"/><path stroke="#000000" stroke-width="4.0" stroke-linecap="butt" d="m286.53543 94.28609l498.9291 0" fill-rule="nonzero"/><path stroke="#000000" stroke-width="2.0" stroke-linecap="butt" d="m286.53543 135.8819l498.9291 0" fill-rule="nonzero"/><path stroke="#000000" stroke-width="4.0" stroke-linecap="butt" d="m286.53543 177.47769l498.9291 0" fill-rule="nonzero"/><path fill="#000000" d="m315.0652 121.803986l0 -13.359375l1.78125 0l0 6.625l6.625 -6.625l2.390625 0l-5.59375 5.421875l5.84375 7.9375l-2.328125 0l-4.765625 -6.765625l-2.171875 2.140625l0 4.625l-1.78125 0zm18.943573 -3.109375l1.6875 0.203125q-0.40625 1.484375 -1.484375 2.3125q-1.078125 0.8125 -2.765625 0.8125q-2.125 0 -3.375 -1.296875q-1.234375 -1.3125 -1.234375 -3.671875q0 -2.453125 1.25 -3.796875q1.265625 -1.34375 3.265625 -1.34375q1.9375 0 3.15625 1.328125q1.234375 1.3125 1.234375 3.703125q0 0.15625 0 0.4375l-7.21875 0q0.09375 1.59375 0.90625 2.453125q0.8125 0.84375 2.015625 0.84375q0.90625 0 1.546875 -0.46875q0.640625 -0.484375 1.015625 -1.515625zm-5.390625 -2.65625l5.40625 0q-0.109375 -1.21875 -0.625 -1.828125q-0.78125 -0.953125 -2.03125 -0.953125q-1.125 0 -1.90625 0.765625q-0.765625 0.75 -0.84375 2.015625zm9.063232 9.484375l-0.1875 -1.53125q0.546875 0.140625 0.9375 0.140625q0.546875 0 0.875 -0.1875q0.328125 -0.171875 0.546875 -0.5q0.15625 -0.25 0.5 -1.21875q0.046875 -0.140625 0.140625 -0.40625l-3.671875 -9.6875l1.765625 0l2.015625 5.59375q0.390625 1.078125 0.703125 2.25q0.28125 -1.125 0.671875 -2.203125l2.078125 -5.640625l1.640625 0l-3.6875 9.828125q-0.59375 1.609375 -0.921875 2.203125q-0.4375 0.8125 -1.0 1.1875q-0.5625 0.375 -1.34375 0.375q-0.484375 0 -1.0625 -0.203125z" fill-rule="nonzero"/><path fill="#000000" d="m407.8611 115.210236q0 -2.359375 0.484375 -3.796875q0.484375 -1.453125 1.4375 -2.234375q0.96875 -0.78125 2.421875 -0.78125q1.078125 0 1.890625 0.4375q0.8125 0.421875 1.328125 1.25q0.53125 0.8125 0.828125 1.984375q0.3125 1.15625 0.3125 3.140625q0 2.359375 -0.484375 3.8125q-0.484375 1.4375 -1.453125 2.234375q-0.953125 0.78125 -2.421875 0.78125q-1.921875 0 -3.03125 -1.390625q-1.3125 -1.671875 -1.3125 -5.4375zm1.671875 0q0 3.296875 0.765625 4.390625q0.78125 1.078125 1.90625 1.078125q1.140625 0 1.90625 -1.09375q0.765625 -1.09375 0.765625 -4.375q0 -3.296875 -0.765625 -4.375q-0.765625 -1.078125 -1.921875 -1.078125q-1.125 0 -1.796875 0.953125q-0.859375 1.21875 -0.859375 4.5z" fill-rule="nonzero"/><path fill="#000000" d="m496.52118 121.803986l-1.640625 0l0 -10.453125q-0.59375 0.5625 -1.5625 1.140625q-0.953125 0.5625 -1.71875 0.84375l0 -1.59375q1.375 -0.640625 2.40625 -1.5625q1.03125 -0.921875 1.453125 -1.78125l1.0625 0l0 13.40625z" fill-rule="nonzero"/><path fill="#000000" d="m581.44684 120.22586l0 1.578125l-8.828125 0q-0.015625 -0.59375 0.1875 -1.140625q0.34375 -0.90625 1.078125 -1.78125q0.75 -0.875 2.15625 -2.015625q2.171875 -1.78125 2.9375 -2.828125q0.765625 -1.046875 0.765625 -1.96875q0 -0.984375 -0.703125 -1.640625q-0.6875 -0.671875 -1.8125 -0.671875q-1.1875 0 -1.90625 0.71875q-0.703125 0.703125 -0.703125 1.953125l-1.6875 -0.171875q0.171875 -1.890625 1.296875 -2.875q1.140625 -0.984375 3.03125 -0.984375q1.921875 0 3.046875 1.0625q1.125 1.0625 1.125 2.640625q0 0.796875 -0.328125 1.578125q-0.328125 0.78125 -1.09375 1.640625q-0.75 0.84375 -2.53125 2.34375q-1.46875 1.234375 -1.890625 1.6875q-0.421875 0.4375 -0.6875 0.875l6.546875 0z" fill-rule="nonzero"/><path fill="#000000" d="m655.3257 118.272736l1.640625 -0.21875q0.28125 1.40625 0.953125 2.015625q0.6875 0.609375 1.65625 0.609375q1.15625 0 1.953125 -0.796875q0.796875 -0.796875 0.796875 -1.984375q0 -1.125 -0.734375 -1.859375q-0.734375 -0.734375 -1.875 -0.734375q-0.46875 0 -1.15625 0.171875l0.1875 -1.4375q0.15625 0.015625 0.265625 0.015625q1.046875 0 1.875 -0.546875q0.84375 -0.546875 0.84375 -1.671875q0 -0.90625 -0.609375 -1.5q-0.609375 -0.59375 -1.578125 -0.59375q-0.953125 0 -1.59375 0.609375q-0.640625 0.59375 -0.8125 1.796875l-1.640625 -0.296875q0.296875 -1.640625 1.359375 -2.546875q1.0625 -0.90625 2.65625 -0.90625q1.09375 0 2.0 0.46875q0.921875 0.46875 1.40625 1.28125q0.5 0.8125 0.5 1.71875q0 0.859375 -0.46875 1.578125q-0.46875 0.703125 -1.375 1.125q1.1875 0.28125 1.84375 1.140625q0.65625 0.859375 0.65625 2.15625q0 1.734375 -1.28125 2.953125q-1.265625 1.21875 -3.21875 1.21875q-1.765625 0 -2.921875 -1.046875q-1.15625 -1.046875 -1.328125 -2.71875z" fill-rule="nonzero"/><path fill="#000000" d="m743.06384 121.803986l0 -3.203125l-5.796875 0l0 -1.5l6.09375 -8.65625l1.34375 0l0 8.65625l1.796875 0l0 1.5l-1.796875 0l0 3.203125l-1.640625 0zm0 -4.703125l0 -6.015625l-4.1875 6.015625l4.1875 0z" fill-rule="nonzero"/><path fill="#000000" d="m322.24017 163.3998l-5.171875 -13.359375l1.921875 0l3.46875 9.703125q0.421875 1.171875 0.703125 2.1875q0.3125 -1.09375 0.71875 -2.1875l3.609375 -9.703125l1.796875 0l-5.234375 13.359375l-1.8125 0zm13.3550415 -1.1875q-0.921875 0.765625 -1.765625 1.09375q-0.828125 0.3125 -1.796875 0.3125q-1.59375 0 -2.453125 -0.78125q-0.859375 -0.78125 -0.859375 -1.984375q0 -0.71875 0.328125 -1.296875q0.328125 -0.59375 0.84375 -0.9375q0.53125 -0.359375 1.1875 -0.546875q0.46875 -0.125 1.453125 -0.25q1.984375 -0.234375 2.921875 -0.5625q0.015625 -0.34375 0.015625 -0.421875q0 -1.0 -0.46875 -1.421875q-0.625 -0.546875 -1.875 -0.546875q-1.15625 0 -1.703125 0.40625q-0.546875 0.40625 -0.8125 1.421875l-1.609375 -0.21875q0.21875 -1.015625 0.71875 -1.640625q0.5 -0.640625 1.453125 -0.984375q0.953125 -0.34375 2.1875 -0.34375q1.25 0 2.015625 0.296875q0.78125 0.28125 1.140625 0.734375q0.375 0.4375 0.515625 1.109375q0.078125 0.421875 0.078125 1.515625l0 2.1875q0 2.28125 0.109375 2.890625q0.109375 0.59375 0.40625 1.15625l-1.703125 0q-0.265625 -0.515625 -0.328125 -1.1875zm-0.140625 -3.671875q-0.890625 0.375 -2.671875 0.625q-1.015625 0.140625 -1.4375 0.328125q-0.421875 0.1875 -0.65625 0.53125q-0.21875 0.34375 -0.21875 0.78125q0 0.65625 0.5 1.09375q0.5 0.4375 1.453125 0.4375q0.9375 0 1.671875 -0.40625q0.75 -0.421875 1.09375 -1.140625q0.265625 -0.5625 0.265625 -1.640625l0 -0.609375zm4.156952 4.859375l0 -13.359375l1.640625 0l0 13.359375l-1.640625 0z" fill-rule="nonzero"/><path fill="#000000" d="m407.8611 156.80605q0 -2.359375 0.484375 -3.796875q0.484375 -1.453125 1.4375 -2.234375q0.96875 -0.78125 2.421875 -0.78125q1.078125 0 1.890625 0.4375q0.8125 0.421875 1.328125 1.25q0.53125 0.8125 0.828125 1.984375q0.3125 1.15625 0.3125 3.140625q0 2.359375 -0.484375 3.8125q-0.484375 1.4375 -1.453125 2.234375q-0.953125 0.78125 -2.421875 0.78125q-1.921875 0 -3.03125 -1.390625q-1.3125 -1.671875 -1.3125 -5.4375zm1.671875 0q0 3.296875 0.765625 4.390625q0.78125 1.078125 1.90625 1.078125q1.140625 0 1.90625 -1.09375q0.765625 -1.09375 0.765625 -4.375q0 -3.296875 -0.765625 -4.375q-0.765625 -1.078125 -1.921875 -1.078125q-1.125 0 -1.796875 0.953125q-0.859375 1.21875 -0.859375 4.5z" fill-rule="nonzero"/><path fill="#000000" d="m496.52118 163.3998l-1.640625 0l0 -10.453125q-0.59375 0.5625 -1.5625 1.140625q-0.953125 0.5625 -1.71875 0.84375l0 -1.59375q1.375 -0.640625 2.40625 -1.5625q1.03125 -0.921875 1.453125 -1.78125l1.0625 0l0 13.40625z" fill-rule="nonzero"/><path fill="#000000" d="m572.83746 159.86855l1.640625 -0.21875q0.28125 1.40625 0.953125 2.015625q0.6875 0.609375 1.65625 0.609375q1.15625 0 1.953125 -0.796875q0.796875 -0.796875 0.796875 -1.984375q0 -1.125 -0.734375 -1.859375q-0.734375 -0.734375 -1.875 -0.734375q-0.46875 0 -1.15625 0.171875l0.1875 -1.4375q0.15625 0.015625 0.265625 0.015625q1.046875 0 1.875 -0.546875q0.84375 -0.546875 0.84375 -1.671875q0 -0.90625 -0.609375 -1.5q-0.609375 -0.59375 -1.578125 -0.59375q-0.953125 0 -1.59375 0.609375q-0.640625 0.59375 -0.8125 1.796875l-1.640625 -0.296875q0.296875 -1.640625 1.359375 -2.546875q1.0625 -0.90625 2.65625 -0.90625q1.09375 0 2.0 0.46875q0.921875 0.46875 1.40625 1.28125q0.5 0.8125 0.5 1.71875q0 0.859375 -0.46875 1.578125q-0.46875 0.703125 -1.375 1.125q1.1875 0.28125 1.84375 1.140625q0.65625 0.859375 0.65625 2.15625q0 1.734375 -1.28125 2.953125q-1.265625 1.21875 -3.21875 1.21875q-1.765625 0 -2.921875 -1.046875q-1.15625 -1.046875 -1.328125 -2.71875z" fill-rule="nonzero"/><path fill="#000000" d="m660.5757 163.3998l0 -3.203125l-5.796875 0l0 -1.5l6.09375 -8.65625l1.34375 0l0 8.65625l1.796875 0l0 1.5l-1.796875 0l0 3.203125l-1.640625 0zm0 -4.703125l0 -6.015625l-4.1875 6.015625l4.1875 0z" fill-rule="nonzero"/><path fill="#000000" d="m737.81384 159.8998l1.71875 -0.140625q0.1875 1.25 0.875 1.890625q0.703125 0.625 1.6875 0.625q1.1875 0 2.0 -0.890625q0.828125 -0.890625 0.828125 -2.359375q0 -1.40625 -0.796875 -2.21875q-0.78125 -0.8125 -2.0625 -0.8125q-0.78125 0 -1.421875 0.359375q-0.640625 0.359375 -1.0 0.9375l-1.546875 -0.203125l1.296875 -6.859375l6.640625 0l0 1.5625l-5.328125 0l-0.71875 3.59375q1.203125 -0.84375 2.515625 -0.84375q1.75 0 2.953125 1.21875q1.203125 1.203125 1.203125 3.109375q0 1.8125 -1.046875 3.140625q-1.296875 1.625 -3.515625 1.625q-1.8125 0 -2.96875 -1.015625q-1.15625 -1.03125 -1.3125 -2.71875z" fill-rule="nonzero"/><path fill="#000000" fill-opacity="0.0" d="m407.38846 182.54068l-71.433075 88.09448" fill-rule="evenodd"/><path stroke="#595959" stroke-width="1.0" stroke-linejoin="round" stroke-linecap="butt" d="m407.38846 182.54068l-67.65411 83.43411" fill-rule="evenodd"/><path fill="#595959" stroke="#595959" stroke-width="1.0" stroke-linecap="butt" d="m338.4514 264.93445l-1.5752563 4.565216l4.1411743 -2.4845886z" fill-rule="evenodd"/><path fill="#000000" fill-opacity="0.0" d="m493.10236 182.54068l-72.62991 85.700775" fill-rule="evenodd"/><path stroke="#595959" stroke-width="1.0" stroke-linejoin="round" stroke-linecap="butt" d="m493.10236 182.54068l-68.75073 81.123474" fill-rule="evenodd"/><path fill="#595959" stroke="#595959" stroke-width="1.0" stroke-linecap="butt" d="m423.09155 262.59625l-1.6739502 4.5299377l4.1941223 -2.3941345z" fill-rule="evenodd"/><path fill="#000000" fill-opacity="0.0" d="m575.2467 182.54068l0 79.74805" fill-rule="evenodd"/><path stroke="#595959" stroke-width="1.0" stroke-linejoin="round" stroke-linecap="butt" d="m575.2467 182.54068l0 73.74805" fill-rule="evenodd"/><path fill="#595959" stroke="#595959" stroke-width="1.0" stroke-linecap="butt" d="m573.595 256.28873l1.6517334 4.538086l1.6517334 -4.538086z" fill-rule="evenodd"/><path fill="#000000" fill-opacity="0.0" d="m664.53284 189.68242l1.1968384 74.99211" fill-rule="evenodd"/><path stroke="#595959" stroke-width="1.0" stroke-linejoin="round" stroke-linecap="butt" d="m664.53284 189.68242l1.1010742 68.992874" fill-rule="evenodd"/><path fill="#595959" stroke="#595959" stroke-width="1.0" stroke-linecap="butt" d="m663.98236 258.70166l1.723999 4.5111694l1.5791016 -4.5638733z" fill-rule="evenodd"/><path fill="#000000" fill-opacity="0.0" d="m747.86615 193.2546l0 67.842514" fill-rule="evenodd"/><path stroke="#595959" stroke-width="1.0" stroke-linejoin="round" stroke-linecap="butt" d="m747.86615 193.2546l0 61.842514" fill-rule="evenodd"/><path fill="#595959" stroke="#595959" stroke-width="1.0" stroke-linecap="butt" d="m746.2144 255.0971l1.6517334 4.5381165l1.6517334 -4.5381165z" fill-rule="evenodd"/><path fill="#000000" fill-opacity="0.0" d="m325.2467 333.72964l-136.91338 72.629944" fill-rule="evenodd"/><path stroke="#595959" stroke-width="1.0" stroke-linejoin="round" stroke-linecap="butt" d="m325.2467 333.72964l-131.61299 69.81818" fill-rule="evenodd"/><path fill="#595959" stroke="#595959" stroke-width="1.0" stroke-linecap="butt" d="m192.85966 402.08868l-3.2348938 3.5858154l4.7829895 -0.6675415z" fill-rule="evenodd"/><path fill="#000000" fill-opacity="0.0" d="m408.58005 325.39633l-90.48819 80.944885" fill-rule="evenodd"/><path stroke="#595959" stroke-width="1.0" stroke-linejoin="round" stroke-linecap="butt" d="m408.58005 325.39633l-86.0163 76.94458" fill-rule="evenodd"/><path fill="#595959" stroke="#595959" stroke-width="1.0" stroke-linecap="butt" d="m321.46252 401.10986l-2.281067 4.2566833l4.4835205 -1.7945557z" fill-rule="evenodd"/><path fill="#000000" fill-opacity="0.0" d="m501.4357 325.39633l61.921234 79.74802" fill-rule="evenodd"/><path stroke="#595959" stroke-width="1.0" stroke-linejoin="round" stroke-linecap="butt" d="m501.4357 325.39633l58.241486 75.00888" fill-rule="evenodd"/><path fill="#595959" stroke="#595959" stroke-width="1.0" stroke-linecap="butt" d="m558.37256 401.4182l4.0878296 2.5714417l-1.4785767 -4.5974426z" fill-rule="evenodd"/><path fill="#000000" fill-opacity="0.0" d="m581.19946 327.77692l-132.15747 80.944855" fill-rule="evenodd"/><path stroke="#595959" stroke-width="1.0" stroke-linejoin="round" stroke-linecap="butt" d="m581.19946 327.77692l-127.040924 77.811066" fill-rule="evenodd"/><path fill="#595959" stroke="#595959" stroke-width="1.0" stroke-linecap="butt" d="m453.29584 404.1794l-3.0072021 3.7788086l4.7326355 -0.96173096z" fill-rule="evenodd"/><path fill="#000000" fill-opacity="0.0" d="m663.3412 326.58792l33.322876 78.58267" fill-rule="evenodd"/><path stroke="#595959" stroke-width="1.0" stroke-linejoin="round" stroke-linecap="butt" d="m663.3412 326.58792l30.98053 73.05881" fill-rule="evenodd"/><path fill="#595959" stroke="#595959" stroke-width="1.0" stroke-linecap="butt" d="m692.80096 400.29156l3.2923584 3.533142l-0.2510376 -4.822815z" fill-rule="evenodd"/><path fill="#000000" fill-opacity="0.0" d="m743.10236 331.3491l79.77954 73.79526" fill-rule="evenodd"/><path stroke="#595959" stroke-width="1.0" stroke-linejoin="round" stroke-linecap="butt" d="m743.10236 331.3491l75.37494 69.72104" fill-rule="evenodd"/><path fill="#595959" stroke="#595959" stroke-width="1.0" stroke-linecap="butt" d="m817.3557 402.28268l4.453003 1.868988l-2.2098389 -4.294098z" fill-rule="evenodd"/><path fill="#000000" fill-opacity="0.0" d="m150.50919 112.07087l132.15747 0l0 47.622047l-132.15747 0z" fill-rule="evenodd"/><path fill="#595959" d="m196.45673 144.5219l0 -17.515633l3.375 0l1.734375 5.5937576q0.265625 0.8125 0.421875 1.515625q0.171875 0.703125 0.25 1.046875q0.0625 -0.34375 0.234375 -1.046875q0.171875 -0.703125 0.40625 -1.515625l1.65625 -5.5937576l3.390625 0l0 17.515633l-2.640625 0l0 -5.65625q0 -1.1875 0.0625 -2.578125q0.078125 -1.390625 0.1875 -2.796875q0.109375 -1.421875 0.234375 -2.703125q0.140625 -1.296875 0.234375 -2.21875l-2.46875 8.375l-2.640625 0l-2.515625 -8.375q0.109375 0.90625 0.234375 2.140625q0.125 1.234375 0.21875 2.640625q0.109375 1.40625 0.1875 2.828125q0.078125 1.40625 0.078125 2.6875l0 5.65625l-2.640625 0zm18.743713 0.234375q-2.046875 0 -3.234375 -1.0625q-1.1875 -1.0625 -1.1875 -2.921875q0 -1.90625 1.28125 -2.96875q1.28125 -1.0625 3.5625 -1.0625l3.484375 0l0 -1.171875q0 -1.0 -0.65625 -1.578125q-0.640625 -0.578125 -1.796875 -0.578125q-1.03125 0 -1.71875 0.453125q-0.671875 0.4375 -0.796875 1.203125l-2.734375 0q0.21875 -1.828125 1.671875 -2.90625q1.453125 -1.078125 3.65625 -1.078125q2.40625 0 3.796875 1.203125q1.390625 1.1875 1.390625 3.265625l0 8.96875l-2.734375 0l0 -2.359375l-0.453125 0l0.46875 -0.5625q0 1.453125 -1.109375 2.3125q-1.09375 0.84375 -2.890625 0.84375zm0.890625 -2.109375q1.3125 0 2.15625 -0.671875q0.859375 -0.6875 0.859375 -1.75l0 -1.671875l-3.4375 0q-0.953125 0 -1.53125 0.546875q-0.578125 0.53125 -0.578125 1.4375q0 0.984375 0.671875 1.546875q0.671875 0.5625 1.859375 0.5625zm9.618713 6.1875l0 -17.515625l2.765625 0l0 2.515625l0.59375 0l-0.59375 0.65625q0 -1.578125 0.96875 -2.484375q0.96875 -0.921875 2.59375 -0.921875q2.0 0 3.1875 1.359375q1.1875 1.34375 1.1875 3.65625l0 3.640625q0 1.515625 -0.546875 2.65625q-0.53125 1.140625 -1.515625 1.75q-0.96875 0.609375 -2.3125 0.609375q-1.625 0 -2.59375 -0.90625q-0.96875 -0.90625 -0.96875 -2.5l0.59375 0.65625l-0.625 0l0.078125 3.09375l0 3.734375l-2.8125 0zm5.34375 -6.5q1.203125 0 1.890625 -0.703125q0.6875 -0.703125 0.6875 -2.0l0 -3.40625q0 -1.328125 -0.6875 -2.015625q-0.6875 -0.703125 -1.890625 -0.703125q-1.171875 0 -1.859375 0.71875q-0.671875 0.71875 -0.671875 2.0l0 3.40625q0 1.265625 0.671875 1.984375q0.6875 0.71875 1.859375 0.71875z" fill-rule="nonzero"/><path fill="#000000" fill-opacity="0.0" d="m153.9895 276.9895l125.19684 0l0 47.62204l-125.19684 0z" fill-rule="evenodd"/><path fill="#595959" d="m180.63803 295.2749q-1.78125 0 -3.078125 -0.59375q-1.296875 -0.59375 -2.0 -1.703125q-0.703125 -1.109375 -0.703125 -2.59375l2.78125 0q0 1.125 0.8125 1.78125q0.8125 0.640625 2.234375 0.640625q1.3125 0 2.078125 -0.625q0.78125 -0.640625 0.78125 -1.765625q0 -0.9375 -0.53125 -1.625q-0.53125 -0.6875 -1.515625 -0.921875l-2.109375 -0.609375q-1.984375 -0.546875 -3.078125 -1.90625q-1.078125 -1.359375 -1.078125 -3.21875q0 -1.5 0.65625 -2.578125q0.671875 -1.078125 1.875 -1.6875q1.21875 -0.609375 2.875 -0.609375q2.5 0 3.953125 1.3125q1.46875 1.296875 1.5 3.484375l-2.8125 0q0 -1.078125 -0.703125 -1.703125q-0.6875 -0.625 -1.96875 -0.625q-1.21875 0 -1.90625 0.59375q-0.6875 0.578125 -0.6875 1.609375q0 0.96875 0.515625 1.640625q0.515625 0.671875 1.484375 0.953125l2.1875 0.625q1.984375 0.53125 3.046875 1.875q1.078125 1.34375 1.078125 3.28125q0 1.5 -0.71875 2.609375q-0.703125 1.109375 -1.984375 1.734375q-1.265625 0.625 -2.984375 0.625zm14.353088 -0.015625q-1.65625 0 -2.875 -0.625q-1.203125 -0.625 -1.875 -1.78125q-0.671875 -1.171875 -0.671875 -2.75l0 -3.3125q0 -1.59375 0.671875 -2.75q0.671875 -1.171875 1.875 -1.796875q1.21875 -0.625 2.875 -0.625q1.671875 0 2.875 0.625q1.203125 0.625 1.875 1.796875q0.671875 1.15625 0.671875 2.71875l0 3.34375q0 1.578125 -0.671875 2.75q-0.671875 1.15625 -1.875 1.78125q-1.203125 0.625 -2.875 0.625zm0 -2.453125q1.25 0 1.9375 -0.6875q0.703125 -0.703125 0.703125 -2.015625l0 -3.3125q0 -1.34375 -0.703125 -2.03125q-0.6875 -0.6875 -1.9375 -0.6875q-1.234375 0 -1.9375 0.6875q-0.703125 0.6875 -0.703125 2.03125l0 3.3125q0 1.3125 0.703125 2.015625q0.703125 0.6875 1.9375 0.6875zm9.556213 2.234375l0 -13.203125l2.65625 0l0 2.515625l0.703125 0l-0.84375 1.5625q0 -2.125 0.9375 -3.21875q0.953125 -1.09375 2.796875 -1.09375q2.140625 0 3.359375 1.3125q1.234375 1.296875 1.234375 3.625l0 0.921875l-2.90625 0l0 -0.71875q0 -1.34375 -0.6875 -2.0625q-0.6875 -0.734375 -1.875 -0.734375q-1.234375 0 -1.90625 0.734375q-0.671875 0.734375 -0.671875 2.0625l0 8.296875l-2.796875 0zm20.681213 0q-1.84375 0 -2.875 -1.015625q-1.03125 -1.03125 -1.03125 -2.828125l0 -6.84375l-3.625 0l0 -2.515625l3.625 0l0 -3.71875l2.78125 0l0 3.71875l5.125 0l0 2.515625l-5.125 0l0 6.84375q0 1.328125 1.296875 1.328125l3.59375 0l0 2.515625l-3.765625 0zm12.962463 0.234375q-1.640625 0 -2.859375 -0.625q-1.21875 -0.640625 -1.890625 -1.796875q-0.671875 -1.171875 -0.671875 -2.703125l0 -3.40625q0 -1.546875 0.671875 -2.703125q0.671875 -1.171875 1.890625 -1.796875q1.21875 -0.640625 2.859375 -0.640625q1.65625 0 2.859375 0.640625q1.21875 0.625 1.890625 1.796875q0.671875 1.15625 0.671875 2.703125l0 2.375l-8.15625 0l0 1.03125q0 1.40625 0.703125 2.15625q0.703125 0.75 2.046875 0.75q1.078125 0 1.734375 -0.390625q0.671875 -0.390625 0.84375 -1.078125l2.75 0q-0.3125 1.671875 -1.78125 2.6875q-1.453125 1.0 -3.5625 1.0zm2.734375 -7.796875l0 -0.734375q0 -1.421875 -0.6875 -2.171875q-0.6875 -0.765625 -2.046875 -0.765625q-1.328125 0 -2.03125 0.765625q-0.703125 0.765625 -0.703125 2.171875l0 0.546875l5.65625 -0.03125l-0.1875 0.21875zm10.634338 7.796875q-2.0 0 -3.203125 -1.34375q-1.1875 -1.359375 -1.1875 -3.671875l0 -3.640625q0 -2.3125 1.1875 -3.65625q1.203125 -1.359375 3.203125 -1.359375q1.625 0 2.578125 0.921875q0.96875 0.90625 0.96875 2.484375l-0.59375 -0.65625l0.625 0l-0.078125 -3.09375l0 -3.734375l2.8125 0l0 17.515625l-2.765625 0l0 -2.515625l-0.59375 0l0.59375 -0.65625q0 1.59375 -0.96875 2.5q-0.953125 0.90625 -2.578125 0.90625zm0.984375 -2.421875q1.171875 0 1.84375 -0.71875q0.671875 -0.71875 0.671875 -1.984375l0 -3.40625q0 -1.28125 -0.671875 -2.0q-0.671875 -0.71875 -1.84375 -0.71875q-1.234375 0 -1.921875 0.71875q-0.671875 0.703125 -0.671875 2.0l0 3.40625q0 1.296875 0.671875 2.0q0.6875 0.703125 1.921875 0.703125z" fill-rule="nonzero"/><path fill="#595959" d="m181.52551 323.8405l4.4375 -17.515625l3.65625 0l4.4375 17.515625l-2.84375 0l-1.03125 -4.34375l-4.796875 0l-1.0 4.34375l-2.859375 0zm4.359375 -6.640625l3.78125 0l-1.109375 -4.875q-0.28125 -1.25 -0.5 -2.234375q-0.203125 -0.984375 -0.265625 -1.375q-0.078125 0.390625 -0.265625 1.359375q-0.1875 0.96875 -0.484375 2.21875l-1.15625 4.90625zm11.462463 6.640625l0 -13.203125l2.65625 0l0 2.515625l0.703125 0l-0.84375 1.5625q0 -2.125 0.9375 -3.21875q0.953125 -1.09375 2.796875 -1.09375q2.140625 0 3.359375 1.3125q1.234375 1.296875 1.234375 3.625l0 0.921875l-2.90625 0l0 -0.71875q0 -1.34375 -0.6875 -2.0625q-0.6875 -0.734375 -1.875 -0.734375q-1.234375 0 -1.90625 0.734375q-0.671875 0.734375 -0.671875 2.0625l0 8.296875l-2.796875 0zm14.399963 0l0 -13.203125l2.65625 0l0 2.515625l0.703125 0l-0.84375 1.5625q0 -2.125 0.9375 -3.21875q0.953125 -1.09375 2.796875 -1.09375q2.140625 0 3.359375 1.3125q1.234375 1.296875 1.234375 3.625l0 0.921875l-2.90625 0l0 -0.71875q0 -1.34375 -0.6875 -2.0625q-0.6875 -0.734375 -1.875 -0.734375q-1.234375 0 -1.90625 0.734375q-0.671875 0.734375 -0.671875 2.0625l0 8.296875l-2.796875 0zm17.853088 0.234375q-2.046875 0 -3.234375 -1.0625q-1.1875 -1.0625 -1.1875 -2.921875q0 -1.90625 1.28125 -2.96875q1.28125 -1.0625 3.5625 -1.0625l3.484375 0l0 -1.171875q0 -1.0 -0.65625 -1.578125q-0.640625 -0.578125 -1.796875 -0.578125q-1.03125 0 -1.71875 0.453125q-0.671875 0.4375 -0.796875 1.203125l-2.734375 0q0.21875 -1.828125 1.671875 -2.90625q1.453125 -1.078125 3.65625 -1.078125q2.40625 0 3.796875 1.203125q1.390625 1.1875 1.390625 3.265625l0 8.96875l-2.734375 0l0 -2.359375l-0.453125 0l0.46875 -0.5625q0 1.453125 -1.109375 2.3125q-1.09375 0.84375 -2.890625 0.84375zm0.890625 -2.109375q1.3125 0 2.15625 -0.671875q0.859375 -0.6875 0.859375 -1.75l0 -1.671875l-3.4375 0q-0.953125 0 -1.53125 0.546875q-0.578125 0.53125 -0.578125 1.4375q0 0.984375 0.671875 1.546875q0.671875 0.5625 1.859375 0.5625zm11.759338 6.1875l1.859375 -5.0625l-4.90625 -12.453125l3.0625 0l2.59375 7.109375q0.1875 0.5 0.359375 1.21875q0.1875 0.71875 0.3125 1.203125q0.09375 -0.484375 0.265625 -1.203125q0.1875 -0.71875 0.359375 -1.21875l2.46875 -7.109375l2.953125 0l-6.375 17.515625l-2.953125 0z" fill-rule="nonzero"/><path fill="#000000" fill-opacity="0.0" d="m0 415.4777l200.94489 0l0 47.62204l-200.94489 0z" fill-rule="evenodd"/><path fill="#595959" d="m73.56314 433.52872l0 -17.515625l5.046875 0q1.78125 0 3.0625 0.671875q1.28125 0.671875 2.0 1.890625q0.71875 1.203125 0.71875 2.859375l0 6.640625q0 1.65625 -0.71875 2.890625q-0.71875 1.21875 -2.0 1.890625q-1.28125 0.671875 -3.0625 0.671875l-5.046875 0zm2.8125 -2.5625l2.234375 0q1.390625 0 2.171875 -0.765625q0.796875 -0.78125 0.796875 -2.125l0 -6.640625q0 -1.328125 -0.796875 -2.09375q-0.78125 -0.765625 -2.171875 -0.765625l-2.234375 0l0 12.390625zm15.509338 2.796875q-2.046875 0 -3.234375 -1.0625q-1.1875 -1.0625 -1.1875 -2.921875q0 -1.90625 1.28125 -2.96875q1.28125 -1.0625 3.5625 -1.0625l3.484375 0l0 -1.171875q0 -1.0 -0.65625 -1.578125q-0.640625 -0.578125 -1.796875 -0.578125q-1.03125 0 -1.71875 0.453125q-0.671875 0.4375 -0.796875 1.203125l-2.734375 0q0.21875 -1.828125 1.671875 -2.90625q1.453125 -1.078125 3.65625 -1.078125q2.40625 0 3.796875 1.203125q1.390625 1.1875 1.390625 3.265625l0 8.96875l-2.734375 0l0 -2.359375l-0.453125 0l0.46875 -0.5625q0 1.453125 -1.109375 2.3125q-1.09375 0.84375 -2.890625 0.84375zm0.890625 -2.109375q1.3125 0 2.15625 -0.671875q0.859375 -0.6875 0.859375 -1.75l0 -1.671875l-3.4375 0q-0.953125 0 -1.53125 0.546875q-0.578125 0.53125 -0.578125 1.4375q0 0.984375 0.671875 1.546875q0.671875 0.5625 1.859375 0.5625zm16.337463 1.875q-1.84375 0 -2.875 -1.015625q-1.03125 -1.03125 -1.03125 -2.828125l0 -6.84375l-3.625 0l0 -2.515625l3.625 0l0 -3.71875l2.78125 0l0 3.71875l5.125 0l0 2.515625l-5.125 0l0 6.84375q0 1.328125 1.296875 1.328125l3.59375 0l0 2.515625l-3.765625 0zm11.571838 0.234375q-2.046875 0 -3.234375 -1.0625q-1.1875 -1.0625 -1.1875 -2.921875q0 -1.90625 1.28125 -2.96875q1.28125 -1.0625 3.5625 -1.0625l3.484375 0l0 -1.171875q0 -1.0 -0.65625 -1.578125q-0.640625 -0.578125 -1.796875 -0.578125q-1.03125 0 -1.71875 0.453125q-0.671875 0.4375 -0.796875 1.203125l-2.734375 0q0.21875 -1.828125 1.671875 -2.90625q1.453125 -1.078125 3.65625 -1.078125q2.40625 0 3.796875 1.203125q1.390625 1.1875 1.390625 3.265625l0 8.96875l-2.734375 0l0 -2.359375l-0.453125 0l0.46875 -0.5625q0 1.453125 -1.109375 2.3125q-1.09375 0.84375 -2.890625 0.84375zm0.890625 -2.109375q1.3125 0 2.15625 -0.671875q0.859375 -0.6875 0.859375 -1.75l0 -1.671875l-3.4375 0q-0.953125 0 -1.53125 0.546875q-0.578125 0.53125 -0.578125 1.4375q0 0.984375 0.671875 1.546875q0.671875 0.5625 1.859375 0.5625z" fill-rule="nonzero"/><path fill="#595959" d="m65.410034 462.3287l4.4375 -17.515625l3.65625 0l4.4375 17.515625l-2.84375 0l-1.03125 -4.34375l-4.796875 0l-1.0 4.34375l-2.859375 0zm4.359375 -6.640625l3.78125 0l-1.109375 -4.875q-0.28125 -1.25 -0.5 -2.234375q-0.203125 -0.984375 -0.265625 -1.375q-0.078125 0.390625 -0.265625 1.359375q-0.1875 0.96875 -0.484375 2.21875l-1.15625 4.90625zm11.462463 6.640625l0 -13.203125l2.65625 0l0 2.515625l0.703125 0l-0.84375 1.5625q0 -2.125 0.9375 -3.21875q0.953125 -1.09375 2.796875 -1.09375q2.140625 0 3.359375 1.3125q1.234375 1.296875 1.234375 3.625l0 0.921875l-2.90625 0l0 -0.71875q0 -1.34375 -0.6875 -2.0625q-0.6875 -0.734375 -1.875 -0.734375q-1.234375 0 -1.90625 0.734375q-0.671875 0.734375 -0.671875 2.0625l0 8.296875l-2.796875 0zm14.399963 0l0 -13.203125l2.65625 0l0 2.515625l0.703125 0l-0.84375 1.5625q0 -2.125 0.9375 -3.21875q0.953125 -1.09375 2.796875 -1.09375q2.140625 0 3.359375 1.3125q1.234375 1.296875 1.234375 3.625l0 0.921875l-2.90625 0l0 -0.71875q0 -1.34375 -0.6875 -2.0625q-0.6875 -0.734375 -1.875 -0.734375q-1.234375 0 -1.90625 0.734375q-0.671875 0.734375 -0.671875 2.0625l0 8.296875l-2.796875 0zm17.853088 0.234375q-2.046875 0 -3.234375 -1.0625q-1.1875 -1.0625 -1.1875 -2.921875q0 -1.90625 1.28125 -2.96875q1.28125 -1.0625 3.5625 -1.0625l3.484375 0l0 -1.171875q0 -1.0 -0.65625 -1.578125q-0.640625 -0.578125 -1.796875 -0.578125q-1.03125 0 -1.71875 0.453125q-0.671875 0.4375 -0.796875 1.203125l-2.734375 0q0.21875 -1.828125 1.671875 -2.90625q1.453125 -1.078125 3.65625 -1.078125q2.40625 0 3.796875 1.203125q1.390625 1.1875 1.390625 3.265625l0 8.96875l-2.734375 0l0 -2.359375l-0.453125 0l0.46875 -0.5625q0 1.453125 -1.109375 2.3125q-1.09375 0.84375 -2.890625 0.84375zm0.890625 -2.109375q1.3125 0 2.15625 -0.671875q0.859375 -0.6875 0.859375 -1.75l0 -1.671875l-3.4375 0q-0.953125 0 -1.53125 0.546875q-0.578125 0.53125 -0.578125 1.4375q0 0.984375 0.671875 1.546875q0.671875 0.5625 1.859375 0.5625zm11.759338 6.1875l1.859375 -5.0625l-4.90625 -12.453125l3.0625 0l2.59375 7.109375q0.1875 0.5 0.359375 1.21875q0.1875 0.71875 0.3125 1.203125q0.09375 -0.484375 0.265625 -1.203125q0.1875 -0.71875 0.359375 -1.21875l2.46875 -7.109375l2.953125 0l-6.375 17.515625l-2.953125 0z" fill-rule="nonzero"/><path fill="#000000" fill-opacity="0.0" d="m4.3175855 5.6299214l504.9449 0l0 54.929134l-504.9449 0z" fill-rule="evenodd"/><path fill="#595959" d="m15.817585 42.78992l0 -21.40625l3.15625 0l0 8.859375l6.28125 0l0 -8.859375l3.171875 0l0 21.40625l-3.171875 0l0 -9.625l-6.28125 0l0 9.625l-3.15625 0zm22.284363 0.296875q-2.53125 0 -3.984375 -1.296875q-1.4375 -1.3125 -1.4375 -3.578125q0 -2.28125 1.53125 -3.578125q1.546875 -1.3125 4.234375 -1.3125l4.5 0l0 -1.5q0 -1.3125 -0.828125 -2.046875q-0.828125 -0.734375 -2.3125 -0.734375q-1.328125 0 -2.203125 0.578125q-0.875 0.5625 -1.03125 1.5l-3.109375 0q0.265625 -2.171875 2.015625 -3.453125q1.75 -1.296875 4.40625 -1.296875q2.875 0 4.546875 1.453125q1.671875 1.453125 1.671875 3.9375l0 11.03125l-3.078125 0l0 -2.96875l-0.53125 0l0.53125 -0.578125q0 1.765625 -1.34375 2.8125q-1.34375 1.03125 -3.578125 1.03125zm0.9375 -2.4375q1.703125 0 2.796875 -0.859375q1.109375 -0.875 1.109375 -2.21875l0 -2.109375l-4.4375 0q-1.234375 0 -1.953125 0.671875q-0.71875 0.671875 -0.71875 1.84375q0 1.234375 0.84375 1.953125q0.859375 0.71875 2.359375 0.71875zm17.706238 2.40625q-1.71875 0 -3.03125 -0.546875q-1.296875 -0.5625 -2.046875 -1.546875q-0.75 -0.984375 -0.875 -2.34375l3.171875 0q0.125 0.796875 0.84375 1.28125q0.734375 0.484375 1.9375 0.484375l1.265625 0q1.4375 0 2.171875 -0.578125q0.734375 -0.59375 0.734375 -1.5625q0 -0.9375 -0.65625 -1.46875q-0.65625 -0.546875 -1.953125 -0.734375l-2.078125 -0.3125q-2.59375 -0.421875 -3.8125 -1.484375q-1.203125 -1.078125 -1.203125 -3.1875q0 -2.21875 1.453125 -3.4375q1.453125 -1.21875 4.296875 -1.21875l1.109375 0q2.515625 0 4.03125 1.15625q1.515625 1.15625 1.71875 3.09375l-3.171875 0q-0.109375 -0.703125 -0.78125 -1.140625q-0.65625 -0.4375 -1.796875 -0.4375l-1.109375 0q-1.390625 0 -2.015625 0.515625q-0.625 0.5 -0.625 1.5q0 0.875 0.546875 1.328125q0.5625 0.4375 1.734375 0.609375l2.140625 0.34375q2.734375 0.390625 4.0 1.515625q1.2812538 1.125 1.2812538 3.265625q0 2.328125 -1.5156288 3.625q-1.5 1.28125 -4.5 1.28125l-1.265625 0zm11.831242 -0.265625l0 -21.40625l3.15625 0l0 5.28125l-0.015625 3.078125l0.75 0l-0.75 0.734375q0 -1.9375 1.140625 -3.015625q1.140625 -1.09375 3.15625 -1.09375q2.40625 0 3.84375 1.546875q1.4375 1.53125 1.4375 4.140625l0 10.734375l-3.15625 0l0 -10.375q0 -1.59375 -0.859375 -2.46875q-0.84375 -0.875 -2.3125 -0.875q-1.5 0 -2.375 0.921875q-0.859375 0.921875 -0.859375 2.625l0 10.171875l-3.15625 0zm35.599976 0l0 -2.8125l4.3125 0l0 -15.78125l-4.3125 0l0 -2.8125l11.84375 0l0 2.8125l-4.3125 0l0 15.78125l4.3125 0l0 2.8125l-11.84375 0zm17.190613 0l0 -16.125l3.140625 0l0 3.078125l0.75 0l-0.75 0.734375q0 -1.9375 1.140625 -3.015625q1.140625 -1.09375 3.1562424 -1.09375q2.40625 0 3.84375 1.546875q1.4375 1.53125 1.4375 4.140625l0 10.734375l-3.15625 0l0 -10.375q0 -1.59375 -0.859375 -2.4375q-0.84375 -0.859375 -2.3124924 -0.859375q-1.5 0 -2.375 0.90625q-0.859375 0.890625 -0.859375 2.59375l0 10.171875l-3.15625 0zm22.784355 0.296875q-2.4375 0 -3.90625 -1.640625q-1.46875 -1.640625 -1.46875 -4.4375l0 -4.546875q0 -2.8125 1.46875 -4.453125q1.46875 -1.640625 3.90625 -1.640625q2.0 0 3.171875 1.109375q1.171875 1.09375 1.171875 3.0l-0.671875 -0.734375l0.71875 0l-0.078125 -3.765625l0 -4.59375l3.171875 0l0 21.40625l-3.140625 0l0 -3.078125l-0.671875 0l0.671875 -0.734375q0 1.90625 -1.171875 3.015625q-1.171875 1.09375 -3.171875 1.09375zm1.078125 -2.765625q1.5 0 2.359375 -0.921875q0.875 -0.921875 0.875 -2.5625l0 -4.21875q0 -1.640625 -0.875 -2.5625q-0.859375 -0.9375 -2.359375 -0.9375q-1.546875 0 -2.4375 0.90625q-0.875 0.890625 -0.875 2.59375l0 4.21875q0 1.703125 0.875 2.59375q0.890625 0.890625 2.4375 0.890625zm17.659363 2.765625q-1.96875 0 -3.453125 -0.78125q-1.46875 -0.78125 -2.265625 -2.1875q-0.796875 -1.40625 -0.796875 -3.28125l0 -4.21875q0 -1.90625 0.796875 -3.296875q0.796875 -1.40625 2.265625 -2.171875q1.484375 -0.78125 3.453125 -0.78125q2.0 0 3.453125 0.78125q1.46875 0.765625 2.265625 2.171875q0.796875 1.390625 0.796875 3.296875l0 2.875l-9.96875 0l0 1.34375q0 1.78125 0.890625 2.734375q0.890625 0.9375 2.59375 0.9375q1.375 0 2.21875 -0.484375q0.859375 -0.484375 1.0625 -1.421875l3.140625 0q-0.34375 2.046875 -2.109375 3.265625q-1.765625 1.21875 -4.34375 1.21875zm3.46875 -9.5l0 -1.0q0 -1.765625 -0.890625 -2.734375q-0.875 -0.96875 -2.578125 -0.96875q-1.671875 0 -2.5625 0.96875q-0.890625 0.96875 -0.890625 2.765625l0 0.734375l7.15625 -0.03125l-0.234375 0.265625zm6.596863 9.203125l5.65625 -8.328125l-5.3125 -7.796875l3.640625 0l2.84375 4.453125q0.203125 0.34375 0.40625 0.75q0.203125 0.390625 0.328125 0.65625q0.09375 -0.265625 0.296875 -0.65625q0.203125 -0.40625 0.40625 -0.75l2.84375 -4.453125l3.640625 0l-5.3125 7.828125l5.625 8.296875l-3.625 0l-3.140625 -4.84375q-0.203125 -0.34375 -0.421875 -0.78125q-0.203125 -0.453125 -0.3125 -0.703125q-0.125 0.25 -0.34375 0.703125q-0.21875 0.4375 -0.453125 0.78125l-3.15625 4.84375l-3.609375 0zm25.128113 0.296875q-1.96875 0 -3.453125 -0.78125q-1.46875 -0.78125 -2.265625 -2.1875q-0.796875 -1.40625 -0.796875 -3.28125l0 -4.21875q0 -1.90625 0.796875 -3.296875q0.796875 -1.40625 2.265625 -2.171875q1.484375 -0.78125 3.453125 -0.78125q2.0 0 3.453125 0.78125q1.46875 0.765625 2.265625 2.171875q0.796875 1.390625 0.796875 3.296875l0 2.875l-9.96875 0l0 1.34375q0 1.78125 0.890625 2.734375q0.890625 0.9375 2.59375 0.9375q1.375 0 2.21875 -0.484375q0.859375 -0.484375 1.0625 -1.421875l3.140625 0q-0.34375 2.046875 -2.109375 3.265625q-1.765625 1.21875 -4.34375 1.21875zm3.46875 -9.5l0 -1.0q0 -1.765625 -0.890625 -2.734375q-0.875 -0.96875 -2.578125 -0.96875q-1.671875 0 -2.5625 0.96875q-0.890625 0.96875 -0.890625 2.765625l0 0.734375l7.15625 -0.03125l-0.234375 0.265625zm12.987488 9.5q-2.4375 0 -3.90625 -1.640625q-1.46875 -1.640625 -1.46875 -4.4375l0 -4.546875q0 -2.8125 1.46875 -4.453125q1.46875 -1.640625 3.90625 -1.640625q2.0 0 3.171875 1.109375q1.171875 1.09375 1.171875 3.0l-0.671875 -0.734375l0.71875 0l-0.078125 -3.765625l0 -4.59375l3.171875 0l0 21.40625l-3.140625 0l0 -3.078125l-0.671875 0l0.671875 -0.734375q0 1.90625 -1.171875 3.015625q-1.171875 1.09375 -3.171875 1.09375zm1.078125 -2.765625q1.5 0 2.359375 -0.921875q0.875 -0.921875 0.875 -2.5625l0 -4.21875q0 -1.640625 -0.875 -2.5625q-0.859375 -0.9375 -2.359375 -0.9375q-1.546875 0 -2.4375 0.90625q-0.875 0.890625 -0.875 2.59375l0 4.21875q0 1.703125 0.875 2.59375q0.890625 0.890625 2.4375 0.890625zm35.349976 2.765625q-2.171875 0 -3.734375 -0.71875q-1.546875 -0.71875 -2.40625 -2.046875q-0.84375 -1.34375 -0.84375 -3.1875l3.140625 0q0 1.46875 1.015625 2.3125q1.03125 0.828125 2.859375 0.828125q1.6875 0 2.65625 -0.828125q0.96875 -0.828125 0.96875 -2.265625q0 -1.1875 -0.65625 -2.0625q-0.65625 -0.890625 -1.890625 -1.21875l-2.703125 -0.78125q-2.34375 -0.6875 -3.625 -2.3125q-1.265625 -1.625 -1.265625 -3.875q0 -1.765625 0.78125 -3.078125q0.796875 -1.328125 2.265625 -2.0625q1.46875 -0.734375 3.46875 -0.734375q2.921875 0 4.6875 1.59375q1.7812653 1.578125 1.8125153 4.25l-3.1562653 0q0 -1.40625 -0.90625 -2.21875q-0.890625 -0.8125 -2.5 -0.8125q-1.5625 0 -2.4375 0.75q-0.875 0.75 -0.875 2.09375q0 1.203125 0.65625 2.09375q0.65625 0.875 1.890625 1.234375l2.734375 0.8125q2.34375 0.640625 3.5937653 2.296875q1.265625 1.640625 1.265625 3.921875q0 1.78125 -0.859375 3.15625q-0.84375 1.359375 -2.3750153 2.109375q-1.515625 0.75 -3.5625 0.75zm17.503128 -0.03125q-2.0 0 -3.46875 -0.765625q-1.453125 -0.765625 -2.25 -2.171875q-0.796875 -1.40625 -0.796875 -3.3125l0 -4.15625q0 -1.9375 0.796875 -3.328125q0.796875 -1.40625 2.25 -2.15625q1.46875 -0.765625 3.46875 -0.765625q2.0 0 3.453125 0.765625q1.46875 0.75 2.265625 2.15625q0.796875 1.390625 0.796875 3.328125l0 4.15625q0 1.90625 -0.796875 3.3125q-0.796875 1.40625 -2.265625 2.171875q-1.453125 0.765625 -3.453125 0.765625zm0 -2.78125q1.609375 0 2.484375 -0.890625q0.890625 -0.90625 0.890625 -2.578125l0 -4.15625q0 -1.703125 -0.890625 -2.578125q-0.875 -0.890625 -2.484375 -0.890625q-1.578125 0 -2.484375 0.890625q-0.890625 0.875 -0.890625 2.578125l0 4.15625q0 1.671875 0.890625 2.578125q0.90625 0.890625 2.484375 0.890625zm11.784363 2.515625l0 -16.125l3.0625 0l0 3.078125l0.75 0l-0.953125 1.90625q0 -2.609375 1.140625 -3.9375q1.140625 -1.34375 3.390625 -1.34375q2.59375 0 4.09375 1.59375q1.515625 1.59375 1.515625 4.390625l0 1.078125l-3.25 0l0 -0.8125q0 -1.734375 -0.875 -2.65625q-0.859375 -0.921875 -2.421875 -0.921875q-1.546875 0 -2.421875 0.9375q-0.859375 0.9375 -0.859375 2.640625l0 10.171875l-3.171875 0zm25.174988 0q-2.203125 0 -3.4375 -1.203125q-1.234375 -1.203125 -1.234375 -3.34375l0 -8.703125l-4.453125 0l0 -2.875l4.453125 0l0 -4.546875l3.171875 0l0 4.546875l6.3125 0l0 2.875l-6.3125 0l0 8.703125q0 1.671875 1.609375 1.671875l4.40625 0l0 2.875l-4.515625 0zm15.831238 0.296875q-1.96875 0 -3.453125 -0.78125q-1.46875 -0.78125 -2.265625 -2.1875q-0.796875 -1.40625 -0.796875 -3.28125l0 -4.21875q0 -1.90625 0.796875 -3.296875q0.796875 -1.40625 2.265625 -2.171875q1.484375 -0.78125 3.453125 -0.78125q2.0 0 3.453125 0.78125q1.46875 0.765625 2.265625 2.171875q0.796875 1.390625 0.796875 3.296875l0 2.875l-9.96875 0l0 1.34375q0 1.78125 0.890625 2.734375q0.890625 0.9375 2.59375 0.9375q1.375 0 2.21875 -0.484375q0.859375 -0.484375 1.0625 -1.421875l3.140625 0q-0.34375 2.046875 -2.109375 3.265625q-1.765625 1.21875 -4.34375 1.21875zm3.46875 -9.5l0 -1.0q0 -1.765625 -0.890625 -2.734375q-0.875 -0.96875 -2.578125 -0.96875q-1.671875 0 -2.5625 0.96875q-0.890625 0.96875 -0.890625 2.765625l0 0.734375l7.15625 -0.03125l-0.234375 0.265625zm12.987488 9.5q-2.4375 0 -3.90625 -1.640625q-1.46875 -1.640625 -1.46875 -4.4375l0 -4.546875q0 -2.8125 1.46875 -4.453125q1.46875 -1.640625 3.90625 -1.640625q2.0 0 3.171875 1.109375q1.171875 1.09375 1.171875 3.0l-0.671875 -0.734375l0.71875 0l-0.078125 -3.765625l0 -4.59375l3.171875 0l0 21.40625l-3.140625 0l0 -3.078125l-0.671875 0l0.671875 -0.734375q0 1.90625 -1.171875 3.015625q-1.171875 1.09375 -3.171875 1.09375zm1.078125 -2.765625q1.5 0 2.359375 -0.921875q0.875 -0.921875 0.875 -2.5625l0 -4.21875q0 -1.640625 -0.875 -2.5625q-0.859375 -0.9375 -2.359375 -0.9375q-1.546875 0 -2.4375 0.90625q-0.875 0.890625 -0.875 2.59375l0 4.21875q0 1.703125 0.875 2.59375q0.890625 0.890625 2.4375 0.890625zm27.724976 2.46875l5.453125 -21.40625l4.15625 0l5.453125 21.40625l-3.1875 0l-1.296875 -5.421875l-6.0625 0l-1.296875 5.421875l-3.21875 0zm5.09375 -8.03125l4.875 0l-1.46875 -6.1875q-0.375 -1.640625 -0.625 -2.859375q-0.25 -1.21875 -0.34375 -1.65625q-0.09375 0.4375 -0.328125 1.65625q-0.234375 1.21875 -0.640625 2.828125l-1.46875 6.21875zm14.221863 8.03125l0 -16.125l3.0625 0l0 3.078125l0.75 0l-0.953125 1.90625q0 -2.609375 1.140625 -3.9375q1.140625 -1.34375 3.390625 -1.34375q2.59375 0 4.09375 1.59375q1.515625 1.59375 1.515625 4.390625l0 1.078125l-3.25 0l0 -0.8125q0 -1.734375 -0.875 -2.65625q-0.859375 -0.921875 -2.421875 -0.921875q-1.546875 0 -2.421875 0.9375q-0.859375 0.9375 -0.859375 2.640625l0 10.171875l-3.171875 0zm17.596863 0l0 -16.125l3.0625 0l0 3.078125l0.75 0l-0.953125 1.90625q0 -2.609375 1.140625 -3.9375q1.140625 -1.34375 3.390625 -1.34375q2.59375 0 4.09375 1.59375q1.515625 1.59375 1.515625 4.390625l0 1.078125l-3.25 0l0 -0.8125q0 -1.734375 -0.875 -2.65625q-0.859375 -0.921875 -2.421875 -0.921875q-1.546875 0 -2.421875 0.9375q-0.859375 0.9375 -0.859375 2.640625l0 10.171875l-3.171875 0zm21.799988 0.296875q-2.53125 0 -3.984375 -1.296875q-1.4375 -1.3125 -1.4375 -3.578125q0 -2.28125 1.53125 -3.578125q1.546875 -1.3125 4.234375 -1.3125l4.5 0l0 -1.5q0 -1.3125 -0.828125 -2.046875q-0.828125 -0.734375 -2.3125 -0.734375q-1.328125 0 -2.203125 0.578125q-0.875 0.5625 -1.03125 1.5l-3.109375 0q0.265625 -2.171875 2.015625 -3.453125q1.75 -1.296875 4.40625 -1.296875q2.875 0 4.546875 1.453125q1.671875 1.453125 1.671875 3.9375l0 11.03125l-3.078125 0l0 -2.96875l-0.53125 0l0.53125 -0.578125q0 1.765625 -1.34375 2.8125q-1.34375 1.03125 -3.578125 1.03125zm0.9375 -2.4375q1.703125 0 2.796875 -0.859375q1.109375 -0.875 1.109375 -2.21875l0 -2.109375l-4.4375 0q-1.234375 0 -1.953125 0.671875q-0.71875 0.671875 -0.71875 1.84375q0 1.234375 0.84375 1.953125q0.859375 0.71875 2.359375 0.71875zm14.518738 7.421875l2.3125 -6.21875l-6.015625 -15.1875l3.5 0l3.375 9.09375q0.203125 0.578125 0.40625 1.40625q0.203125 0.8125 0.34375 1.34375q0.125 -0.53125 0.328125 -1.34375q0.203125 -0.828125 0.40625 -1.40625l3.171875 -9.09375l3.375 0l-7.859375 21.40625l-3.34375 0z" fill-rule="nonzero"/><path fill="#000000" fill-opacity="0.0" d="m765.95276 506.3622l194.04724 0l0 33.637787l-194.04724 0z" fill-rule="evenodd"/><path fill="#595959" d="m794.02344 531.8211l0 -13.203125l1.203125 0l0 2.28125l0.28125 0l-0.546875 1.390625q0.03125 -1.75 1.078125 -2.828125q1.0625 -1.078125 2.8125 -1.078125q2.109375 0 3.328125 1.296875q1.234375 1.296875 1.234375 3.5l0 0.71875l-1.328125 0l0 -0.71875q0 -1.78125 -0.90625 -2.765625q-0.890625 -1.0 -2.515625 -1.0q-1.609375 0 -2.53125 1.0q-0.90625 0.984375 -0.90625 2.765625l0 8.640625l-1.203125 0zm18.571838 0.234375q-1.453125 0 -2.515625 -0.578125q-1.0625 -0.59375 -1.625 -1.671875q-0.5625 -1.078125 -0.5625 -2.546875l0 -4.078125q0 -1.46875 0.5625 -2.53125q0.5625 -1.0625 1.625 -1.65625q1.0625 -0.609375 2.515625 -0.609375q1.46875 0 2.5 0.609375q1.03125 0.59375 1.59375 1.65625q0.5625 1.0625 0.5625 2.53125l0 2.28125l-8.15625 0l0 1.796875q0 1.734375 0.90625 2.75q0.921875 1.0 2.59375 1.0q1.34375 0 2.21875 -0.640625q0.875 -0.65625 1.21875 -1.78125l1.203125 0q-0.359375 1.609375 -1.578125 2.546875q-1.203125 0.921875 -3.0625 0.921875zm3.46875 -7.40625l0 -1.46875q0 -1.734375 -0.90625 -2.734375q-0.90625 -1.015625 -2.5625 -1.015625q-1.671875 0 -2.59375 1.0q-0.90625 1.0 -0.90625 2.75l0 1.25l7.21875 0l-0.25 0.21875zm9.478088 7.171875l0 -10.78125l-4.078125 0l0 -1.078125l4.078125 0l0 -2.65625q0 -1.421875 0.828125 -2.203125q0.828125 -0.796875 2.28125 -0.796875l3.671875 0l0 1.078125l-3.671875 0q-0.90625 0 -1.421875 0.5q-0.5 0.5 -0.5 1.421875l0 2.65625l5.59375 0l0 1.078125l-5.59375 0l0 10.78125l-1.1875 0zm15.837463 -9.984375q-0.796875 0 -1.28125 -0.46875q-0.46875 -0.484375 -0.46875 -1.265625q0 -0.765625 0.46875 -1.234375q0.484375 -0.484375 1.28125 -0.484375q0.78125 0 1.265625 0.484375q0.484375 0.46875 0.484375 1.234375q0 0.78125 -0.484375 1.265625q-0.484375 0.46875 -1.265625 0.46875zm0 10.21875q-0.796875 0 -1.28125 -0.46875q-0.46875 -0.484375 -0.46875 -1.25q0 -0.765625 0.46875 -1.25q0.484375 -0.484375 1.28125 -0.484375q0.78125 0 1.265625 0.484375q0.484375 0.484375 0.484375 1.25q0 0.765625 -0.484375 1.25q-0.484375 0.46875 -1.265625 0.46875zm25.768677 4.078125l0 -1.078125l3.484375 0q1.421875 0 2.15625 -0.734375q0.75 -0.71875 0.75 -2.140625l0 -1.078125l0 -2.765625l-0.4375 0l0.609375 -1.078125q0 1.640625 -1.0625 2.625q-1.0625 0.984375 -2.78125 0.984375q-1.96875 0 -3.171875 -1.3125q-1.203125 -1.3125 -1.203125 -3.46875l0 -2.90625q0 -2.15625 1.203125 -3.46875q1.203125 -1.328125 3.171875 -1.328125q1.71875 0 2.78125 0.984375q1.0625 0.984375 1.0625 2.609375l-0.484375 -1.078125l0.3125 0l0 -2.28125l1.203125 0l0 13.5625q0 1.96875 -1.046875 2.953125q-1.046875 1.0 -3.0625 1.0l-3.484375 0zm2.953125 -6.296875q1.640625 0 2.53125 -1.0q0.90625 -1.0 0.90625 -2.75l0 -2.90625q0 -1.78125 -0.90625 -2.765625q-0.890625 -1.0 -2.53125 -1.0q-1.609375 0 -2.515625 1.0q-0.890625 0.984375 -0.890625 2.765625l0 2.90625q0 1.75 0.890625 2.75q0.90625 1.0 2.515625 1.0zm14.165588 2.21875q-1.96875 0 -3.171875 -1.296875q-1.203125 -1.3125 -1.203125 -3.46875l0 -4.109375q0 -2.15625 1.203125 -3.46875q1.203125 -1.328125 3.171875 -1.328125q1.71875 0 2.8125 0.984375q1.09375 0.984375 1.09375 2.609375l-0.671875 -1.5625l0.4375 0l0 -2.515625l0 -3.59375l1.203125 0l0 17.515625l-1.203125 0l0 -1.796875l-0.671875 0l0.90625 -1.5625q0 1.625 -1.09375 2.609375q-1.09375 0.984375 -2.8125 0.984375zm0.234375 -1.03125q1.640625 0 2.53125 -0.984375q0.90625 -1.0 0.90625 -2.75l0 -4.109375q0 -1.78125 -0.90625 -2.765625q-0.890625 -1.0 -2.53125 -1.0q-1.609375 0 -2.515625 1.0q-0.890625 0.984375 -0.890625 2.765625l0 4.109375q0 1.75 0.890625 2.75q0.90625 0.984375 2.515625 0.984375zm16.040588 0.796875q-1.078125 0 -1.828125 -0.375q-0.75 -0.375 -1.140625 -1.09375q-0.390625 -0.734375 -0.390625 -1.765625l0 -13.203125l-4.203125 0l0 -1.078125l5.390625 0l0 14.28125q0 1.046875 0.546875 1.609375q0.5625 0.546875 1.625 0.546875l4.1875 0l0 1.078125l-4.1875 0zm12.837463 0.234375q-1.421875 0 -2.484375 -0.578125q-1.046875 -0.59375 -1.625 -1.671875q-0.578125 -1.078125 -0.578125 -2.546875l0 -4.078125q0 -1.46875 0.578125 -2.53125q0.578125 -1.0625 1.625 -1.65625q1.0625 -0.609375 2.484375 -0.609375q1.40625 0 2.46875 0.609375q1.0625 0.59375 1.625 1.65625q0.578125 1.0625 0.578125 2.53125l0 4.078125q0 1.46875 -0.578125 2.546875q-0.5625 1.078125 -1.609375 1.671875q-1.046875 0.578125 -2.484375 0.578125zm0 -1.046875q1.65625 0 2.5625 -0.984375q0.921875 -0.984375 0.921875 -2.765625l0 -4.078125q0 -1.78125 -0.9375 -2.765625q-0.921875 -0.984375 -2.546875 -0.984375q-1.640625 0 -2.5625 0.984375q-0.921875 0.984375 -0.921875 2.765625l0 4.078125q0 1.78125 0.90625 2.765625q0.921875 0.984375 2.578125 0.984375zm11.368713 5.125l0 -1.078125l3.484375 0q1.421875 0 2.15625 -0.734375q0.75 -0.71875 0.75 -2.140625l0 -1.078125l0 -2.765625l-0.4375 0l0.609375 -1.078125q0 1.640625 -1.0625 2.625q-1.0625 0.984375 -2.78125 0.984375q-1.96875 0 -3.171875 -1.3125q-1.203125 -1.3125 -1.203125 -3.46875l0 -2.90625q0 -2.15625 1.203125 -3.46875q1.203125 -1.328125 3.171875 -1.328125q1.71875 0 2.78125 0.984375q1.0625 0.984375 1.0625 2.609375l-0.484375 -1.078125l0.3125 0l0 -2.28125l1.203125 0l0 13.5625q0 1.96875 -1.046875 2.953125q-1.046875 1.0 -3.0625 1.0l-3.484375 0zm2.953125 -6.296875q1.640625 0 2.53125 -1.0q0.90625 -1.0 0.90625 -2.75l0 -2.90625q0 -1.78125 -0.90625 -2.765625q-0.890625 -1.0 -2.53125 -1.0q-1.609375 0 -2.515625 1.0q-0.890625 0.984375 -0.890625 2.765625l0 2.90625q0 1.75 0.890625 2.75q0.90625 1.0 2.515625 1.0z" fill-rule="nonzero"/></g></svg>