<svg version="1.1" viewBox="0.0 0.0 960.0 540.0" fill="none" stroke="none" stroke-linecap="square" stroke-miterlimit="10" xmlns:xlink="http://www.w3.org/1999/xlink" xmlns="http://www.w3.org/2000/svg"><clipPath id="g2ccf07d927c_0_1.0"><path d="m0 0l960.0 0l0 540.0l-960.0 0l0 -540.0z" clip-rule="nonzero"/></clipPath><g clip-path="url(#g2ccf07d927c_0_1.0)"><path fill="#ffffff" d="m0 0l960.0 0l0 540.0l-960.0 0z" fill-rule="evenodd"/><path shape-rendering="crispEdges" fill="#a4c2f4" d="m147.88452 151.92126l51.27034 0l0 41.595795l-51.27034 0l0 -41.595795z" fill-rule="nonzero"/><path shape-rendering="crispEdges" fill="#a4c2f4" d="m147.88452 193.51706l51.27034 0l0 41.595795l-51.27034 0l0 -41.595795z" fill-rule="nonzero"/><path shape-rendering="crispEdges" fill="#a4c2f4" d="m147.88452 235.11285l51.27034 0l0 41.595795l-51.27034 0l0 -41.595795z" fill-rule="nonzero"/><path shape-rendering="crispEdges" fill="#a4c2f4" d="m147.88452 276.70865l51.27034 0l0 41.595825l-51.27034 0l0 -41.595825z" fill-rule="nonzero"/><path shape-rendering="crispEdges" fill="#a4c2f4" d="m147.88452 318.30447l51.27034 0l0 41.595795l-51.27034 0l0 -41.595795z" fill-rule="nonzero"/><path shape-rendering="crispEdges" fill="#a4c2f4" d="m147.88452 359.90027l51.27034 0l0 41.595795l-51.27034 0l0 -41.595795z" fill-rule="nonzero"/><path shape-rendering="crispEdges" fill="#a4c2f4" d="m147.88452 401.49606l51.27034 0l0 41.595795l-51.27034 0l0 -41.595795z" fill-rule="nonzero"/><path stroke="#999999" stroke-width="1.0" stroke-linecap="butt" d="m147.88452 151.42258l0 292.16797" fill-rule="nonzero"/><path stroke="#999999" stroke-width="1.0" stroke-linecap="butt" d="m96.115486 193.51706l103.53806 0" fill-rule="nonzero"/><path stroke="#999999" stroke-width="1.0" stroke-linecap="butt" d="m96.115486 235.11285l103.53806 0" fill-rule="nonzero"/><path stroke="#999999" stroke-width="1.0" stroke-linecap="butt" d="m96.115486 276.70865l103.53806 0" fill-rule="nonzero"/><path stroke="#999999" stroke-width="1.0" stroke-linecap="butt" d="m96.115486 318.30447l103.53806 0" fill-rule="nonzero"/><path stroke="#999999" stroke-width="1.0" stroke-linecap="butt" d="m96.115486 359.90027l103.53806 0" fill-rule="nonzero"/><path stroke="#999999" stroke-width="1.0" stroke-linecap="butt" d="m96.115486 401.49606l103.53806 0" fill-rule="nonzero"/><path fill="#000000" d="m121.35559 179.02876q-1.625 0 -2.5625 -0.828125q-0.921875 -0.828125 -0.921875 -2.25q0 -1.4375 0.921875 -2.25q0.9375 -0.828125 2.53125 -0.828125l3.15625 0l0 -1.03125q0 -0.953125 -0.5625 -1.453125q-0.5625 -0.515625 -1.609375 -0.515625q-0.921875 0 -1.546875 0.390625q-0.609375 0.375 -0.6875 1.015625l-1.6875 0q0.171875 -1.3125 1.25 -2.09375q1.078125 -0.796875 2.703125 -0.796875q1.78125 0 2.796875 0.921875q1.03125 0.90625 1.03125 2.484375l0 7.046875l-1.640625 0l0 -1.953125l-0.28125 0l0.28125 -0.28125q0 1.109375 -0.875 1.765625q-0.859375 0.65625 -2.296875 0.65625zm0.40625 -1.328125q1.203125 0 1.953125 -0.59375q0.765625 -0.59375 0.765625 -1.53125l0 -1.453125l-3.125 0q-0.84375 0 -1.328125 0.46875q-0.484375 0.46875 -0.484375 1.265625q0 0.859375 0.578125 1.359375q0.59375 0.484375 1.640625 0.484375z" fill-rule="nonzero"/><path fill="#000000" d="m169.59468 178.84126l0 -1.671875l5.75 -7.0625l-5.59375 0l0 -1.53125l7.484375 0l0 1.6875l-5.859375 7.046875l6.0625 0l0 1.53125l-7.84375 0z" fill-rule="nonzero"/><path fill="#000000" d="m122.246216 220.62456q-1.25 0 -2.171875 -0.484375q-0.921875 -0.5 -1.421875 -1.40625q-0.5 -0.90625 -0.5 -2.125l0 -5.96875q0 -1.234375 0.5 -2.125q0.5 -0.890625 1.421875 -1.390625q0.921875 -0.5 2.171875 -0.5q1.265625 0 2.171875 0.5q0.921875 0.5 1.421875 1.390625q0.515625 0.890625 0.515625 2.125l0 5.96875q0 1.21875 -0.515625 2.125q-0.5 0.90625 -1.421875 1.40625q-0.921875 0.484375 -2.171875 0.484375zm0 -1.4375q1.125 0 1.796875 -0.71875q0.6875 -0.71875 0.6875 -1.859375l0 -5.96875q0 -1.140625 -0.6875 -1.859375q-0.671875 -0.71875 -1.796875 -0.71875q-1.109375 0 -1.796875 0.71875q-0.6875 0.71875 -0.6875 1.859375l0 5.96875q0 1.140625 0.6875 1.859375q0.6875 0.71875 1.796875 0.71875zm0 -4.453125q-0.5 0 -0.8125 -0.3125q-0.296875 -0.328125 -0.296875 -0.84375q0 -0.515625 0.296875 -0.8125q0.3125 -0.3125 0.8125 -0.3125q0.5 0 0.8125 0.3125q0.3125 0.296875 0.3125 0.8125q0 0.515625 -0.3125 0.84375q-0.3125 0.3125 -0.8125 0.3125z" fill-rule="nonzero"/><path fill="#000000" d="m169.59468 220.43706l0 -1.53125l3.703125 0l0 -10.6875l-3.703125 2.765625l0 -1.875l3.078125 -2.296875l2.296875 0l0 12.09375l3.03125 0l0 1.53125l-8.40625 0z" fill-rule="nonzero"/><path fill="#000000" d="m118.32434 262.03287l0 -1.53125l3.703125 0l0 -10.687515l-3.703125 2.765625l0 -1.875l3.078125 -2.296875l2.296875 0l0 12.093765l3.03125 0l0 1.53125l-8.40625 0z" fill-rule="nonzero"/><path fill="#000000" d="m169.64156 262.03287l0 -1.71875l4.15625 -4.4218903q1.0625 -1.140625 1.546875 -2.015625q0.484375 -0.890625 0.484375 -1.71875q0 -1.125 -0.625 -1.78125q-0.625 -0.65625 -1.703125 -0.65625q-1.1875 0 -1.875 0.671875q-0.6875 0.671875 -0.6875 1.84375l-1.671875 0q0.03125 -1.234375 0.5625 -2.125q0.53125 -0.90625 1.46875 -1.390625q0.953125 -0.5 2.203125 -0.5q1.234375 0 2.140625 0.484375q0.90625 0.46875 1.390625 1.359375q0.484375 0.875 0.484375 2.078125q0 1.15625 -0.625 2.296875q-0.609375 1.140625 -2.015625 2.5937653l-3.359375 3.46875l6.21875 0l0 1.53125l-8.09375 0z" fill-rule="nonzero"/><path fill="#000000" d="m118.32434 303.62866l0 -1.53125l3.703125 0l0 -10.6875l-3.703125 2.765625l0 -1.875l3.078125 -2.296875l2.296875 0l0 12.09375l3.03125 0l0 1.53125l-8.40625 0z" fill-rule="nonzero"/><path fill="#000000" d="m173.31343 303.81616q-1.234375 0 -2.15625 -0.484375q-0.921875 -0.5 -1.421875 -1.375q-0.5 -0.890625 -0.5 -2.0625l1.671875 0q0 1.140625 0.640625 1.78125q0.640625 0.640625 1.78125 0.640625q1.15625 0 1.78125 -0.671875q0.640625 -0.671875 0.640625 -1.75l0 -0.96875q0 -1.15625 -0.640625 -1.78125q-0.625 -0.640625 -1.78125 -0.640625l-1.390625 0l0 -1.6875l3.375 -3.28125l-5.53125 0l0 -1.53125l7.21875 0l0 1.6875l-3.625 3.53125l0 -0.21875q1.859375 0 2.953125 1.0625q1.109375 1.0625 1.109375 2.859375l0 0.96875q0 1.171875 -0.515625 2.0625q-0.515625 0.875 -1.453125 1.375q-0.921875 0.484375 -2.15625 0.484375z" fill-rule="nonzero"/><path fill="#000000" d="m118.371216 345.22446l0 -1.71875l4.15625 -4.421875q1.0625 -1.140625 1.546875 -2.015625q0.484375 -0.890625 0.484375 -1.71875q0 -1.125 -0.625 -1.78125q-0.625 -0.65625 -1.703125 -0.65625q-1.1875 0 -1.875 0.671875q-0.6875 0.671875 -0.6875 1.84375l-1.671875 0q0.03125 -1.234375 0.5625 -2.125q0.53125 -0.90625 1.46875 -1.390625q0.953125 -0.5 2.203125 -0.5q1.234375 0 2.140625 0.484375q0.90625 0.46875 1.390625 1.359375q0.484375 0.875 0.484375 2.078125q0 1.15625 -0.625 2.296875q-0.609375 1.140625 -2.015625 2.59375l-3.359375 3.46875l6.21875 0l0 1.53125l-8.09375 0z" fill-rule="nonzero"/><path fill="#000000" d="m175.57906 345.22446l0 -2.984375l-6.15625 0l0 -2.625l5.390625 -8.015625l1.828125 0l-5.546875 8.359375l0 0.75l4.484375 0l0 -3.3125l1.671875 0l0 7.828125l-1.671875 0z" fill-rule="nonzero"/><path fill="#000000" d="m122.04309 387.00775q-1.234375 0 -2.15625 -0.484375q-0.921875 -0.5 -1.421875 -1.375q-0.5 -0.890625 -0.5 -2.0625l1.671875 0q0 1.140625 0.640625 1.78125q0.640625 0.640625 1.78125 0.640625q1.15625 0 1.78125 -0.671875q0.640625 -0.671875 0.640625 -1.75l0 -0.96875q0 -1.15625 -0.640625 -1.78125q-0.625 -0.640625 -1.78125 -0.640625l-1.390625 0l0 -1.6875l3.375 -3.28125l-5.53125 0l0 -1.53125l7.21875 0l0 1.6875l-3.625 3.53125l0 -0.21875q1.859375 0 2.953125 1.0625q1.109375 1.0625 1.109375 2.859375l0 0.96875q0 1.171875 -0.515625 2.0625q-0.515625 0.875 -1.453125 1.375q-0.921875 0.484375 -2.15625 0.484375z" fill-rule="nonzero"/><path fill="#000000" d="m175.57906 386.82025l0 -2.984375l-6.15625 0l0 -2.625l5.390625 -8.015625l1.828125 0l-5.546875 8.359375l0 0.75l4.484375 0l0 -3.3125l1.671875 0l0 7.828125l-1.671875 0z" fill-rule="nonzero"/><path fill="#000000" d="m124.308716 428.41605l0 -2.984375l-6.15625 0l0 -2.625l5.390625 -8.015625l1.828125 0l-5.546875 8.359375l0 0.75l4.484375 0l0 -3.3125l1.671875 0l0 7.828125l-1.671875 0z" fill-rule="nonzero"/><path fill="#000000" d="m173.4853 428.60355q-1.65625 0 -2.734375 -0.859375q-1.0625 -0.859375 -1.25 -2.3125l1.6875 0q0.09375 0.796875 0.6875 1.234375q0.59375 0.4375 1.625 0.4375q1.171875 0 1.75 -0.625q0.59375 -0.640625 0.59375 -1.796875l0 -1.328125q0 -1.15625 -0.59375 -1.78125q-0.578125 -0.640625 -1.734375 -0.640625q-0.71875 0 -1.265625 0.390625q-0.546875 0.375 -0.78125 1.015625l-1.6875 0l0.09375 -7.546875l7.171875 0l0 1.53125l-5.546875 0l-0.046875 4.53125l0.515625 0l-0.515625 0.484375q0 -0.875 0.6875 -1.375q0.703125 -0.5 1.875 -0.5q1.671875 -0.015625 2.59375 1.015625q0.921875 1.03125 0.921875 2.875l0 1.328125q0 1.8125 -1.0625 2.875q-1.0625 1.046875 -2.984375 1.046875z" fill-rule="nonzero"/><path fill="#000000" fill-opacity="0.0" d="m100.78215 96.90551l94.20473 0l0 48.47245l-94.20473 0z" fill-rule="evenodd"/><path fill="#595959" d="m135.68768 129.78174l0 -17.515633l5.421875 0q1.5625 0 2.734375 0.640625q1.1875 0.625 1.828125 1.765625q0.65625 1.125 0.65625 2.625q0 1.78125 -0.9375 3.0625q-0.921875 1.265625 -2.5 1.734375l3.671875 7.6875076l-2.546875 0l-3.359375 -7.4375076l-2.796875 0l0 7.4375076l-2.171875 0zm2.171875 -9.390633l3.25 0q1.34375 0 2.15625 -0.84375q0.828125 -0.859375 0.828125 -2.25q0 -1.40625 -0.828125 -2.25q-0.8125 -0.84375 -2.15625 -0.84375l-3.25 0l0 6.1875zm12.181213 9.390633l0 -1.9687576l4.75 0l0 -13.75l-4.75 3.546875l0 -2.390625l3.96875 -2.953125l2.953125 0l0 15.546875l3.875 0l0 1.9687576l-10.796875 0z" fill-rule="nonzero"/><path fill="#000000" fill-opacity="0.0" d="m418.13516 96.90551l94.20474 0l0 48.47245l-94.20474 0z" fill-rule="evenodd"/><path fill="#595959" d="m453.0407 129.78174l0 -17.515633l5.421875 0q1.5625 0 2.734375 0.640625q1.1875 0.625 1.828125 1.765625q0.65625 1.125 0.65625 2.625q0 1.78125 -0.9375 3.0625q-0.921875 1.265625 -2.5 1.734375l3.671875 7.6875076l-2.546875 0l-3.359375 -7.4375076l-2.796875 0l0 7.4375076l-2.171875 0zm2.171875 -9.390633l3.25 0q1.34375 0 2.15625 -0.84375q0.828125 -0.859375 0.828125 -2.25q0 -1.40625 -0.828125 -2.25q-0.8125 -0.84375 -2.15625 -0.84375l-3.25 0l0 6.1875zm12.228088 9.390633l0 -2.2031326l5.359375 -5.6875q1.359375 -1.46875 1.984375 -2.609375q0.625 -1.140625 0.625 -2.203125q0 -1.453125 -0.8125 -2.296875q-0.796875 -0.84375 -2.1875 -0.84375q-1.53125 0 -2.40625 0.875q-0.875 0.859375 -0.875 2.375l-2.15625 0q0.046875 -1.59375 0.71875 -2.75q0.6875 -1.171875 1.890625 -1.796875q1.21875 -0.625 2.828125 -0.625q1.59375 0 2.75 0.625q1.171875 0.609375 1.796875 1.734375q0.625 1.125 0.625 2.6875q0 1.484375 -0.796875 2.953125q-0.796875 1.46875 -2.59375 3.328125l-4.328125 4.46875l8.0 0l0 1.9687576l-10.421875 0z" fill-rule="nonzero"/><path shape-rendering="crispEdges" fill="#a4c2f4" d="m416.05118 151.92258l51.270355 0l0 41.595795l-51.270355 0l0 -41.595795z" fill-rule="nonzero"/><path shape-rendering="crispEdges" fill="#a4c2f4" d="m416.05118 193.51837l51.270355 0l0 41.595795l-51.270355 0l0 -41.595795z" fill-rule="nonzero"/><path shape-rendering="crispEdges" fill="#a4c2f4" d="m416.05118 235.11417l51.270355 0l0 41.595795l-51.270355 0l0 -41.595795z" fill-rule="nonzero"/><path shape-rendering="crispEdges" fill="#a4c2f4" d="m416.05118 276.70996l51.270355 0l0 41.595825l-51.270355 0l0 -41.595825z" fill-rule="nonzero"/><path shape-rendering="crispEdges" fill="#a4c2f4" d="m416.05118 318.3058l51.270355 0l0 41.595795l-51.270355 0l0 -41.595795z" fill-rule="nonzero"/><path shape-rendering="crispEdges" fill="#a4c2f4" d="m416.05118 359.90158l51.270355 0l0 41.595795l-51.270355 0l0 -41.595795z" fill-rule="nonzero"/><path shape-rendering="crispEdges" fill="#a4c2f4" d="m416.05118 401.49738l51.270355 0l0 41.595795l-51.270355 0l0 -41.595795z" fill-rule="nonzero"/><path stroke="#999999" stroke-width="1.0" stroke-linecap="butt" d="m467.32153 151.42389l0 292.16797" fill-rule="nonzero"/><path stroke="#999999" stroke-width="1.0" stroke-linecap="butt" d="m415.5525 193.51837l103.538086 0" fill-rule="nonzero"/><path stroke="#999999" stroke-width="1.0" stroke-linecap="butt" d="m415.5525 235.11417l103.538086 0" fill-rule="nonzero"/><path stroke="#999999" stroke-width="1.0" stroke-linecap="butt" d="m415.5525 276.70996l103.538086 0" fill-rule="nonzero"/><path stroke="#999999" stroke-width="1.0" stroke-linecap="butt" d="m415.5525 318.3058l103.538086 0" fill-rule="nonzero"/><path stroke="#999999" stroke-width="1.0" stroke-linecap="butt" d="m415.5525 359.90158l103.538086 0" fill-rule="nonzero"/><path stroke="#999999" stroke-width="1.0" stroke-linecap="butt" d="m415.5525 401.49738l103.538086 0" fill-rule="nonzero"/><path fill="#000000" d="m437.76135 178.84258l0 -1.671875l5.75 -7.0625l-5.59375 0l0 -1.53125l7.484375 0l0 1.6875l-5.859375 7.046875l6.0625 0l0 1.53125l-7.84375 0z" fill-rule="nonzero"/><path fill="#000000" d="m493.5473 179.03008q-1.265625 0 -2.03125 -0.671875q-0.765625 -0.6875 -0.765625 -1.859375l0.34375 0.390625l-0.34375 0l0 1.953125l-1.671875 0l0 -13.625l1.671875 0l0 2.984375l-0.03125 2.34375l0.375 0l-0.34375 0.390625q0 -1.15625 0.765625 -1.84375q0.78125 -0.703125 2.03125 -0.703125q1.5625 0 2.484375 1.03125q0.9375 1.03125 0.9375 2.796875l0 3.0q0 1.765625 -0.9375 2.796875q-0.921875 1.015625 -2.484375 1.015625zm-0.546875 -1.453125q1.0625 0 1.671875 -0.625q0.609375 -0.640625 0.609375 -1.84375l0 -2.796875q0 -1.1875 -0.609375 -1.828125q-0.609375 -0.640625 -1.671875 -0.640625q-1.03125 0 -1.640625 0.65625q-0.609375 0.65625 -0.609375 1.8125l0 2.796875q0 1.15625 0.609375 1.8125q0.609375 0.65625 1.640625 0.65625z" fill-rule="nonzero"/><path fill="#000000" d="m441.68323 220.62587q-1.25 0 -2.171875 -0.484375q-0.921875 -0.5 -1.421875 -1.40625q-0.5 -0.90625 -0.5 -2.125l0 -5.96875q0 -1.234375 0.5 -2.125q0.5 -0.890625 1.421875 -1.390625q0.921875 -0.5 2.171875 -0.5q1.265625 0 2.171875 0.5q0.921875 0.5 1.421875 1.390625q0.515625 0.890625 0.515625 2.125l0 5.96875q0 1.21875 -0.515625 2.125q-0.5 0.90625 -1.421875 1.40625q-0.921875 0.484375 -2.171875 0.484375zm0 -1.4375q1.125 0 1.796875 -0.71875q0.6875 -0.71875 0.6875 -1.859375l0 -5.96875q0 -1.140625 -0.6875 -1.859375q-0.671875 -0.71875 -1.796875 -0.71875q-1.109375 0 -1.796875 0.71875q-0.6875 0.71875 -0.6875 1.859375l0 5.96875q0 1.140625 0.6875 1.859375q0.6875 0.71875 1.796875 0.71875zm0 -4.453125q-0.5 0 -0.8125 -0.3125q-0.296875 -0.328125 -0.296875 -0.84375q0 -0.515625 0.296875 -0.8125q0.3125 -0.3125 0.8125 -0.3125q0.5 0 0.8125 0.3125q0.3125 0.296875 0.3125 0.8125q0 0.515625 -0.3125 0.84375q-0.3125 0.3125 -0.8125 0.3125z" fill-rule="nonzero"/><path fill="#000000" d="m489.03168 220.43837l0 -1.53125l3.703125 0l0 -10.6875l-3.703125 2.765625l0 -1.875l3.078125 -2.296875l2.296875 0l0 12.09375l3.03125 0l0 1.53125l-8.40625 0z" fill-rule="nonzero"/><path fill="#000000" d="m437.76135 262.03418l0 -1.53125l3.703125 0l0 -10.687515l-3.703125 2.765625l0 -1.875l3.078125 -2.296875l2.296875 0l0 12.093765l3.03125 0l0 1.53125l-8.40625 0z" fill-rule="nonzero"/><path fill="#000000" d="m489.07855 262.03418l0 -1.71875l4.15625 -4.4218903q1.0625 -1.140625 1.546875 -2.015625q0.484375 -0.890625 0.484375 -1.71875q0 -1.125 -0.625 -1.78125q-0.625 -0.65625 -1.703125 -0.65625q-1.1875 0 -1.875 0.671875q-0.6875 0.671875 -0.6875 1.84375l-1.671875 0q0.03125 -1.234375 0.5625 -2.125q0.53125 -0.90625 1.46875 -1.390625q0.953125 -0.5 2.203125 -0.5q1.234375 0 2.140625 0.484375q0.90625 0.46875 1.390625 1.359375q0.484375 0.875 0.484375 2.078125q0 1.15625 -0.625 2.296875q-0.609375 1.140625 -2.015625 2.5937653l-3.359375 3.46875l6.21875 0l0 1.53125l-8.09375 0z" fill-rule="nonzero"/><path fill="#000000" d="m437.76135 303.62997l0 -1.53125l3.703125 0l0 -10.6875l-3.703125 2.765625l0 -1.875l3.078125 -2.296875l2.296875 0l0 12.09375l3.03125 0l0 1.53125l-8.40625 0z" fill-rule="nonzero"/><path fill="#000000" d="m492.75043 303.81747q-1.234375 0 -2.15625 -0.484375q-0.921875 -0.5 -1.421875 -1.375q-0.5 -0.890625 -0.5 -2.0625l1.671875 0q0 1.140625 0.640625 1.78125q0.640625 0.640625 1.78125 0.640625q1.15625 0 1.78125 -0.671875q0.640625 -0.671875 0.640625 -1.75l0 -0.96875q0 -1.15625 -0.640625 -1.78125q-0.625 -0.640625 -1.78125 -0.640625l-1.390625 0l0 -1.6875l3.375 -3.28125l-5.53125 0l0 -1.53125l7.21875 0l0 1.6875l-3.625 3.53125l0 -0.21875q1.859375 0 2.953125 1.0625q1.109375 1.0625 1.109375 2.859375l0 0.96875q0 1.171875 -0.515625 2.0625q-0.515625 0.875 -1.453125 1.375q-0.921875 0.484375 -2.15625 0.484375z" fill-rule="nonzero"/><path fill="#000000" d="m437.80823 345.22577l0 -1.71875l4.15625 -4.421875q1.0625 -1.140625 1.546875 -2.015625q0.484375 -0.890625 0.484375 -1.71875q0 -1.125 -0.625 -1.78125q-0.625 -0.65625 -1.703125 -0.65625q-1.1875 0 -1.875 0.671875q-0.6875 0.671875 -0.6875 1.84375l-1.671875 0q0.03125 -1.234375 0.5625 -2.125q0.53125 -0.90625 1.46875 -1.390625q0.953125 -0.5 2.203125 -0.5q1.234375 0 2.140625 0.484375q0.90625 0.46875 1.390625 1.359375q0.484375 0.875 0.484375 2.078125q0 1.15625 -0.625 2.296875q-0.609375 1.140625 -2.015625 2.59375l-3.359375 3.46875l6.21875 0l0 1.53125l-8.09375 0z" fill-rule="nonzero"/><path fill="#000000" d="m495.01605 345.22577l0 -2.984375l-6.15625 0l0 -2.625l5.390625 -8.015625l1.828125 0l-5.546875 8.359375l0 0.75l4.484375 0l0 -3.3125l1.671875 0l0 7.828125l-1.671875 0z" fill-rule="nonzero"/><path fill="#000000" d="m441.4801 387.00906q-1.234375 0 -2.15625 -0.484375q-0.921875 -0.5 -1.421875 -1.375q-0.5 -0.890625 -0.5 -2.0625l1.671875 0q0 1.140625 0.640625 1.78125q0.640625 0.640625 1.78125 0.640625q1.15625 0 1.78125 -0.671875q0.640625 -0.671875 0.640625 -1.75l0 -0.96875q0 -1.15625 -0.640625 -1.78125q-0.625 -0.640625 -1.78125 -0.640625l-1.390625 0l0 -1.6875l3.375 -3.28125l-5.53125 0l0 -1.53125l7.21875 0l0 1.6875l-3.625 3.53125l0 -0.21875q1.859375 0 2.953125 1.0625q1.109375 1.0625 1.109375 2.859375l0 0.96875q0 1.171875 -0.515625 2.0625q-0.515625 0.875 -1.453125 1.375q-0.921875 0.484375 -2.15625 0.484375z" fill-rule="nonzero"/><path fill="#000000" d="m495.01605 386.82156l0 -2.984375l-6.15625 0l0 -2.625l5.390625 -8.015625l1.828125 0l-5.546875 8.359375l0 0.75l4.484375 0l0 -3.3125l1.671875 0l0 7.828125l-1.671875 0z" fill-rule="nonzero"/><path fill="#000000" d="m443.74573 428.41736l0 -2.984375l-6.15625 0l0 -2.625l5.390625 -8.015625l1.828125 0l-5.546875 8.359375l0 0.75l4.484375 0l0 -3.3125l1.671875 0l0 7.828125l-1.671875 0z" fill-rule="nonzero"/><path fill="#000000" d="m492.9223 428.60486q-1.65625 0 -2.734375 -0.859375q-1.0625 -0.859375 -1.25 -2.3125l1.6875 0q0.09375 0.796875 0.6875 1.234375q0.59375 0.4375 1.625 0.4375q1.171875 0 1.75 -0.625q0.59375 -0.640625 0.59375 -1.796875l0 -1.328125q0 -1.15625 -0.59375 -1.78125q-0.578125 -0.640625 -1.734375 -0.640625q-0.71875 0 -1.265625 0.390625q-0.546875 0.375 -0.78125 1.015625l-1.6875 0l0.09375 -7.546875l7.171875 0l0 1.53125l-5.546875 0l-0.046875 4.53125l0.515625 0l-0.515625 0.484375q0 -0.875 0.6875 -1.375q0.703125 -0.5 1.875 -0.5q1.671875 -0.015625 2.59375 1.015625q0.921875 1.03125 0.921875 2.875l0 1.328125q0 1.8125 -1.0625 2.875q-1.0625 1.046875 -2.984375 1.046875z" fill-rule="nonzero"/><path fill="#000000" fill-opacity="0.0" d="m15.076116 0l596.4725 0l0 124.40945l-596.4725 0z" fill-rule="evenodd"/><path fill="#595959" d="m26.56049 73.24472l0 -22.375l3.578125 0l0 9.125l6.265625 0l0 -9.125l3.578125 0l0 22.375l-3.578125 0l0 -9.9375l-6.265625 0l0 9.9375l-3.578125 0zm25.112549 0.28125q-2.125 0 -3.671875 -0.796875q-1.546875 -0.796875 -2.40625 -2.28125q-0.859375 -1.5 -0.859375 -3.515625l0 -4.234375q0 -2.015625 0.859375 -3.5q0.859375 -1.5 2.40625 -2.296875q1.546875 -0.796875 3.671875 -0.796875q2.140625 0 3.671875 0.796875q1.53125 0.796875 2.390625 2.296875q0.859375 1.484375 0.859375 3.46875l0 4.265625q0 2.015625 -0.859375 3.515625q-0.859375 1.484375 -2.390625 2.28125q-1.53125 0.796875 -3.671875 0.796875zm0 -3.125q1.59375 0 2.46875 -0.890625q0.890625 -0.890625 0.890625 -2.578125l0 -4.234375q0 -1.71875 -0.890625 -2.59375q-0.875 -0.875 -2.46875 -0.875q-1.5625 0 -2.46875 0.875q-0.90625 0.875 -0.90625 2.59375l0 4.234375q0 1.6875 0.90625 2.578125q0.90625 0.890625 2.46875 0.890625zm10.878174 2.84375l0 -16.859375l2.9687538 0l0 2.203125l0.609375 0l-0.484375 0.609375q0 -1.4375 0.78125 -2.28125q0.78125 -0.84375 2.046875 -0.84375q1.375 0 2.125 1.09375q0.75 1.09375 0.75 2.953125l-0.703125 -1.53125l1.109375 0l-0.46875 0.609375q0 -1.4375 0.796875 -2.28125q0.796875 -0.84375 2.109375 -0.84375q1.578125 0 2.46875 1.1875q0.90625 1.171875 0.90625 3.140625l0 12.84375l-3.15625 0l0 -12.71875q0 -0.890625 -0.390625 -1.375q-0.375 -0.5 -1.109375 -0.5q-0.734375 0 -1.140625 0.484375q-0.390625 0.46875 -0.390625 1.359375l0 12.75l-2.640625 0l0 -12.71875q0 -0.921875 -0.40625 -1.390625q-0.390625 -0.484375 -1.125 -0.484375q-0.734375 0 -1.109375 0.484375q-0.359375 0.46875 -0.359375 1.359375l0 12.75l-3.1875038 0zm25.909428 0.28125q-2.125 0 -3.671875 -0.796875q-1.546875 -0.796875 -2.40625 -2.28125q-0.859375 -1.5 -0.859375 -3.515625l0 -4.234375q0 -2.015625 0.859375 -3.5q0.859375 -1.5 2.40625 -2.296875q1.546875 -0.796875 3.671875 -0.796875q2.140625 0 3.671875 0.796875q1.53125 0.796875 2.390625 2.296875q0.859375 1.484375 0.859375 3.46875l0 4.265625q0 2.015625 -0.859375 3.515625q-0.859375 1.484375 -2.390625 2.28125q-1.53125 0.796875 -3.671875 0.796875zm0 -3.125q1.59375 0 2.46875 -0.890625q0.890625 -0.890625 0.890625 -2.578125l0 -4.234375q0 -1.71875 -0.890625 -2.59375q-0.875 -0.875 -2.46875 -0.875q-1.5625 0 -2.46875 0.875q-0.90625 0.875 -0.90625 2.59375l0 4.234375q0 1.6875 0.90625 2.578125q0.90625 0.890625 2.46875 0.890625zm13.909424 8.359375l0 -3.03125l5.09375 0q1.28125 0 1.921875 -0.625q0.65625 -0.609375 0.65625 -1.765625l0 -1.5l0.0625 -3.125l-0.796875 0l0.765625 -0.734375q0 1.984375 -1.21875 3.125q-1.203125 1.125 -3.265625 1.125q-2.609375 0 -4.109375 -1.71875q-1.5 -1.734375 -1.5 -4.6875l0 -3.34375q0 -2.9375 1.5 -4.671875q1.5 -1.734375 4.109375 -1.734375q2.0625 0 3.265625 1.140625q1.21875 1.125 1.21875 3.125l-0.765625 -0.734375l0.765625 0l-0.0625 -3.21875l3.546875 0l0 17.015625q0 2.484375 -1.609375 3.921875q-1.609375 1.4375 -4.421875 1.4375l-5.15625 0zm4.421875 -9.625q1.5 0 2.359375 -0.921875q0.859375 -0.921875 0.859375 -2.546875l0 -3.03125q0 -1.625 -0.859375 -2.546875q-0.859375 -0.921875 -2.359375 -0.921875q-1.5625 0 -2.40625 0.90625q-0.84375 0.90625 -0.84375 2.5625l0 3.03125q0 1.65625 0.84375 2.5625q0.84375 0.90625 2.40625 0.90625zm18.456299 4.421875q-2.09375 0 -3.65625 -0.8125q-1.5625 -0.8125 -2.421875 -2.296875q-0.859375 -1.5 -0.859375 -3.453125l0 -4.359375q0 -1.953125 0.859375 -3.4375q0.859375 -1.5 2.421875 -2.3125q1.5625 -0.8125 3.65625 -0.8125q2.109375 0 3.6562424 0.8125q1.546875 0.8125 2.40625 2.3125q0.859375 1.484375 0.859375 3.4375l0 3.03125l-10.421867 0l0 1.328125q0 1.8125 0.90625 2.765625q0.90625 0.9375 2.625 0.9375q1.375 0 2.21875 -0.484375q0.8437424 -0.5 1.0468674 -1.390625l3.53125 0q-0.390625 2.15625 -2.265625 3.453125q-1.8749924 1.28125 -4.5624924 1.28125zm3.4843674 -9.96875l0 -0.953125q0 -1.8125 -0.8749924 -2.765625q-0.875 -0.96875 -2.609375 -0.96875q-1.6875 0 -2.59375 0.984375q-0.90625 0.96875 -0.90625 2.75l0 0.703125l7.2343674 -0.03125l-0.25 0.28125zm8.159424 9.65625l0 -16.859375l3.53125 0l0 3.21875l0.90625 0l-0.90625 0.828125q0 -2.0625 1.203125 -3.203125q1.21875 -1.15625 3.296875 -1.15625q2.515625 0 4.015625 1.625q1.5 1.625 1.5 4.421875l0 11.125l-3.578125 0l0 -10.765625q0 -1.59375 -0.84375 -2.453125q-0.84375 -0.859375 -2.3125 -0.859375q-1.515625 0 -2.375 0.90625q-0.84375 0.90625 -0.84375 2.5625l0 10.609375l-3.59375 0zm25.143799 0.3125q-2.09375 0 -3.65625 -0.8125q-1.5625 -0.8125 -2.421875 -2.296875q-0.859375 -1.5 -0.859375 -3.453125l0 -4.359375q0 -1.953125 0.859375 -3.4375q0.859375 -1.5 2.421875 -2.3125q1.5625 -0.8125 3.65625 -0.8125q2.109375 0 3.65625 0.8125q1.546875 0.8125 2.40625 2.3125q0.859375 1.484375 0.859375 3.4375l0 3.03125l-10.421875 0l0 1.328125q0 1.8125 0.90625 2.765625q0.90625 0.9375 2.625 0.9375q1.375 0 2.21875 -0.484375q0.84375 -0.5 1.046875 -1.390625l3.53125 0q-0.390625 2.15625 -2.265625 3.453125q-1.875 1.28125 -4.5625 1.28125zm3.484375 -9.96875l0 -0.953125q0 -1.8125 -0.875 -2.765625q-0.875 -0.96875 -2.609375 -0.96875q-1.6875 0 -2.59375 0.984375q-0.90625 0.96875 -0.90625 2.75l0 0.703125l7.234375 -0.03125l-0.25 0.28125zm14.909424 9.9375q-2.125 0 -3.671875 -0.796875q-1.546875 -0.796875 -2.40625 -2.28125q-0.859375 -1.5 -0.859375 -3.515625l0 -4.234375q0 -2.015625 0.859375 -3.5q0.859375 -1.5 2.40625 -2.296875q1.546875 -0.796875 3.671875 -0.796875q2.140625 0 3.671875 0.796875q1.53125 0.796875 2.390625 2.296875q0.859375 1.484375 0.859375 3.46875l0 4.265625q0 2.015625 -0.859375 3.515625q-0.859375 1.484375 -2.390625 2.28125q-1.53125 0.796875 -3.671875 0.796875zm0 -3.125q1.59375 0 2.46875 -0.890625q0.890625 -0.890625 0.890625 -2.578125l0 -4.234375q0 -1.71875 -0.890625 -2.59375q-0.875 -0.875 -2.46875 -0.875q-1.5625 0 -2.46875 0.875q-0.90625 0.875 -0.90625 2.59375l0 4.234375q0 1.6875 0.90625 2.578125q0.90625 0.890625 2.46875 0.890625zm18.362549 3.15625q-3.125 0 -4.953125 -1.78125q-1.828125 -1.78125 -1.828125 -4.84375l0 -10.546875l3.59375 0l0 10.515625q0 1.6875 0.84375 2.609375q0.84375 0.90625 2.34375 0.90625q1.53125 0 2.390625 -0.90625q0.859375 -0.921875 0.859375 -2.609375l0 -10.515625l3.578125 0l0 10.546875q0 3.0625 -1.859375 4.84375q-1.84375 1.78125 -4.96875 1.78125zm17.800049 -0.03125q-1.859375 0 -3.265625 -0.59375q-1.390625 -0.609375 -2.203125 -1.65625q-0.8125 -1.0625 -0.90625 -2.5l3.59375 0q0.09375 0.828125 0.84375 1.3125q0.75 0.484375 1.9375 0.484375l1.328125 0q1.46875 0 2.203125 -0.578125q0.734375 -0.578125 0.734375 -1.5625q0 -0.921875 -0.65625 -1.453125q-0.65625 -0.546875 -1.984375 -0.71875l-2.140625 -0.3125q-2.796875 -0.421875 -4.09375 -1.546875q-1.296875 -1.125 -1.296875 -3.359375q0 -2.359375 1.546875 -3.640625q1.546875 -1.296875 4.578125 -1.296875l1.171875 0q2.71875 0 4.34375 1.234375q1.625 1.21875 1.8125 3.3125l-3.59375 0q-0.078125 -0.71875 -0.765625 -1.15625q-0.671875 -0.4375 -1.796875 -0.4375l-1.171875 0q-1.375 0 -2.015625 0.5q-0.625 0.5 -0.625 1.484375q0 0.890625 0.546875 1.34375q0.5625 0.4375 1.765625 0.625l2.203125 0.296875q2.90625 0.4375 4.28125 1.625q1.390625 1.171875 1.390625 3.4375q0 2.453125 -1.609375 3.8125q-1.609375 1.34375 -4.828125 1.34375l-1.328125 0zm36.490723 0.03125q-3.34375 0 -5.296875 -1.859375q-1.9375 -1.859375 -1.9375 -5.015625l3.546875 0q0 1.75 0.984375 2.75q0.984375 0.984375 2.703125 0.984375q1.71875 0 2.6875 -0.96875q0.984375 -0.984375 0.984375 -2.765625l0 -12.5l-5.234375 0l0 -3.3125l8.796875 0l0 15.8125q0 3.1875 -1.953125 5.03125q-1.9375 1.84375 -5.28125 1.84375zm19.315674 -0.03125q-2.125 0 -3.671875 -0.796875q-1.546875 -0.796875 -2.40625 -2.28125q-0.859375 -1.5 -0.859375 -3.515625l0 -4.234375q0 -2.015625 0.859375 -3.5q0.859375 -1.5 2.40625 -2.296875q1.546875 -0.796875 3.671875 -0.796875q2.140625 0 3.671875 0.796875q1.53125 0.796875 2.390625 2.296875q0.859375 1.484375 0.859375 3.46875l0 4.265625q0 2.015625 -0.859375 3.515625q-0.859375 1.484375 -2.390625 2.28125q-1.53125 0.796875 -3.671875 0.796875zm0 -3.125q1.59375 0 2.46875 -0.890625q0.890625 -0.890625 0.890625 -2.578125l0 -4.234375q0 -1.71875 -0.890625 -2.59375q-0.875 -0.875 -2.46875 -0.875q-1.5625 0 -2.46875 0.875q-0.90625 0.875 -0.90625 2.59375l0 4.234375q0 1.6875 0.90625 2.578125q0.90625 0.890625 2.46875 0.890625zm11.581299 2.84375l0 -3.25l5.921875 0l0 -10.390625l-5.15625 0l0 -3.21875l8.578125 0l0 13.609375l5.34375 0l0 3.25l-14.6875 0zm7.328125 -19.75q-1.140625 0 -1.78125 -0.5625q-0.640625 -0.5625 -0.640625 -1.546875q0 -1.015625 0.640625 -1.59375q0.640625 -0.578125 1.78125 -0.578125q1.125 0 1.765625 0.578125q0.65625 0.578125 0.65625 1.59375q0 0.984375 -0.65625 1.546875q-0.640625 0.5625 -1.765625 0.5625zm11.128174 19.75l0 -16.859375l3.53125 0l0 3.21875l0.90625 0l-0.90625 0.828125q0 -2.0625 1.203125 -3.203125q1.21875 -1.15625 3.296875 -1.15625q2.515625 0 4.015625 1.625q1.5 1.625 1.5 4.421875l0 11.125l-3.578125 0l0 -10.765625q0 -1.59375 -0.84375 -2.453125q-0.84375 -0.859375 -2.3125 -0.859375q-1.515625 0 -2.375 0.90625q-0.84375 0.90625 -0.84375 2.5625l0 10.609375l-3.59375 0z" fill-rule="nonzero"/><path shape-rendering="crispEdges" fill="#a4c2f4" d="m735.4895 142.6273l51.270325 0l0 41.595795l-51.270325 0l0 -41.595795z" fill-rule="nonzero"/><path shape-rendering="crispEdges" fill="#a4c2f4" d="m735.4895 184.2231l51.270325 0l0 41.595795l-51.270325 0l0 -41.595795z" fill-rule="nonzero"/><path shape-rendering="crispEdges" fill="#a4c2f4" d="m735.4895 225.8189l51.270325 0l0 41.59581l-51.270325 0l0 -41.59581z" fill-rule="nonzero"/><path shape-rendering="crispEdges" fill="#a4c2f4" d="m735.4895 267.4147l51.270325 0l0 41.595795l-51.270325 0l0 -41.595795z" fill-rule="nonzero"/><path shape-rendering="crispEdges" fill="#a4c2f4" d="m735.4895 309.0105l51.270325 0l0 41.595795l-51.270325 0l0 -41.595795z" fill-rule="nonzero"/><path shape-rendering="crispEdges" fill="#a4c2f4" d="m735.4895 350.6063l51.270325 0l0 41.595795l-51.270325 0l0 -41.595795z" fill-rule="nonzero"/><path shape-rendering="crispEdges" fill="#a4c2f4" d="m735.4895 392.2021l51.270325 0l0 41.595825l-51.270325 0l0 -41.595825z" fill-rule="nonzero"/><path stroke="#999999" stroke-width="1.0" stroke-linecap="butt" d="m786.7598 142.12862l0 292.16797" fill-rule="nonzero"/><path stroke="#999999" stroke-width="1.0" stroke-linecap="butt" d="m734.9908 184.2231l103.538086 0" fill-rule="nonzero"/><path stroke="#999999" stroke-width="1.0" stroke-linecap="butt" d="m734.9908 225.8189l103.538086 0" fill-rule="nonzero"/><path stroke="#999999" stroke-width="1.0" stroke-linecap="butt" d="m734.9908 267.4147l103.538086 0" fill-rule="nonzero"/><path stroke="#999999" stroke-width="1.0" stroke-linecap="butt" d="m734.9908 309.0105l103.538086 0" fill-rule="nonzero"/><path stroke="#999999" stroke-width="1.0" stroke-linecap="butt" d="m734.9908 350.6063l103.538086 0" fill-rule="nonzero"/><path stroke="#999999" stroke-width="1.0" stroke-linecap="butt" d="m734.9908 392.2021l103.538086 0" fill-rule="nonzero"/><path fill="#000000" d="m757.19965 169.5473l0 -1.671875l5.75 -7.0625l-5.59375 0l0 -1.53125l7.484375 0l0 1.6875l-5.859375 7.046875l6.0625 0l0 1.53125l-7.84375 0z" fill-rule="nonzero"/><path fill="#000000" d="m812.47003 169.7348q-1.234375 0 -2.15625 -0.46875q-0.921875 -0.46875 -1.4375 -1.34375q-0.5 -0.890625 -0.5 -2.109375l0 -2.796875q0 -1.234375 0.5 -2.109375q0.515625 -0.875 1.4375 -1.34375q0.921875 -0.46875 2.15625 -0.46875q1.765625 0 2.84375 0.953125q1.09375 0.953125 1.140625 2.59375l-1.671875 0q-0.0625 -0.984375 -0.671875 -1.515625q-0.59375 -0.53125 -1.640625 -0.53125q-1.09375 0 -1.75 0.625q-0.65625 0.625 -0.65625 1.78125l0 2.8125q0 1.15625 0.65625 1.796875q0.65625 0.625 1.75 0.625q1.046875 0 1.640625 -0.53125q0.609375 -0.546875 0.671875 -1.515625l1.671875 0q-0.046875 1.640625 -1.140625 2.59375q-1.078125 0.953125 -2.84375 0.953125z" fill-rule="nonzero"/><path fill="#000000" d="m761.1215 211.3306q-1.25 0 -2.171875 -0.484375q-0.921875 -0.5 -1.421875 -1.40625q-0.5 -0.90625 -0.5 -2.125l0 -5.96875q0 -1.234375 0.5 -2.125q0.5 -0.890625 1.421875 -1.390625q0.921875 -0.5 2.171875 -0.5q1.265625 0 2.171875 0.5q0.921875 0.5 1.421875 1.390625q0.515625 0.890625 0.515625 2.125l0 5.96875q0 1.21875 -0.515625 2.125q-0.5 0.90625 -1.421875 1.40625q-0.921875 0.484375 -2.171875 0.484375zm0 -1.4375q1.125 0 1.796875 -0.71875q0.6875 -0.71875 0.6875 -1.859375l0 -5.96875q0 -1.140625 -0.6875 -1.859375q-0.671875 -0.71875 -1.796875 -0.71875q-1.109375 0 -1.796875 0.71875q-0.6875 0.71875 -0.6875 1.859375l0 5.96875q0 1.140625 0.6875 1.859375q0.6875 0.71875 1.796875 0.71875zm0 -4.453125q-0.5 0 -0.8125 -0.3125q-0.296875 -0.328125 -0.296875 -0.84375q0 -0.515625 0.296875 -0.8125q0.3125 -0.3125 0.8125 -0.3125q0.5 0 0.8125 0.3125q0.3125 0.296875 0.3125 0.8125q0 0.515625 -0.3125 0.84375q-0.3125 0.3125 -0.8125 0.3125z" fill-rule="nonzero"/><path fill="#000000" d="m808.47003 211.1431l0 -1.53125l3.703125 0l0 -10.6875l-3.703125 2.765625l0 -1.875l3.078125 -2.296875l2.296875 0l0 12.09375l3.03125 0l0 1.53125l-8.40625 0z" fill-rule="nonzero"/><path fill="#000000" d="m757.2465 252.73889l0 -1.71875l4.15625 -4.421875q1.0625 -1.140625 1.546875 -2.015625q0.484375 -0.890625 0.484375 -1.71875q0 -1.125 -0.625 -1.78125q-0.625 -0.65625 -1.703125 -0.65625q-1.1875 0 -1.875 0.671875q-0.6875 0.671875 -0.6875 1.84375l-1.671875 0q0.03125 -1.234375 0.5625 -2.125q0.53125 -0.90625 1.46875 -1.390625q0.953125 -0.5 2.203125 -0.5q1.234375 0 2.140625 0.484375q0.90625 0.46875 1.390625 1.359375q0.484375 0.875 0.484375 2.078125q0 1.15625 -0.625 2.296875q-0.609375 1.140625 -2.015625 2.59375l-3.359375 3.46875l6.21875 0l0 1.53125l-8.09375 0z" fill-rule="nonzero"/><path fill="#000000" d="m808.47003 252.73889l0 -1.53125l3.703125 0l0 -10.6875l-3.703125 2.765625l0 -1.875l3.078125 -2.296875l2.296875 0l0 12.09375l3.03125 0l0 1.53125l-8.40625 0z" fill-rule="nonzero"/><path fill="#000000" d="m757.2465 294.3347l0 -1.71875l4.15625 -4.421875q1.0625 -1.140625 1.546875 -2.015625q0.484375 -0.890625 0.484375 -1.71875q0 -1.125 -0.625 -1.78125q-0.625 -0.65625 -1.703125 -0.65625q-1.1875 0 -1.875 0.671875q-0.6875 0.671875 -0.6875 1.84375l-1.671875 0q0.03125 -1.234375 0.5625 -2.125q0.53125 -0.90625 1.46875 -1.390625q0.953125 -0.5 2.203125 -0.5q1.234375 0 2.140625 0.484375q0.90625 0.46875 1.390625 1.359375q0.484375 0.875 0.484375 2.078125q0 1.15625 -0.625 2.296875q-0.609375 1.140625 -2.015625 2.59375l-3.359375 3.46875l6.21875 0l0 1.53125l-8.09375 0z" fill-rule="nonzero"/><path fill="#000000" d="m808.5169 294.3347l0 -1.71875l4.15625 -4.421875q1.0625 -1.140625 1.546875 -2.015625q0.484375 -0.890625 0.484375 -1.71875q0 -1.125 -0.625 -1.78125q-0.625 -0.65625 -1.703125 -0.65625q-1.1875 0 -1.875 0.671875q-0.6875 0.671875 -0.6875 1.84375l-1.671875 0q0.03125 -1.234375 0.5625 -2.125q0.53125 -0.90625 1.46875 -1.390625q0.953125 -0.5 2.203125 -0.5q1.234375 0 2.140625 0.484375q0.90625 0.46875 1.390625 1.359375q0.484375 0.875 0.484375 2.078125q0 1.15625 -0.625 2.296875q-0.609375 1.140625 -2.015625 2.59375l-3.359375 3.46875l6.21875 0l0 1.53125l-8.09375 0z" fill-rule="nonzero"/><path fill="#000000" d="m757.2465 335.9305l0 -1.71875l4.15625 -4.421875q1.0625 -1.140625 1.546875 -2.015625q0.484375 -0.890625 0.484375 -1.71875q0 -1.125 -0.625 -1.78125q-0.625 -0.65625 -1.703125 -0.65625q-1.1875 0 -1.875 0.671875q-0.6875 0.671875 -0.6875 1.84375l-1.671875 0q0.03125 -1.234375 0.5625 -2.125q0.53125 -0.90625 1.46875 -1.390625q0.953125 -0.5 2.203125 -0.5q1.234375 0 2.140625 0.484375q0.90625 0.46875 1.390625 1.359375q0.484375 0.875 0.484375 2.078125q0 1.15625 -0.625 2.296875q-0.609375 1.140625 -2.015625 2.59375l-3.359375 3.46875l6.21875 0l0 1.53125l-8.09375 0z" fill-rule="nonzero"/><path fill="#000000" d="m812.1888 336.118q-1.234375 0 -2.15625 -0.484375q-0.921875 -0.5 -1.421875 -1.375q-0.5 -0.890625 -0.5 -2.0625l1.671875 0q0 1.140625 0.640625 1.78125q0.640625 0.640625 1.78125 0.640625q1.15625 0 1.78125 -0.671875q0.640625 -0.671875 0.640625 -1.75l0 -0.96875q0 -1.15625 -0.640625 -1.78125q-0.625 -0.640625 -1.78125 -0.640625l-1.390625 0l0 -1.6875l3.375 -3.28125l-5.53125 0l0 -1.53125l7.21875 0l0 1.6875l-3.625 3.53125l0 -0.21875q1.859375 0 2.953125 1.0625q1.109375 1.0625 1.109375 2.859375l0 0.96875q0 1.171875 -0.515625 2.0625q-0.515625 0.875 -1.453125 1.375q-0.921875 0.484375 -2.15625 0.484375z" fill-rule="nonzero"/><path fill="#000000" d="m760.9184 377.7138q-1.234375 0 -2.15625 -0.484375q-0.921875 -0.5 -1.421875 -1.375q-0.5 -0.890625 -0.5 -2.0625l1.671875 0q0 1.140625 0.640625 1.78125q0.640625 0.640625 1.78125 0.640625q1.15625 0 1.78125 -0.671875q0.640625 -0.671875 0.640625 -1.75l0 -0.96875q0 -1.15625 -0.640625 -1.78125q-0.625 -0.640625 -1.78125 -0.640625l-1.390625 0l0 -1.6875l3.375 -3.28125l-5.53125 0l0 -1.53125l7.21875 0l0 1.6875l-3.625 3.53125l0 -0.21875q1.859375 0 2.953125 1.0625q1.109375 1.0625 1.109375 2.859375l0 0.96875q0 1.171875 -0.515625 2.0625q-0.515625 0.875 -1.453125 1.375q-0.921875 0.484375 -2.15625 0.484375z" fill-rule="nonzero"/><path fill="#000000" d="m812.36066 377.7138q-1.65625 0 -2.734375 -0.859375q-1.0625 -0.859375 -1.25 -2.3125l1.6875 0q0.09375 0.796875 0.6875 1.234375q0.59375 0.4375 1.625 0.4375q1.171875 0 1.75 -0.625q0.59375 -0.640625 0.59375 -1.796875l0 -1.328125q0 -1.15625 -0.59375 -1.78125q-0.578125 -0.640625 -1.734375 -0.640625q-0.71875 0 -1.265625 0.390625q-0.546875 0.375 -0.78125 1.015625l-1.6875 0l0.09375 -7.546875l7.171875 0l0 1.53125l-5.546875 0l-0.046875 4.53125l0.515625 0l-0.515625 0.484375q0 -0.875 0.6875 -1.375q0.703125 -0.5 1.875 -0.5q1.671875 -0.015625 2.59375 1.015625q0.921875 1.03125 0.921875 2.875l0 1.328125q0 1.8125 -1.0625 2.875q-1.0625 1.046875 -2.984375 1.046875z" fill-rule="nonzero"/><path fill="#000000" d="m760.9184 419.3096q-1.234375 0 -2.15625 -0.484375q-0.921875 -0.5 -1.421875 -1.375q-0.5 -0.890625 -0.5 -2.0625l1.671875 0q0 1.140625 0.640625 1.78125q0.640625 0.640625 1.78125 0.640625q1.15625 0 1.78125 -0.671875q0.640625 -0.671875 0.640625 -1.75l0 -0.96875q0 -1.15625 -0.640625 -1.78125q-0.625 -0.640625 -1.78125 -0.640625l-1.390625 0l0 -1.6875l3.375 -3.28125l-5.53125 0l0 -1.53125l7.21875 0l0 1.6875l-3.625 3.53125l0 -0.21875q1.859375 0 2.953125 1.0625q1.109375 1.0625 1.109375 2.859375l0 0.96875q0 1.171875 -0.515625 2.0625q-0.515625 0.875 -1.453125 1.375q-0.921875 0.484375 -2.15625 0.484375z" fill-rule="nonzero"/><path fill="#000000" d="m812.36066 419.3096q-1.65625 0 -2.734375 -0.859375q-1.0625 -0.859375 -1.25 -2.3125l1.6875 0q0.09375 0.796875 0.6875 1.234375q0.59375 0.4375 1.625 0.4375q1.171875 0 1.75 -0.625q0.59375 -0.640625 0.59375 -1.796875l0 -1.328125q0 -1.15625 -0.59375 -1.78125q-0.578125 -0.640625 -1.734375 -0.640625q-0.71875 0 -1.265625 0.390625q-0.546875 0.375 -0.78125 1.015625l-1.6875 0l0.09375 -7.546875l7.171875 0l0 1.53125l-5.546875 0l-0.046875 4.53125l0.515625 0l-0.515625 0.484375q0 -0.875 0.6875 -1.375q0.703125 -0.5 1.875 -0.5q1.671875 -0.015625 2.59375 1.015625q0.921875 1.03125 0.921875 2.875l0 1.328125q0 1.8125 -1.0625 2.875q-1.0625 1.046875 -2.984375 1.046875z" fill-rule="nonzero"/><path fill="#000000" fill-opacity="0.0" d="m735.48816 94.15354l94.20477 0l0 48.47245l-94.20477 0z" fill-rule="evenodd"/><path fill="#595959" d="m770.39374 127.02976l0 -17.515625l5.421875 0q1.5625 0 2.734375 0.640625q1.1875 0.625 1.828125 1.765625q0.65625 1.125 0.65625 2.625q0 1.78125 -0.9375 3.0625q-0.921875 1.265625 -2.5 1.734375l3.671875 7.6875l-2.546875 0l-3.359375 -7.4375l-2.796875 0l0 7.4375l-2.171875 0zm2.171875 -9.390625l3.25 0q1.34375 0 2.15625 -0.84375q0.828125 -0.859375 0.828125 -2.25q0 -1.40625 -0.828125 -2.25q-0.8125 -0.84375 -2.15625 -0.84375l-3.25 0l0 6.1875zm16.962463 9.625q-1.578125 0 -2.78125 -0.625q-1.1875 -0.640625 -1.828125 -1.765625q-0.640625 -1.125 -0.640625 -2.640625l2.15625 0q0 1.453125 0.828125 2.28125q0.828125 0.828125 2.28125 0.828125q1.5 0 2.3125 -0.859375q0.8125 -0.859375 0.8125 -2.25l0 -1.25q0 -1.484375 -0.8125 -2.296875q-0.8125 -0.828125 -2.3125 -0.828125l-1.796875 0l0 -2.15625l4.34375 -4.21875l-7.09375 0l0 -1.96875l9.28125 0l0 2.15625l-4.671875 4.53125l0 -0.265625q2.390625 0 3.796875 1.375q1.421875 1.359375 1.421875 3.671875l0 1.25q0 1.515625 -0.65625 2.640625q-0.65625 1.125 -1.859375 1.765625q-1.203125 0.625 -2.78125 0.625z" fill-rule="nonzero"/><path fill="#000000" fill-opacity="0.0" d="m155.83202 261.96326l314.96063 0l0 71.08661l-314.96063 0z" fill-rule="evenodd"/><path fill="#595959" d="m304.82016 301.42325l7.65625 -4.828125l-7.65625 -5.0l0 9.828125zm16.984375 -9.828125l-7.65625 5.0l7.65625 4.828125l0 -9.828125zm1.0 -2.0l0 13.828125l-9.484375 -6.15625l-9.5 6.15625l0 -13.828125l9.5 6.328125l9.484375 -6.328125z" fill-rule="nonzero"/><path fill="#000000" fill-opacity="0.0" d="m470.79266 255.6483l314.96063 0l0 71.08659l-314.96063 0z" fill-rule="evenodd"/><path fill="#595959" d="m619.78076 295.1083l7.65625 -4.828125l-7.65625 -5.0l0 9.828125zm16.984375 -9.828125l-7.65625 5.0l7.65625 4.828125l0 -9.828125zm1.0 -2.0l0 13.828125l-9.484375 -6.15625l-9.5 6.15625l0 -13.828125l9.5 6.328125l9.484375 -6.328125z" fill-rule="nonzero"/></g></svg>