<svg version="1.1" viewBox="0.0 0.0 960.0 540.0" fill="none" stroke="none" stroke-linecap="square" stroke-miterlimit="10" xmlns:xlink="http://www.w3.org/1999/xlink" xmlns="http://www.w3.org/2000/svg"><clipPath id="g26ef6875602_0_0.0"><path d="m0 0l960.0 0l0 540.0l-960.0 0l0 -540.0z" clip-rule="nonzero"/></clipPath><g clip-path="url(#g26ef6875602_0_0.0)"><path fill="#ffffff" d="m0 0l960.0 0l0 540.0l-960.0 0z" fill-rule="evenodd"/><path shape-rendering="crispEdges" fill="#a4c2f4" d="m168.01575 145.60367l51.27034 0l0 41.59581l-51.27034 0l0 -41.59581z" fill-rule="nonzero"/><path shape-rendering="crispEdges" fill="#a4c2f4" d="m168.01575 187.19948l51.27034 0l0 41.595795l-51.27034 0l0 -41.595795z" fill-rule="nonzero"/><path shape-rendering="crispEdges" fill="#a4c2f4" d="m168.01575 228.79527l51.27034 0l0 41.59581l-51.27034 0l0 -41.59581z" fill-rule="nonzero"/><path shape-rendering="crispEdges" fill="#a4c2f4" d="m168.01575 270.39108l51.27034 0l0 41.595795l-51.27034 0l0 -41.595795z" fill-rule="nonzero"/><path shape-rendering="crispEdges" fill="#a4c2f4" d="m168.01575 311.98688l51.27034 0l0 41.595795l-51.27034 0l0 -41.595795z" fill-rule="nonzero"/><path shape-rendering="crispEdges" fill="#a4c2f4" d="m168.01575 353.58267l51.27034 0l0 41.595795l-51.27034 0l0 -41.595795z" fill-rule="nonzero"/><path shape-rendering="crispEdges" fill="#a4c2f4" d="m168.01575 395.17847l51.27034 0l0 41.595825l-51.27034 0l0 -41.595825z" fill-rule="nonzero"/><path stroke="#999999" stroke-width="1.0" stroke-linecap="butt" d="m168.01575 145.10498l0 292.168" fill-rule="nonzero"/><path stroke="#999999" stroke-width="1.0" stroke-linecap="butt" d="m116.24672 187.19948l103.538055 0" fill-rule="nonzero"/><path stroke="#999999" stroke-width="1.0" stroke-linecap="butt" d="m116.24672 228.79527l103.538055 0" fill-rule="nonzero"/><path stroke="#999999" stroke-width="1.0" stroke-linecap="butt" d="m116.24672 270.39108l103.538055 0" fill-rule="nonzero"/><path stroke="#999999" stroke-width="1.0" stroke-linecap="butt" d="m116.24672 311.98688l103.538055 0" fill-rule="nonzero"/><path stroke="#999999" stroke-width="1.0" stroke-linecap="butt" d="m116.24672 353.58267l103.538055 0" fill-rule="nonzero"/><path stroke="#999999" stroke-width="1.0" stroke-linecap="butt" d="m116.24672 395.17847l103.538055 0" fill-rule="nonzero"/><path fill="#000000" d="m137.72119 172.52367l3.640625 -5.28125l-3.421875 -4.984375l1.984375 0l2.03125 3.171875q0.125 0.203125 0.25 0.453125q0.125 0.234375 0.1875 0.390625q0.0625 -0.15625 0.171875 -0.390625q0.125 -0.25 0.265625 -0.453125l2.046875 -3.171875l1.96875 0l-3.421875 5.0l3.625 5.265625l-1.984375 0l-2.203125 -3.359375q-0.125 -0.203125 -0.25 -0.46875q-0.125 -0.28125 -0.21875 -0.4375q-0.0625 0.15625 -0.203125 0.4375q-0.140625 0.265625 -0.296875 0.46875l-2.21875 3.359375l-1.953125 0z" fill-rule="nonzero"/><path fill="#000000" d="m189.72592 172.52367l0 -1.671875l5.75 -7.0625l-5.59375 0l0 -1.53125l7.484375 0l0 1.6875l-5.859375 7.046875l6.0625 0l0 1.53125l-7.84375 0z" fill-rule="nonzero"/><path fill="#000000" d="m142.37744 214.30698q-1.25 0 -2.171875 -0.484375q-0.921875 -0.5 -1.421875 -1.40625q-0.5 -0.90625 -0.5 -2.125l0 -5.96875q0 -1.234375 0.5 -2.125q0.5 -0.890625 1.421875 -1.390625q0.921875 -0.5 2.171875 -0.5q1.265625 0 2.171875 0.5q0.921875 0.5 1.421875 1.390625q0.515625 0.890625 0.515625 2.125l0 5.96875q0 1.21875 -0.515625 2.125q-0.5 0.90625 -1.421875 1.40625q-0.921875 0.484375 -2.171875 0.484375zm0 -1.4375q1.125 0 1.796875 -0.71875q0.6875 -0.71875 0.6875 -1.859375l0 -5.96875q0 -1.140625 -0.6875 -1.859375q-0.671875 -0.71875 -1.796875 -0.71875q-1.109375 0 -1.796875 0.71875q-0.6875 0.71875 -0.6875 1.859375l0 5.96875q0 1.140625 0.6875 1.859375q0.6875 0.71875 1.796875 0.71875zm0 -4.453125q-0.5 0 -0.8125 -0.3125q-0.296875 -0.328125 -0.296875 -0.84375q0 -0.515625 0.296875 -0.8125q0.3125 -0.3125 0.8125 -0.3125q0.5 0 0.8125 0.3125q0.3125 0.296875 0.3125 0.8125q0 0.515625 -0.3125 0.84375q-0.3125 0.3125 -0.8125 0.3125z" fill-rule="nonzero"/><path fill="#000000" d="m189.72592 214.11948l0 -1.53125l3.703125 0l0 -10.6875l-3.703125 2.765625l0 -1.875l3.078125 -2.296875l2.296875 0l0 12.09375l3.03125 0l0 1.53125l-8.40625 0z" fill-rule="nonzero"/><path fill="#000000" d="m138.45557 255.71527l0 -1.53125l3.703125 0l0 -10.6875l-3.703125 2.765625l0 -1.875l3.078125 -2.296875l2.296875 0l0 12.09375l3.03125 0l0 1.53125l-8.40625 0z" fill-rule="nonzero"/><path fill="#000000" d="m189.7728 255.71527l0 -1.71875l4.15625 -4.421875q1.0625 -1.140625 1.546875 -2.015625q0.484375 -0.890625 0.484375 -1.71875q0 -1.125 -0.625 -1.78125q-0.625 -0.65625 -1.703125 -0.65625q-1.1875 0 -1.875 0.671875q-0.6875 0.671875 -0.6875 1.84375l-1.671875 0q0.03125 -1.234375 0.5625 -2.125q0.53125 -0.90625 1.46875 -1.390625q0.953125 -0.5 2.203125 -0.5q1.234375 0 2.140625 0.484375q0.90625 0.46875 1.390625 1.359375q0.484375 0.875 0.484375 2.078125q0 1.15625 -0.625 2.296875q-0.609375 1.140625 -2.015625 2.59375l-3.359375 3.46875l6.21875 0l0 1.53125l-8.09375 0z" fill-rule="nonzero"/><path fill="#000000" d="m138.45557 297.31107l0 -1.53125l3.703125 0l0 -10.6875l-3.703125 2.765625l0 -1.875l3.078125 -2.296875l2.296875 0l0 12.09375l3.03125 0l0 1.53125l-8.40625 0z" fill-rule="nonzero"/><path fill="#000000" d="m193.44467 297.49857q-1.234375 0 -2.15625 -0.484375q-0.921875 -0.5 -1.421875 -1.375q-0.5 -0.890625 -0.5 -2.0625l1.671875 0q0 1.140625 0.640625 1.78125q0.640625 0.640625 1.78125 0.640625q1.15625 0 1.78125 -0.671875q0.640625 -0.671875 0.640625 -1.75l0 -0.96875q0 -1.15625 -0.640625 -1.78125q-0.625 -0.640625 -1.78125 -0.640625l-1.390625 0l0 -1.6875l3.375 -3.28125l-5.53125 0l0 -1.53125l7.21875 0l0 1.6875l-3.625 3.53125l0 -0.21875q1.859375 0 2.953125 1.0625q1.109375 1.0625 1.109375 2.859375l0 0.96875q0 1.171875 -0.515625 2.0625q-0.515625 0.875 -1.453125 1.375q-0.921875 0.484375 -2.15625 0.484375z" fill-rule="nonzero"/><path fill="#000000" d="m138.50244 338.90686l0 -1.71875l4.15625 -4.421875q1.0625 -1.140625 1.546875 -2.015625q0.484375 -0.890625 0.484375 -1.71875q0 -1.125 -0.625 -1.78125q-0.625 -0.65625 -1.703125 -0.65625q-1.1875 0 -1.875 0.671875q-0.6875 0.671875 -0.6875 1.84375l-1.671875 0q0.03125 -1.234375 0.5625 -2.125q0.53125 -0.90625 1.46875 -1.390625q0.953125 -0.5 2.203125 -0.5q1.234375 0 2.140625 0.484375q0.90625 0.46875 1.390625 1.359375q0.484375 0.875 0.484375 2.078125q0 1.15625 -0.625 2.296875q-0.609375 1.140625 -2.015625 2.59375l-3.359375 3.46875l6.21875 0l0 1.53125l-8.09375 0z" fill-rule="nonzero"/><path fill="#000000" d="m195.7103 338.90686l0 -2.984375l-6.15625 0l0 -2.625l5.390625 -8.015625l1.828125 0l-5.546875 8.359375l0 0.75l4.484375 0l0 -3.3125l1.671875 0l0 7.828125l-1.671875 0z" fill-rule="nonzero"/><path fill="#000000" d="m142.17432 380.6902q-1.234375 0 -2.15625 -0.484375q-0.921875 -0.5 -1.421875 -1.375q-0.5 -0.890625 -0.5 -2.0625l1.671875 0q0 1.140625 0.640625 1.78125q0.640625 0.640625 1.78125 0.640625q1.15625 0 1.78125 -0.671875q0.640625 -0.671875 0.640625 -1.75l0 -0.96875q0 -1.15625 -0.640625 -1.78125q-0.625 -0.640625 -1.78125 -0.640625l-1.390625 0l0 -1.6875l3.375 -3.28125l-5.53125 0l0 -1.53125l7.21875 0l0 1.6875l-3.625 3.53125l0 -0.21875q1.859375 0 2.953125 1.0625q1.109375 1.0625 1.109375 2.859375l0 0.96875q0 1.171875 -0.515625 2.0625q-0.515625 0.875 -1.453125 1.375q-0.921875 0.484375 -2.15625 0.484375z" fill-rule="nonzero"/><path fill="#000000" d="m195.7103 380.5027l0 -2.984375l-6.15625 0l0 -2.625l5.390625 -8.015625l1.828125 0l-5.546875 8.359375l0 0.75l4.484375 0l0 -3.3125l1.671875 0l0 7.828125l-1.671875 0z" fill-rule="nonzero"/><path fill="#000000" d="m144.43994 422.09848l0 -2.984375l-6.15625 0l0 -2.625l5.390625 -8.015625l1.828125 0l-5.546875 8.359375l0 0.75l4.484375 0l0 -3.3125l1.671875 0l0 7.828125l-1.671875 0z" fill-rule="nonzero"/><path fill="#000000" d="m193.61655 422.28598q-1.65625 0 -2.734375 -0.859375q-1.0625 -0.859375 -1.25 -2.3125l1.6875 0q0.09375 0.796875 0.6875 1.234375q0.59375 0.4375 1.625 0.4375q1.171875 0 1.75 -0.625q0.59375 -0.640625 0.59375 -1.796875l0 -1.328125q0 -1.15625 -0.59375 -1.78125q-0.578125 -0.640625 -1.734375 -0.640625q-0.71875 0 -1.265625 0.390625q-0.546875 0.375 -0.78125 1.015625l-1.6875 0l0.09375 -7.546875l7.171875 0l0 1.53125l-5.546875 0l-0.046875 4.53125l0.515625 0l-0.515625 0.484375q0 -0.875 0.6875 -1.375q0.703125 -0.5 1.875 -0.5q1.671875 -0.015625 2.59375 1.015625q0.921875 1.03125 0.921875 2.875l0 1.328125q0 1.8125 -1.0625 2.875q-1.0625 1.046875 -2.984375 1.046875z" fill-rule="nonzero"/><path fill="#000000" fill-opacity="0.0" d="m120.91338 90.58793l94.20472 0l0 48.472435l-94.20472 0z" fill-rule="evenodd"/><path fill="#595959" d="m141.41895 127.77665l0 -17.515625l2.171875 0l0 2.515625l0.421875 0l-0.421875 0.515625q0 -1.515625 0.984375 -2.390625q1.0 -0.875 2.625 -0.875q2.0 0 3.1875 1.3125q1.1875 1.296875 1.1875 3.578125l0 3.859375q0 1.515625 -0.546875 2.625q-0.53125 1.109375 -1.5 1.703125q-0.96875 0.59375 -2.328125 0.59375q-1.59375 0 -2.609375 -0.875q-1.0 -0.890625 -1.0 -2.390625l0.421875 0.515625l-0.484375 0l0.0625 3.0l0 3.828125l-2.171875 0zm5.0625 -5.9375q1.375 0 2.15625 -0.8125q0.78125 -0.828125 0.78125 -2.359375l0 -3.609375q0 -1.53125 -0.78125 -2.34375q-0.78125 -0.8125 -2.15625 -0.8125q-1.3125 0 -2.109375 0.84375q-0.78125 0.828125 -0.78125 2.3125l0 3.609375q0 1.484375 0.78125 2.328125q0.796875 0.84375 2.109375 0.84375zm13.181213 1.859375q-2.09375 0 -3.296875 -1.0625q-1.1875 -1.0625 -1.1875 -2.890625q0 -1.84375 1.1875 -2.90625q1.203125 -1.0625 3.25 -1.0625l4.078125 0l0 -1.3125q0 -1.21875 -0.734375 -1.875q-0.734375 -0.671875 -2.078125 -0.671875q-1.171875 0 -1.96875 0.5q-0.78125 0.484375 -0.90625 1.328125l-2.15625 0q0.21875 -1.703125 1.609375 -2.703125q1.390625 -1.015625 3.46875 -1.015625q2.28125 0 3.59375 1.171875q1.328125 1.171875 1.328125 3.1875l0 9.078125l-2.109375 0l0 -2.515625l-0.359375 0l0.359375 -0.359375q0 1.4375 -1.125 2.28125q-1.109375 0.828125 -2.953125 0.828125zm0.53125 -1.703125q1.53125 0 2.515625 -0.765625q0.984375 -0.765625 0.984375 -1.96875l0 -1.875l-4.03125 0q-1.078125 0 -1.703125 0.609375q-0.625 0.59375 -0.625 1.625q0 1.109375 0.75 1.75q0.765625 0.625 2.109375 0.625zm16.462463 1.46875q-1.703125 0 -2.65625 -0.90625q-0.9375 -0.921875 -0.9375 -2.578125l0 -7.75l-3.734375 0l0 -1.96875l3.734375 0l0 -3.71875l2.15625 0l0 3.71875l5.28125 0l0 1.96875l-5.28125 0l0 7.75q0 1.515625 1.4375 1.515625l3.59375 0l0 1.96875l-3.59375 0zm7.9624634 0l0 -17.515625l2.171875 0l0 4.3125l0 2.515625l0.453125 0l-0.453125 0.515625q0 -1.5625 0.921875 -2.40625q0.9375 -0.859375 2.59375 -0.859375q2.0 0 3.171875 1.234375q1.171875 1.21875 1.171875 3.328125l0 8.875l-2.15625 0l0 -8.640625q0 -1.421875 -0.765625 -2.1875q-0.75 -0.78125 -2.046875 -0.78125q-1.34375 0 -2.125 0.84375q-0.765625 0.828125 -0.765625 2.359375l0 8.40625l-2.171875 0z" fill-rule="nonzero"/><path fill="#000000" fill-opacity="0.0" d="m400.8819 90.58662l94.20471 0l0 48.472435l-94.20471 0z" fill-rule="evenodd"/><path fill="#595959" d="m426.38745 123.69721q-1.5625 0 -2.734375 -0.625q-1.15625 -0.625 -1.796875 -1.75q-0.625 -1.140625 -0.625 -2.65625l0 -3.609375q0 -1.53125 0.625 -2.65625q0.640625 -1.125 1.796875 -1.75q1.171875 -0.625 2.734375 -0.625q1.5625 0 2.71875 0.625q1.171875 0.625 1.796875 1.75q0.640625 1.125 0.640625 2.65625l0 2.328125l-8.203125 0l0 1.28125q0 1.5625 0.78125 2.390625q0.796875 0.828125 2.265625 0.828125q1.25 0 2.015625 -0.4375q0.765625 -0.453125 0.9375 -1.34375l2.15625 0q-0.21875 1.65625 -1.625 2.625q-1.40625 0.96875 -3.484375 0.96875zm3.046875 -7.75l0 -0.890625q0 -1.546875 -0.78125 -2.390625q-0.78125 -0.84375 -2.265625 -0.84375q-1.46875 0 -2.265625 0.84375q-0.78125 0.84375 -0.78125 2.390625l0 0.703125l6.265625 0l-0.171875 0.1875zm10.587463 7.75q-1.96875 0 -3.1875 -1.3125q-1.203125 -1.328125 -1.203125 -3.578125l0 -3.859375q0 -2.28125 1.1875 -3.59375q1.203125 -1.328125 3.203125 -1.328125q1.625 0 2.609375 0.890625q0.984375 0.890625 0.984375 2.375l-0.4375 -0.515625l0.484375 0l-0.046875 -3.0l0 -3.828125l2.15625 0l0 17.515625l-2.15625 0l0 -2.515625l-0.4375 0l0.4375 -0.515625q0 1.515625 -0.984375 2.390625q-0.984375 0.875 -2.609375 0.875zm0.71875 -1.859375q1.34375 0 2.109375 -0.84375q0.765625 -0.84375 0.765625 -2.328125l0 -3.609375q0 -1.484375 -0.765625 -2.3125q-0.765625 -0.84375 -2.109375 -0.84375q-1.375 0 -2.171875 0.8125q-0.78125 0.8125 -0.78125 2.34375l0 3.609375q0 1.53125 0.78125 2.359375q0.796875 0.8125 2.171875 0.8125zm11.103088 5.9375l0 -1.953125l4.203125 0q1.015625 0 1.484375 -0.46875q0.46875 -0.453125 0.46875 -1.40625l0 -1.6875l0.046875 -2.390625l-0.4375 0l0.40625 -0.359375q0 1.4375 -0.96875 2.28125q-0.953125 0.828125 -2.5625 0.828125q-2.03125 0 -3.21875 -1.328125q-1.171875 -1.328125 -1.171875 -3.59375l0 -2.78125q0 -2.25 1.171875 -3.5625q1.1875 -1.328125 3.21875 -1.328125q1.609375 0 2.5625 0.84375q0.96875 0.828125 0.96875 2.28125l-0.40625 -0.375l0.40625 0l0 -2.515625l2.140625 0l0 13.6875q0 1.765625 -1.09375 2.796875q-1.09375 1.03125 -3.03125 1.03125l-4.1875 0zm3.296875 -7.03125q1.34375 0 2.109375 -0.828125q0.765625 -0.84375 0.765625 -2.328125l0 -2.53125q0 -1.484375 -0.765625 -2.3125q-0.765625 -0.84375 -2.109375 -0.84375q-1.375 0 -2.140625 0.8125q-0.75 0.8125 -0.75 2.34375l0 2.53125q0 1.53125 0.75 2.34375q0.765625 0.8125 2.140625 0.8125zm14.446838 2.953125q-1.5625 0 -2.734375 -0.625q-1.15625 -0.625 -1.796875 -1.75q-0.625 -1.140625 -0.625 -2.65625l0 -3.609375q0 -1.53125 0.625 -2.65625q0.640625 -1.125 1.796875 -1.75q1.171875 -0.625 2.734375 -0.625q1.5625 0 2.71875 0.625q1.171875 0.625 1.796875 1.75q0.640625 1.125 0.640625 2.65625l0 2.328125l-8.203125 0l0 1.28125q0 1.5625 0.78125 2.390625q0.796875 0.828125 2.265625 0.828125q1.25 0 2.015625 -0.4375q0.765625 -0.453125 0.9375 -1.34375l2.15625 0q-0.21875 1.65625 -1.625 2.625q-1.40625 0.96875 -3.484375 0.96875zm3.046875 -7.75l0 -0.890625q0 -1.546875 -0.78125 -2.390625q-0.78125 -0.84375 -2.265625 -0.84375q-1.46875 0 -2.265625 0.84375q-0.78125 0.84375 -0.78125 2.390625l0 0.703125l6.265625 0l-0.171875 0.1875z" fill-rule="nonzero"/><path shape-rendering="crispEdges" fill="#a4c2f4" d="m396.7139 145.60367l51.270355 0l0 41.59581l-51.270355 0l0 -41.59581z" fill-rule="nonzero"/><path shape-rendering="crispEdges" fill="#a4c2f4" d="m396.7139 187.19948l51.270355 0l0 41.595795l-51.270355 0l0 -41.595795z" fill-rule="nonzero"/><path shape-rendering="crispEdges" fill="#a4c2f4" d="m396.7139 228.79527l51.270355 0l0 41.59581l-51.270355 0l0 -41.59581z" fill-rule="nonzero"/><path shape-rendering="crispEdges" fill="#a4c2f4" d="m396.7139 270.39108l51.270355 0l0 41.595795l-51.270355 0l0 -41.595795z" fill-rule="nonzero"/><path shape-rendering="crispEdges" fill="#a4c2f4" d="m396.7139 311.98688l51.270355 0l0 41.595795l-51.270355 0l0 -41.595795z" fill-rule="nonzero"/><path shape-rendering="crispEdges" fill="#a4c2f4" d="m396.7139 353.58267l51.270355 0l0 41.595795l-51.270355 0l0 -41.595795z" fill-rule="nonzero"/><path shape-rendering="crispEdges" fill="#9fc5e8" d="m396.7139 395.17847l51.270355 0l0 41.595825l-51.270355 0l0 -41.595825z" fill-rule="nonzero"/><path stroke="#999999" stroke-width="1.0" stroke-linecap="butt" d="m447.98425 145.10498l0 292.168" fill-rule="nonzero"/><path stroke="#999999" stroke-width="1.0" stroke-linecap="butt" d="m396.2152 187.19948l103.538086 0" fill-rule="nonzero"/><path stroke="#999999" stroke-width="1.0" stroke-linecap="butt" d="m396.2152 228.79527l103.538086 0" fill-rule="nonzero"/><path stroke="#999999" stroke-width="1.0" stroke-linecap="butt" d="m396.2152 270.39108l103.538086 0" fill-rule="nonzero"/><path stroke="#999999" stroke-width="1.0" stroke-linecap="butt" d="m396.2152 311.98688l103.538086 0" fill-rule="nonzero"/><path stroke="#999999" stroke-width="1.0" stroke-linecap="butt" d="m396.2152 353.58267l103.538086 0" fill-rule="nonzero"/><path stroke="#999999" stroke-width="1.0" stroke-linecap="butt" d="m396.2152 395.17847l103.538086 0" fill-rule="nonzero"/><path fill="#000000" d="m418.42407 172.52367l0 -1.671875l5.75 -7.0625l-5.59375 0l0 -1.53125l7.484375 0l0 1.6875l-5.859375 7.046875l6.0625 0l0 1.53125l-7.84375 0z" fill-rule="nonzero"/><path fill="#000000" d="m471.35068 175.88304l1.5 -4.0l-3.796875 -9.625l1.859375 0l2.390625 6.34375q0.125 0.328125 0.234375 0.765625q0.125 0.4375 0.1875 0.734375q0.078125 -0.296875 0.1875 -0.734375q0.109375 -0.4375 0.234375 -0.765625l2.234375 -6.34375l1.8125 0l-5.0625 13.625l-1.78125 0z" fill-rule="nonzero"/><path fill="#000000" d="m422.34595 214.30698q-1.25 0 -2.171875 -0.484375q-0.921875 -0.5 -1.421875 -1.40625q-0.5 -0.90625 -0.5 -2.125l0 -5.96875q0 -1.234375 0.5 -2.125q0.5 -0.890625 1.421875 -1.390625q0.921875 -0.5 2.171875 -0.5q1.265625 0 2.171875 0.5q0.921875 0.5 1.421875 1.390625q0.515625 0.890625 0.515625 2.125l0 5.96875q0 1.21875 -0.515625 2.125q-0.5 0.90625 -1.421875 1.40625q-0.921875 0.484375 -2.171875 0.484375zm0 -1.4375q1.125 0 1.796875 -0.71875q0.6875 -0.71875 0.6875 -1.859375l0 -5.96875q0 -1.140625 -0.6875 -1.859375q-0.671875 -0.71875 -1.796875 -0.71875q-1.109375 0 -1.796875 0.71875q-0.6875 0.71875 -0.6875 1.859375l0 5.96875q0 1.140625 0.6875 1.859375q0.6875 0.71875 1.796875 0.71875zm0 -4.453125q-0.5 0 -0.8125 -0.3125q-0.296875 -0.328125 -0.296875 -0.84375q0 -0.515625 0.296875 -0.8125q0.3125 -0.3125 0.8125 -0.3125q0.5 0 0.8125 0.3125q0.3125 0.296875 0.3125 0.8125q0 0.515625 -0.3125 0.84375q-0.3125 0.3125 -0.8125 0.3125z" fill-rule="nonzero"/><path fill="#000000" d="m469.69443 214.11948l0 -1.53125l3.703125 0l0 -10.6875l-3.703125 2.765625l0 -1.875l3.078125 -2.296875l2.296875 0l0 12.09375l3.03125 0l0 1.53125l-8.40625 0z" fill-rule="nonzero"/><path fill="#000000" d="m418.42407 255.71527l0 -1.53125l3.703125 0l0 -10.6875l-3.703125 2.765625l0 -1.875l3.078125 -2.296875l2.296875 0l0 12.09375l3.03125 0l0 1.53125l-8.40625 0z" fill-rule="nonzero"/><path fill="#000000" d="m469.7413 255.71527l0 -1.71875l4.15625 -4.421875q1.0625 -1.140625 1.546875 -2.015625q0.484375 -0.890625 0.484375 -1.71875q0 -1.125 -0.625 -1.78125q-0.625 -0.65625 -1.703125 -0.65625q-1.1875 0 -1.875 0.671875q-0.6875 0.671875 -0.6875 1.84375l-1.671875 0q0.03125 -1.234375 0.5625 -2.125q0.53125 -0.90625 1.46875 -1.390625q0.953125 -0.5 2.203125 -0.5q1.234375 0 2.140625 0.484375q0.90625 0.46875 1.390625 1.359375q0.484375 0.875 0.484375 2.078125q0 1.15625 -0.625 2.296875q-0.609375 1.140625 -2.015625 2.59375l-3.359375 3.46875l6.21875 0l0 1.53125l-8.09375 0z" fill-rule="nonzero"/><path fill="#000000" d="m418.42407 297.31107l0 -1.53125l3.703125 0l0 -10.6875l-3.703125 2.765625l0 -1.875l3.078125 -2.296875l2.296875 0l0 12.09375l3.03125 0l0 1.53125l-8.40625 0z" fill-rule="nonzero"/><path fill="#000000" d="m473.41318 297.49857q-1.234375 0 -2.15625 -0.484375q-0.921875 -0.5 -1.421875 -1.375q-0.5 -0.890625 -0.5 -2.0625l1.671875 0q0 1.140625 0.640625 1.78125q0.640625 0.640625 1.78125 0.640625q1.15625 0 1.78125 -0.671875q0.640625 -0.671875 0.640625 -1.75l0 -0.96875q0 -1.15625 -0.640625 -1.78125q-0.625 -0.640625 -1.78125 -0.640625l-1.390625 0l0 -1.6875l3.375 -3.28125l-5.53125 0l0 -1.53125l7.21875 0l0 1.6875l-3.625 3.53125l0 -0.21875q1.859375 0 2.953125 1.0625q1.109375 1.0625 1.109375 2.859375l0 0.96875q0 1.171875 -0.515625 2.0625q-0.515625 0.875 -1.453125 1.375q-0.921875 0.484375 -2.15625 0.484375z" fill-rule="nonzero"/><path fill="#000000" d="m418.47095 338.90686l0 -1.71875l4.15625 -4.421875q1.0625 -1.140625 1.546875 -2.015625q0.484375 -0.890625 0.484375 -1.71875q0 -1.125 -0.625 -1.78125q-0.625 -0.65625 -1.703125 -0.65625q-1.1875 0 -1.875 0.671875q-0.6875 0.671875 -0.6875 1.84375l-1.671875 0q0.03125 -1.234375 0.5625 -2.125q0.53125 -0.90625 1.46875 -1.390625q0.953125 -0.5 2.203125 -0.5q1.234375 0 2.140625 0.484375q0.90625 0.46875 1.390625 1.359375q0.484375 0.875 0.484375 2.078125q0 1.15625 -0.625 2.296875q-0.609375 1.140625 -2.015625 2.59375l-3.359375 3.46875l6.21875 0l0 1.53125l-8.09375 0z" fill-rule="nonzero"/><path fill="#000000" d="m475.6788 338.90686l0 -2.984375l-6.15625 0l0 -2.625l5.390625 -8.015625l1.828125 0l-5.546875 8.359375l0 0.75l4.484375 0l0 -3.3125l1.671875 0l0 7.828125l-1.671875 0z" fill-rule="nonzero"/><path fill="#000000" d="m422.14282 380.6902q-1.234375 0 -2.15625 -0.484375q-0.921875 -0.5 -1.421875 -1.375q-0.5 -0.890625 -0.5 -2.0625l1.671875 0q0 1.140625 0.640625 1.78125q0.640625 0.640625 1.78125 0.640625q1.15625 0 1.78125 -0.671875q0.640625 -0.671875 0.640625 -1.75l0 -0.96875q0 -1.15625 -0.640625 -1.78125q-0.625 -0.640625 -1.78125 -0.640625l-1.390625 0l0 -1.6875l3.375 -3.28125l-5.53125 0l0 -1.53125l7.21875 0l0 1.6875l-3.625 3.53125l0 -0.21875q1.859375 0 2.953125 1.0625q1.109375 1.0625 1.109375 2.859375l0 0.96875q0 1.171875 -0.515625 2.0625q-0.515625 0.875 -1.453125 1.375q-0.921875 0.484375 -2.15625 0.484375z" fill-rule="nonzero"/><path fill="#000000" d="m475.6788 380.5027l0 -2.984375l-6.15625 0l0 -2.625l5.390625 -8.015625l1.828125 0l-5.546875 8.359375l0 0.75l4.484375 0l0 -3.3125l1.671875 0l0 7.828125l-1.671875 0z" fill-rule="nonzero"/><path fill="#000000" d="m424.40845 422.09848l0 -2.984375l-6.15625 0l0 -2.625l5.390625 -8.015625l1.828125 0l-5.546875 8.359375l0 0.75l4.484375 0l0 -3.3125l1.671875 0l0 7.828125l-1.671875 0z" fill-rule="nonzero"/><path fill="#000000" d="m473.58505 422.28598q-1.65625 0 -2.734375 -0.859375q-1.0625 -0.859375 -1.25 -2.3125l1.6875 0q0.09375 0.796875 0.6875 1.234375q0.59375 0.4375 1.625 0.4375q1.171875 0 1.75 -0.625q0.59375 -0.640625 0.59375 -1.796875l0 -1.328125q0 -1.15625 -0.59375 -1.78125q-0.578125 -0.640625 -1.734375 -0.640625q-0.71875 0 -1.265625 0.390625q-0.546875 0.375 -0.78125 1.015625l-1.6875 0l0.09375 -7.546875l7.171875 0l0 1.53125l-5.546875 0l-0.046875 4.53125l0.515625 0l-0.515625 0.484375q0 -0.875 0.6875 -1.375q0.703125 -0.5 1.875 -0.5q1.671875 -0.015625 2.59375 1.015625q0.921875 1.03125 0.921875 2.875l0 1.328125q0 1.8125 -1.0625 2.875q-1.0625 1.046875 -2.984375 1.046875z" fill-rule="nonzero"/><path fill="#000000" fill-opacity="0.0" d="m852.126 507.1496l107.87402 0l0 32.850403l-107.87402 0z" fill-rule="evenodd"/><path stroke="#999999" stroke-width="1.0" stroke-linejoin="round" stroke-linecap="butt" d="m852.126 507.1496l107.87402 0l0 32.850403l-107.87402 0z" fill-rule="evenodd"/><path fill="#595959" d="m873.29596 528.3748l0 -8.296875l-2.578125 0l0 -1.453125l6.71875 0l0 1.453125l-2.59375 0l0 8.296875l-1.546875 0zm8.824951 0.140625q-0.921875 0 -1.609375 -0.34375q-0.671875 -0.359375 -1.046875 -1.0q-0.375 -0.65625 -0.375 -1.515625l0 -4.296875q0 -0.875 0.375 -1.515625q0.375 -0.640625 1.046875 -0.984375q0.6875 -0.34375 1.609375 -0.34375q0.9375 0 1.609375 0.359375q0.671875 0.34375 1.046875 0.984375q0.375 0.625 0.375 1.5l-1.546875 0q0 -0.71875 -0.390625 -1.09375q-0.375 -0.375 -1.09375 -0.375q-0.703125 0 -1.09375 0.375q-0.390625 0.375 -0.390625 1.09375l0 4.296875q0 0.703125 0.390625 1.09375q0.390625 0.390625 1.09375 0.390625q0.71875 0 1.09375 -0.390625q0.390625 -0.390625 0.390625 -1.09375l1.546875 0q0 0.859375 -0.375 1.5q-0.375 0.640625 -1.046875 1.0q-0.671875 0.359375 -1.609375 0.359375zm15.946838 -0.015625q-0.921875 0 -1.59375 -0.34375q-0.671875 -0.359375 -1.046875 -1.0q-0.375 -0.640625 -0.375 -1.53125l0 -1.828125q0 -0.890625 0.375 -1.53125q0.375 -0.640625 1.046875 -0.984375q0.671875 -0.359375 1.59375 -0.359375q0.9375 0 1.59375 0.359375q0.671875 0.34375 1.046875 0.984375q0.375 0.640625 0.375 1.515625l0 1.84375q0 0.890625 -0.375 1.53125q-0.375 0.640625 -1.046875 1.0q-0.65625 0.34375 -1.59375 0.34375zm0 -1.359375q0.6875 0 1.078125 -0.390625q0.390625 -0.390625 0.390625 -1.125l0 -1.828125q0 -0.75 -0.390625 -1.125q-0.390625 -0.390625 -1.078125 -0.390625q-0.6875 0 -1.078125 0.390625q-0.390625 0.375 -0.390625 1.125l0 1.828125q0 0.734375 0.390625 1.125q0.390625 0.390625 1.078125 0.390625zm5.059326 1.234375l0 -7.328125l1.53125 0l0 1.390625l0.40625 0l-0.40625 0.359375q0 -0.890625 0.53125 -1.390625q0.53125 -0.5 1.4375 -0.5q1.09375 0 1.734375 0.71875q0.65625 0.703125 0.65625 1.90625l0 4.84375l-1.5625 0l0 -4.671875q0 -0.703125 -0.359375 -1.078125q-0.359375 -0.375 -1.0 -0.375q-0.65625 0 -1.03125 0.40625q-0.375 0.390625 -0.375 1.109375l0 4.609375l-1.5625 0zm18.978027 0.140625q-0.921875 0 -1.609375 -0.34375q-0.671875 -0.359375 -1.046875 -1.0q-0.375 -0.65625 -0.375 -1.515625l0 -4.296875q0 -0.875 0.375 -1.515625q0.375 -0.640625 1.046875 -0.984375q0.6875 -0.34375 1.609375 -0.34375q0.9375 0 1.609375 0.359375q0.671875 0.34375 1.046875 0.984375q0.375 0.625 0.375 1.5l-1.546875 0q0 -0.71875 -0.390625 -1.09375q-0.375 -0.375 -1.09375 -0.375q-0.703125 0 -1.09375 0.375q-0.390625 0.375 -0.390625 1.09375l0 4.296875q0 0.703125 0.390625 1.109375q0.390625 0.390625 1.09375 0.390625q0.71875 0 1.09375 -0.390625q0.390625 -0.40625 0.390625 -1.125l0 -1.03125l-1.75 0l0 -1.359375l3.296875 0l0 2.40625q0 0.859375 -0.375 1.5q-0.375 0.640625 -1.046875 1.0q-0.671875 0.359375 -1.609375 0.359375zm5.012512 -0.140625l0 -9.734375l3.234375 0q0.953125 0 1.65625 0.375q0.703125 0.359375 1.09375 1.03125q0.40625 0.671875 0.40625 1.578125q0 0.875 -0.40625 1.546875q-0.390625 0.671875 -1.09375 1.046875q-0.703125 0.359375 -1.65625 0.359375l-1.671875 0l0 3.796875l-1.5625 0zm1.5625 -5.203125l1.671875 0q0.71875 0 1.140625 -0.421875q0.4375 -0.421875 0.4375 -1.125q0 -0.734375 -0.4375 -1.15625q-0.421875 -0.421875 -1.140625 -0.421875l-1.671875 0l0 3.125zm9.371826 5.34375q-1.421875 0 -2.203125 -0.765625q-0.765625 -0.78125 -0.765625 -2.125l0 -6.984375l1.546875 0l0 6.96875q0 0.71875 0.359375 1.140625q0.359375 0.40625 1.0625 0.40625q0.6875 0 1.046875 -0.40625q0.375 -0.421875 0.375 -1.140625l0 -6.96875l1.546875 0l0 6.984375q0 1.34375 -0.78125 2.125q-0.765625 0.765625 -2.1875 0.765625z" fill-rule="nonzero"/><path fill="#000000" fill-opacity="0.0" d="m752.7323 90.58793l144.72437 0l0 48.472435l-144.72437 0z" fill-rule="evenodd"/><path fill="#595959" d="m769.69775 127.77665l0 -17.515625l2.171875 0l0 2.515625l0.421875 0l-0.421875 0.515625q0 -1.515625 0.984375 -2.390625q1.0 -0.875 2.625 -0.875q2.0 0 3.1875 1.3125q1.1875 1.296875 1.1875 3.578125l0 3.859375q0 1.515625 -0.546875 2.625q-0.53125 1.109375 -1.5 1.703125q-0.96875 0.59375 -2.328125 0.59375q-1.59375 0 -2.609375 -0.875q-1.0 -0.890625 -1.0 -2.390625l0.421875 0.515625l-0.484375 0l0.0625 3.0l0 3.828125l-2.171875 0zm5.0625 -5.9375q1.375 0 2.15625 -0.8125q0.78125 -0.828125 0.78125 -2.359375l0 -3.609375q0 -1.53125 -0.78125 -2.34375q-0.78125 -0.8125 -2.15625 -0.8125q-1.3125 0 -2.109375 0.84375q-0.78125 0.828125 -0.78125 2.3125l0 3.609375q0 1.484375 0.78125 2.328125q0.796875 0.84375 2.109375 0.84375zm13.181213 1.859375q-2.09375 0 -3.296875 -1.0625q-1.1875 -1.0625 -1.1875 -2.890625q0 -1.84375 1.1875 -2.90625q1.203125 -1.0625 3.25 -1.0625l4.078125 0l0 -1.3125q0 -1.21875 -0.734375 -1.875q-0.734375 -0.671875 -2.078125 -0.671875q-1.171875 0 -1.96875 0.5q-0.78125 0.484375 -0.90625 1.328125l-2.15625 0q0.21875 -1.703125 1.609375 -2.703125q1.390625 -1.015625 3.46875 -1.015625q2.28125 0 3.59375 1.171875q1.328125 1.171875 1.328125 3.1875l0 9.078125l-2.109375 0l0 -2.515625l-0.359375 0l0.359375 -0.359375q0 1.4375 -1.125 2.28125q-1.109375 0.828125 -2.953125 0.828125zm0.53125 -1.703125q1.53125 0 2.515625 -0.765625q0.984375 -0.765625 0.984375 -1.96875l0 -1.875l-4.03125 0q-1.078125 0 -1.703125 0.609375q-0.625 0.59375 -0.625 1.625q0 1.109375 0.75 1.75q0.765625 0.625 2.109375 0.625zm16.462463 1.46875q-1.703125 0 -2.65625 -0.90625q-0.9375 -0.921875 -0.9375 -2.578125l0 -7.75l-3.734375 0l0 -1.96875l3.734375 0l0 -3.71875l2.15625 0l0 3.71875l5.28125 0l0 1.96875l-5.28125 0l0 7.75q0 1.515625 1.4375 1.515625l3.59375 0l0 1.96875l-3.59375 0zm7.9624634 0l0 -17.515625l2.171875 0l0 4.3125l0 2.515625l0.453125 0l-0.453125 0.515625q0 -1.5625 0.921875 -2.40625q0.9375 -0.859375 2.59375 -0.859375q2.0 0 3.171875 1.234375q1.171875 1.21875 1.171875 3.328125l0 8.875l-2.15625 0l0 -8.640625q0 -1.421875 -0.765625 -2.1875q-0.75 -0.78125 -2.046875 -0.78125q-1.34375 0 -2.125 0.84375q-0.765625 0.828125 -0.765625 2.359375l0 8.40625l-2.171875 0zm28.799927 0l0 -13.203125l2.171875 0l0 2.515625l0.453125 0l-0.453125 0.515625q0 -1.5625 0.921875 -2.40625q0.9375 -0.859375 2.59375 -0.859375q2.0 0 3.171875 1.234375q1.171875 1.21875 1.171875 3.328125l0 8.875l-2.15625 0l0 -8.640625q0 -1.421875 -0.765625 -2.171875q-0.75 -0.75 -2.046875 -0.75q-1.34375 0 -2.125 0.8125q-0.765625 0.8125 -0.765625 2.34375l0 8.40625l-2.171875 0zm19.399963 0.234375q-1.5625 0 -2.734375 -0.625q-1.15625 -0.625 -1.796875 -1.75q-0.625 -1.140625 -0.625 -2.65625l0 -3.609375q0 -1.53125 0.625 -2.65625q0.640625 -1.125 1.796875 -1.75q1.171875 -0.625 2.734375 -0.625q1.5625 0 2.71875 0.625q1.171875 0.625 1.796875 1.75q0.640625 1.125 0.640625 2.65625l0 2.328125l-8.203125 0l0 1.28125q0 1.5625 0.78125 2.390625q0.796875 0.828125 2.265625 0.828125q1.25 0 2.015625 -0.4375q0.765625 -0.453125 0.9375 -1.34375l2.15625 0q-0.21875 1.65625 -1.625 2.625q-1.40625 0.96875 -3.484375 0.96875zm3.046875 -7.75l0 -0.890625q0 -1.546875 -0.78125 -2.390625q-0.78125 -0.84375 -2.265625 -0.84375q-1.46875 0 -2.265625 0.84375q-0.78125 0.84375 -0.78125 2.390625l0 0.703125l6.265625 0l-0.171875 0.1875zm7.1030884 7.515625l-2.109375 -13.203125l1.921875 0l1.3125 9.359375q0.078125 0.53125 0.15625 1.140625q0.078125 0.609375 0.140625 1.015625q0.046875 -0.40625 0.140625 -1.015625q0.109375 -0.609375 0.1875 -1.140625l1.46875 -9.359375l2.0625 0l1.46875 9.359375q0.0625 0.53125 0.171875 1.140625q0.109375 0.609375 0.15625 1.015625q0.046875 -0.40625 0.15625 -1.015625q0.109375 -0.609375 0.1875 -1.140625l1.359375 -9.359375l1.828125 0l-2.203125 13.203125l-2.390625 0l-1.40625 -9.125q-0.09375 -0.671875 -0.21875 -1.34375q-0.125 -0.671875 -0.171875 -1.046875q-0.046875 0.375 -0.140625 1.046875q-0.09375 0.671875 -0.21875 1.34375l-1.484375 9.125l-2.375 0z" fill-rule="nonzero"/><path stroke="#999999" stroke-width="1.0" stroke-linecap="butt" d="m825.0945 145.10498l0 292.168" fill-rule="nonzero"/><path stroke="#999999" stroke-width="1.0" stroke-linecap="butt" d="m773.32544 436.7743l103.538086 0" fill-rule="nonzero"/><path fill="#000000" d="m794.7999 172.52367l3.640625 -5.28125l-3.421875 -4.984375l1.984375 0l2.03125 3.171875q0.125 0.203125 0.25 0.453125q0.125 0.234375 0.1875 0.390625q0.0625 -0.15625 0.171875 -0.390625q0.125 -0.25 0.265625 -0.453125l2.046875 -3.171875l1.96875 0l-3.421875 5.0l3.625 5.265625l-1.984375 0l-2.203125 -3.359375q-0.125 -0.203125 -0.25 -0.46875q-0.125 -0.28125 -0.21875 -0.4375q-0.0625 0.15625 -0.203125 0.4375q-0.140625 0.265625 -0.296875 0.46875l-2.21875 3.359375l-1.953125 0z" fill-rule="nonzero"/><path fill="#000000" d="m848.4609 175.88304l1.5 -4.0l-3.796875 -9.625l1.859375 0l2.390625 6.34375q0.125 0.328125 0.234375 0.765625q0.125 0.4375 0.1875 0.734375q0.078125 -0.296875 0.1875 -0.734375q0.109375 -0.4375 0.234375 -0.765625l2.234375 -6.34375l1.8125 0l-5.0625 13.625l-1.78125 0z" fill-rule="nonzero"/><path fill="#000000" d="m799.4562 214.30698q-1.25 0 -2.171875 -0.484375q-0.921875 -0.5 -1.421875 -1.40625q-0.5 -0.90625 -0.5 -2.125l0 -5.96875q0 -1.234375 0.5 -2.125q0.5 -0.890625 1.421875 -1.390625q0.921875 -0.5 2.171875 -0.5q1.265625 0 2.171875 0.5q0.921875 0.5 1.421875 1.390625q0.515625 0.890625 0.515625 2.125l0 5.96875q0 1.21875 -0.515625 2.125q-0.5 0.90625 -1.421875 1.40625q-0.921875 0.484375 -2.171875 0.484375zm0 -1.4375q1.125 0 1.796875 -0.71875q0.6875 -0.71875 0.6875 -1.859375l0 -5.96875q0 -1.140625 -0.6875 -1.859375q-0.671875 -0.71875 -1.796875 -0.71875q-1.109375 0 -1.796875 0.71875q-0.6875 0.71875 -0.6875 1.859375l0 5.96875q0 1.140625 0.6875 1.859375q0.6875 0.71875 1.796875 0.71875zm0 -4.453125q-0.5 0 -0.8125 -0.3125q-0.296875 -0.328125 -0.296875 -0.84375q0 -0.515625 0.296875 -0.8125q0.3125 -0.3125 0.8125 -0.3125q0.5 0 0.8125 0.3125q0.3125 0.296875 0.3125 0.8125q0 0.515625 -0.3125 0.84375q-0.3125 0.3125 -0.8125 0.3125z" fill-rule="nonzero"/><path fill="#000000" d="m846.8515 214.11948l0 -1.71875l4.15625 -4.421875q1.0625 -1.140625 1.546875 -2.015625q0.484375 -0.890625 0.484375 -1.71875q0 -1.125 -0.625 -1.78125q-0.625 -0.65625 -1.703125 -0.65625q-1.1875 0 -1.875 0.671875q-0.6875 0.671875 -0.6875 1.84375l-1.671875 0q0.03125 -1.234375 0.5625 -2.125q0.53125 -0.90625 1.46875 -1.390625q0.953125 -0.5 2.203125 -0.5q1.234375 0 2.140625 0.484375q0.90625 0.46875 1.390625 1.359375q0.484375 0.875 0.484375 2.078125q0 1.15625 -0.625 2.296875q-0.609375 1.140625 -2.015625 2.59375l-3.359375 3.46875l6.21875 0l0 1.53125l-8.09375 0z" fill-rule="nonzero"/><path fill="#000000" d="m799.4562 255.90277q-1.25 0 -2.171875 -0.484375q-0.921875 -0.5 -1.421875 -1.40625q-0.5 -0.90625 -0.5 -2.125l0 -5.96875q0 -1.234375 0.5 -2.125q0.5 -0.890625 1.421875 -1.390625q0.921875 -0.5 2.171875 -0.5q1.265625 0 2.171875 0.5q0.921875 0.5 1.421875 1.390625q0.515625 0.890625 0.515625 2.125l0 5.96875q0 1.21875 -0.515625 2.125q-0.5 0.90625 -1.421875 1.40625q-0.921875 0.484375 -2.171875 0.484375zm0 -1.4375q1.125 0 1.796875 -0.71875q0.6875 -0.71875 0.6875 -1.859375l0 -5.96875q0 -1.140625 -0.6875 -1.859375q-0.671875 -0.71875 -1.796875 -0.71875q-1.109375 0 -1.796875 0.71875q-0.6875 0.71875 -0.6875 1.859375l0 5.96875q0 1.140625 0.6875 1.859375q0.6875 0.71875 1.796875 0.71875zm0 -4.453125q-0.5 0 -0.8125 -0.3125q-0.296875 -0.328125 -0.296875 -0.84375q0 -0.515625 0.296875 -0.8125q0.3125 -0.3125 0.8125 -0.3125q0.5 0 0.8125 0.3125q0.3125 0.296875 0.3125 0.8125q0 0.515625 -0.3125 0.84375q-0.3125 0.3125 -0.8125 0.3125z" fill-rule="nonzero"/><path fill="#000000" d="m850.5234 255.90277q-1.234375 0 -2.15625 -0.484375q-0.921875 -0.5 -1.421875 -1.375q-0.5 -0.890625 -0.5 -2.0625l1.671875 0q0 1.140625 0.640625 1.78125q0.640625 0.640625 1.78125 0.640625q1.15625 0 1.78125 -0.671875q0.640625 -0.671875 0.640625 -1.75l0 -0.96875q0 -1.15625 -0.640625 -1.78125q-0.625 -0.640625 -1.78125 -0.640625l-1.390625 0l0 -1.6875l3.375 -3.28125l-5.53125 0l0 -1.53125l7.21875 0l0 1.6875l-3.625 3.53125l0 -0.21875q1.859375 0 2.953125 1.0625q1.109375 1.0625 1.109375 2.859375l0 0.96875q0 1.171875 -0.515625 2.0625q-0.515625 0.875 -1.453125 1.375q-0.921875 0.484375 -2.15625 0.484375z" fill-rule="nonzero"/><path fill="#000000" d="m795.5343 297.31107l0 -1.53125l3.703125 0l0 -10.6875l-3.703125 2.765625l0 -1.875l3.078125 -2.296875l2.296875 0l0 12.09375l3.03125 0l0 1.53125l-8.40625 0z" fill-rule="nonzero"/><path fill="#000000" d="m852.789 297.31107l0 -2.984375l-6.15625 0l0 -2.625l5.390625 -8.015625l1.828125 0l-5.546875 8.359375l0 0.75l4.484375 0l0 -3.3125l1.671875 0l0 7.828125l-1.671875 0z" fill-rule="nonzero"/><path fill="#000000" d="m795.5343 338.90686l0 -1.53125l3.703125 0l0 -10.6875l-3.703125 2.765625l0 -1.875l3.078125 -2.296875l2.296875 0l0 12.09375l3.03125 0l0 1.53125l-8.40625 0z" fill-rule="nonzero"/><path fill="#000000" d="m852.789 338.90686l0 -2.984375l-6.15625 0l0 -2.625l5.390625 -8.015625l1.828125 0l-5.546875 8.359375l0 0.75l4.484375 0l0 -3.3125l1.671875 0l0 7.828125l-1.671875 0z" fill-rule="nonzero"/><path fill="#000000" d="m795.5812 380.5027l0 -1.71875l4.15625 -4.421875q1.0625 -1.140625 1.546875 -2.015625q0.484375 -0.890625 0.484375 -1.71875q0 -1.125 -0.625 -1.78125q-0.625 -0.65625 -1.703125 -0.65625q-1.1875 0 -1.875 0.671875q-0.6875 0.671875 -0.6875 1.84375l-1.671875 0q0.03125 -1.234375 0.5625 -2.125q0.53125 -0.90625 1.46875 -1.390625q0.953125 -0.5 2.203125 -0.5q1.234375 0 2.140625 0.484375q0.90625 0.46875 1.390625 1.359375q0.484375 0.875 0.484375 2.078125q0 1.15625 -0.625 2.296875q-0.609375 1.140625 -2.015625 2.59375l-3.359375 3.46875l6.21875 0l0 1.53125l-8.09375 0z" fill-rule="nonzero"/><path fill="#000000" d="m850.69525 380.6902q-1.65625 0 -2.734375 -0.859375q-1.0625 -0.859375 -1.25 -2.3125l1.6875 0q0.09375 0.796875 0.6875 1.234375q0.59375 0.4375 1.625 0.4375q1.171875 0 1.75 -0.625q0.59375 -0.640625 0.59375 -1.796875l0 -1.328125q0 -1.15625 -0.59375 -1.78125q-0.578125 -0.640625 -1.734375 -0.640625q-0.71875 0 -1.265625 0.390625q-0.546875 0.375 -0.78125 1.015625l-1.6875 0l0.09375 -7.546875l7.171875 0l0 1.53125l-5.546875 0l-0.046875 4.53125l0.515625 0l-0.515625 0.484375q0 -0.875 0.6875 -1.375q0.703125 -0.5 1.875 -0.5q1.671875 -0.015625 2.59375 1.015625q0.921875 1.03125 0.921875 2.875l0 1.328125q0 1.8125 -1.0625 2.875q-1.0625 1.046875 -2.984375 1.046875z" fill-rule="nonzero"/><path fill="#000000" d="m799.25305 422.28598q-1.234375 0 -2.15625 -0.484375q-0.921875 -0.5 -1.421875 -1.375q-0.5 -0.890625 -0.5 -2.0625l1.671875 0q0 1.140625 0.640625 1.78125q0.640625 0.640625 1.78125 0.640625q1.15625 0 1.78125 -0.671875q0.640625 -0.671875 0.640625 -1.75l0 -0.96875q0 -1.15625 -0.640625 -1.78125q-0.625 -0.640625 -1.78125 -0.640625l-1.390625 0l0 -1.6875l3.375 -3.28125l-5.53125 0l0 -1.53125l7.21875 0l0 1.6875l-3.625 3.53125l0 -0.21875q1.859375 0 2.953125 1.0625q1.109375 1.0625 1.109375 2.859375l0 0.96875q0 1.171875 -0.515625 2.0625q-0.515625 0.875 -1.453125 1.375q-0.921875 0.484375 -2.15625 0.484375z" fill-rule="nonzero"/><path fill="#000000" d="m850.69525 422.28598q-1.65625 0 -2.734375 -0.859375q-1.0625 -0.859375 -1.25 -2.3125l1.6875 0q0.09375 0.796875 0.6875 1.234375q0.59375 0.4375 1.625 0.4375q1.171875 0 1.75 -0.625q0.59375 -0.640625 0.59375 -1.796875l0 -1.328125q0 -1.15625 -0.59375 -1.78125q-0.578125 -0.640625 -1.734375 -0.640625q-0.71875 0 -1.265625 0.390625q-0.546875 0.375 -0.78125 1.015625l-1.6875 0l0.09375 -7.546875l7.171875 0l0 1.53125l-5.546875 0l-0.046875 4.53125l0.515625 0l-0.515625 0.484375q0 -0.875 0.6875 -1.375q0.703125 -0.5 1.875 -0.5q1.671875 -0.015625 2.59375 1.015625q0.921875 1.03125 0.921875 2.875l0 1.328125q0 1.8125 -1.0625 2.875q-1.0625 1.046875 -2.984375 1.046875z" fill-rule="nonzero"/><path fill="#000000" fill-opacity="0.0" d="m279.39108 266.95276l40.944885 0l0 48.472443l-40.944885 0z" fill-rule="evenodd"/><path fill="#595959" d="m291.37134 296.04898l7.65625 -4.828125l-7.65625 -5.0l0 9.828125zm16.984375 -9.828125l-7.65625 5.0l7.65625 4.828125l0 -9.828125zm1.0 -2.0l0 13.828125l-9.484375 -6.15625l-9.5 6.15625l0 -13.828125l9.5 6.328125l9.484375 -6.328125z" fill-rule="nonzero"/></g></svg>